/* XPM */
static char *_715772090289[] = {
/* columns rows colors chars-per-pixel */
"64 64 253 2 ",
"   c #753834",
".  c #55483C",
"X  c #7D4E3C",
"o  c #7E523B",
"O  c #104B7B",
"+  c #3A5C6F",
"@  c #794E43",
"#  c #7B5244",
"$  c #775748",
"%  c #71504D",
"&  c #7E5954",
"*  c #756357",
"=  c #4B656F",
"-  c #767270",
";  c #B03E14",
":  c #B13F26",
">  c #B64319",
",  c #9B4025",
"<  c #854D35",
"1  c #8A4D35",
"2  c #854E3B",
"3  c #8B4D3B",
"4  c #934C37",
"5  c #885137",
"6  c #83513C",
"7  c #89513C",
"8  c #B84628",
"9  c #AE543E",
"0  c #C64719",
"q  c #D34712",
"w  c #E85B1C",
"e  c #F95A16",
"r  c #F55B1C",
"t  c #CF6C1C",
"y  c #D9681B",
"u  c #E76517",
"i  c #ED6F12",
"p  c #C34825",
"a  c #C6532A",
"s  c #D65A32",
"d  c #EB5E24",
"f  c #EB5E28",
"g  c #F35D24",
"h  c #F65B29",
"j  c #EB5D33",
"k  c #DB6529",
"l  c #D86636",
"z  c #D16F30",
"x  c #DA713A",
"c  c #E36324",
"v  c #E66424",
"b  c #F46528",
"n  c #EE742E",
"m  c #E26732",
"M  c #844E42",
"N  c #894C46",
"B  c #845242",
"V  c #8B5242",
"C  c #885949",
"Z  c #925B46",
"A  c #915648",
"S  c #935D4B",
"D  c #8A4F52",
"F  c #885858",
"G  c #9B5A56",
"H  c #B55545",
"J  c #88604B",
"K  c #96634A",
"L  c #886557",
"P  c #936553",
"I  c #9A6553",
"U  c #956B5A",
"Y  c #A36A57",
"T  c #AE6C52",
"R  c #8A6A62",
"E  c #966F63",
"W  c #8B7468",
"Q  c #987768",
"!  c #956970",
"~  c #987D74",
"^  c #AE7B63",
"/  c #A97A67",
"(  c #B67B66",
")  c #AA7679",
"_  c #BA7E7B",
"`  c #CF724B",
"'  c #D67748",
"]  c #E37745",
"[  c #E2734C",
"{  c #C37D69",
"}  c #F1941E",
"|  c #D89B39",
" . c #EC8127",
".. c #F3AB28",
"X. c #FAC139",
"o. c #8D827C",
"O. c #998579",
"+. c #B48A6E",
"@. c #A38274",
"#. c #A98678",
"$. c #B68B78",
"%. c #B99275",
"&. c #D78442",
"*. c #D98556",
"=. c #D78966",
"-. c #D08B69",
";. c #C38D79",
":. c #DF8D72",
">. c #C3947A",
",. c #DD9577",
"<. c #E78B68",
"1. c #EE966A",
"2. c #E69879",
"3. c #EBAC77",
"4. c #E7C85A",
"5. c #F2D071",
"6. c #0A4D87",
"7. c #0D5B96",
"8. c #0F6599",
"9. c #176698",
"0. c #2C688E",
"q. c #035EA6",
"w. c #0567A9",
"e. c #1268A0",
"r. c #026AB3",
"t. c #006BB9",
"y. c #477597",
"u. c #597998",
"i. c #427AA4",
"p. c #3D83A9",
"a. c #6B8793",
"s. c #4785AB",
"d. c #508BB0",
"f. c #6587A5",
"g. c #6995AC",
"h. c #7493AA",
"j. c #70A4C2",
"k. c #90958F",
"l. c #A68B84",
"z. c #AA9489",
"x. c #B39285",
"c. c #B89688",
"v. c #B39393",
"b. c #B59997",
"n. c #B9A59A",
"m. c #A69EA6",
"M. c #BAABA3",
"N. c #BFB4A9",
"B. c #CB9B85",
"V. c #D59C86",
"C. c #CA989E",
"Z. c #E69B83",
"A. c #C7A78C",
"S. c #D1A28B",
"D. c #D7AB8F",
"F. c #C8A999",
"G. c #D8AA96",
"H. c #D7B297",
"J. c #E9A88D",
"K. c #E5AD97",
"L. c #F6AC90",
"P. c #E7B799",
"I. c #E5BA9D",
"U. c #F4B49A",
"Y. c #FBBB9D",
"T. c #D7ADA0",
"R. c #CFB2AB",
"E. c #C9B7AB",
"W. c #DAB7A7",
"Q. c #CEBABB",
"!. c #E8BAA4",
"~. c #F8BDA3",
"^. c #F5CB9A",
"/. c #FAE196",
"(. c #D6C2AF",
"). c #CAC2BB",
"_. c #D9C5BA",
"`. c #EBC4A6",
"'. c #EDC3AB",
"]. c #F2C2A6",
"[. c #F8C4A4",
"{. c #F2C5AB",
"}. c #FBC4AA",
"|. c #F4CCAD",
" X c #FBCCAE",
".X c #EBD0A8",
"XX c #E9C9B7",
"oX c #F0C6B3",
"OX c #F5CCB3",
"+X c #FBCCB2",
"@X c #F3CEBB",
"#X c #F9CDB9",
"$X c #EBD2BB",
"%X c #ECD1BC",
"&X c #F5D1B2",
"*X c #F2D1BD",
"=X c #F8D2B8",
"-X c #F7EBB3",
";X c #92B3C6",
":X c #D5BFC4",
">X c #A2C8DB",
",X c #A3CADA",
"<X c #B2CBD0",
"1X c #C9C4C2",
"2X c #DCC9C3",
"3X c #D8C9C6",
"4X c #DED3CA",
"5X c #DCD6D6",
"6X c #E4C5C5",
"7X c #ECCDC1",
"8X c #F1CEC1",
"9X c #EDD3C3",
"0X c #E3D2CC",
"qX c #EAD8CA",
"wX c #F3D3C4",
"eX c #F6D9C9",
"rX c #E3DBD5",
"tX c #E8DAD5",
"yX c #EBDCDB",
"uX c #F6DCD3",
"iX c #FAEFCA",
"pX c #ECE3D6",
"aX c #EBE2DC",
"sX c #F4E3D4",
"dX c #FAE3D2",
"fX c #F5E5DC",
"gX c #F9E9DA",
"hX c #FBEADB",
"jX c #FCFAD9",
"kX c #C5D8E3",
"lX c #E7DFE1",
"zX c #D3ECED",
"xX c #DCF4F8",
"cX c #EBE8E5",
"vX c #F5ECE4",
"bX c #FAEDE3",
"nX c #F8E8E7",
"mX c #F5EDEA",
"MX c #FCF2E5",
"NX c #F6F1EC",
"BX c #FCF4EC",
"VX c #F9FBE9",
"CX c #FDFAED",
"ZX c #E8F6F9",
"AX c #ECFBFD",
"SX c #F5F3F3",
"DX c #FCF6F3",
"FX c #F6FBF5",
"GX c #FCFBF5",
"HX c #F3F6F9",
"JX c #FCF7FB",
"KX c #F5FDFD",
"LX c #FEFEFE",
/* pixels */
"LXLXLXLXLXLXLXLXLXLXLXLXGXLXLXLXLXGXLXGXLXLXLXLXLXKXLXKXKXLXLXLXLXGXLXLXLXKXLXKXLXKXLXKXLXLXLXLXKXLXKXLXLXLXLXLXLXLXLXLXLXLXLXLX",
"LXLXLXLXLXLXGXGXGXLXLXLXLXGXLXGXLXGXLXKXLXGXKXLXKXKXKXKXLXLXLXKXGXLXGXGXKXLXLXKXHXKXKXKXLXJXGXKXLXKXLXKXKXLXKXLXKXLXLXLXLXLXLXJX",
"LXLXLXLXLXGXJXLXGXGXLXJXGXGXGXKXKXGXGXGXGXJXGXGXLXLXLXLXGXDXNXNXNXvXmXNXNXDXGXGXLXJXmXrX5XaXNXFXGXLXLXKXKXKXKXLXLXLXLXLXJXLXLXLX",
"LXLXLXLXLXLXGXGXGXLXGXGXGXDX5X1X3XcXGXGXGXHXGXDXmXaX3XR.n.z.@.Q Q E Q Q ) z.n.E.3XtXtXE.~ W l.).aXGXFXGXLXLXLXKXLXLXLXLXLXLXLXLX",
"LXLXLXLXLXLXLXJXLXJXJXGXNX).o.- k.Q.tXnXyX5XQ.b.l.E F # X X 2 X o < 2 < X X X # F E x.F.x.L % ~ E.hXvXpXpXrXlXcXSXJXLXLXLXLXLXLX",
"LXLXLXLXLXLXKXKXKXGXDXCXvXM.L $ $ J P U I S N M 2 2 2 3 7 3 3 3 3 3 3 3 3 5 3 2 2 2 3 A S C 6 S @.$.@.R * W ~ l.N.5XSXFXKXKXLXLX",
"LXLXLXLXLXHXHXLXGXDXGXVXgX$Xc.U B X 2 2 2 2 3 3 3 3 3 3 3 3 3 7 3 3 3 3 3 3 3 3 3 3 3 3 3 V V 2 6 o o 6 U %.E.XXtXbXGXGXFXHXHXLX",
"LXLXLXLXJXJXDXnXaX_.n.$.@.Q P J 2 2 < 2 3 N 3 3 2 3 3 3 3 3 3 3 3 1 1 3 7 3 3 3 3 4 3 3 4 3 3 2 6 < 6 6 5 6 J U #.F.0XvXDXSXFXLX",
"LXLXLXLXDXnXQ.x.E C M # M 6 2 5 3 3 3 N 3 3 N 3 3 3 3 7 3 3 3 3 3 3 3 7 3 3 3 3 3 3 3 1 3 1 3 < 5 < < 5 2 3 6 M @ # R b.0XVXGXGX",
"GXLXGXSX0Xc.P B M B 2 2 3 3 3 3 3 3 3 4 3 3 3 V 3 3 3 3 3 3 3 3 3 3 3 3 3 3 3 3 3 3 3 3 3 4 1 3 1 1 < 5 1 1 3 7 B M # & #.3XDXLX",
"DXJXDX4Xz.F B 3 2 3 3 3 4 N 3 3 3 4 3 3 3 3 3 3 3 7 3 3 4 V 3 3 2 3 3 3 7 3 3 3 3 3 3 3 3 3 < 2 5 5 5 1 5 1 3 3 B N # @ W n.aXFX",
"GXGXaXN.W $ C V 2 M 3 3 3 3 3 4 3 3 3 3 3 3 3 3 3 3 7 3 3 3 3 3 3 3 1 3 3 3 3 3 < 1 3 3 3 V 3 2 5 5 7 5 7 K I V B E x.~ O.M.aXGX",
"GXGXpXE.z.#.Y V M 3 3 N N N 3 4 3 3 3 3 1 5 5 3 1 3 3 3 3 3 3 3 3 1 3 3 3 3 < 3 G ^ ( Y N V 2 2 K +.B.^ 7 +.V.B.U L n._.4XpXNXFX",
"DXDXnX2Xz.L B B 3 N 2 2 3 3 3 3 3 3 1 1 1 1 1 5 1 3 3 3 3 3 4 V 3 3 3 3 7 6 I >.!.{.!.$.A V P +.F.|.&XH.>.S.!.{.B.W z.rXFXGXLXLX",
"DXGXtXb.F X M 6 2 2 3 2 2 3 3 3 3 1 3 1 5 1 1 1 3 3 3 3 3 3 3 3 3 3 3 2 6 I S.oXOXOX{.K.V.D.!.{.&XOX=X X|. X+X XW.F.(.vXGXKXLXLX",
"LXGX5Xb.R L P V 3 3 3 3 3 3 4 3 3 3 3 3 3 < 3 3 3 3 3 3 3 3 3 3 3 V A Z S ^ I.oX+XOXoX+X+X].D.;.+.A.`. X X X X+X=X=XhXNXCXFXLXLX",
"LXJXSXlX0XQ.B.A 2 2 3 3 3 1 3 3 3 4 4 3 3 2 2 N 2 2 2 1 3 3 5 < < Z ^ S.G.H.!.+XOXOXOX&X|..XH.n.F.(..X.XOX+XOXOX*XdXMXCXGXGXLXLX",
"KXLXLXJXSX2X) V B V 6 3 3 3 4 4 4 3 3 3 2 3 3 2 5 5 Z ^ ;.B.S.;./ 7 K >.].+X+XOX XOXOXOX$X(.(.E.M.n.E.(.%XwX*X@XwXsXCXGXKXKXKXKX",
"LXLXLXLXDX).~ $ $ # X M 3 3 1 1 1 4 1 1 3 2 2 2 5 I S.].].I.I.{.H.%.+.A.{.+X|.OX+X+X&X$X%XpXqXE.o.* . W R.7X7X7XeXgXGXGXKXKXKXKX",
"LXLXKXLXGXaXn.O.z.#.L X 2 < 1 1 1 1 1 1 1 3 2 2 5 ^ P.^.].I.H.I..X|.{. X+X&X X+X X+X+X*X$XsXpXN.- . % O.W.8X8X@XwXuXgXCXGXKXKXLX",
"LXLXLXLXLXGXmXcXbX_.@.$ X M 3 3 4 4 1 1 1 1 1 < 5 Z +.P.{.|.{..X|.&X&X|. XOXOX+X+X+X+XOXoX@XeXeX$X_.XX@X@XOX#X#X*X%XuXhXCXGXFXGX",
"LXLXLXLXLXLXFXFXGXmX_.l.! P M 3 3 3 4 1 1 1 1 1 1 1 K >.`. X X&X&X&X&X&X=X+X X X{.U.J.Z.Z.2.2.Z.J.^.}. X X+X=X&X9XsXMXCXGXGXGXLX",
"LXLXLXLXLXKXGXLXGXDXBXnXtXR.Q D M N N 3 3 < 1 1 1 5 +.K.|. X X|.&X&X&X&X+X+X+X+X~.U.V.2.:.:.:.,.2.J.[.~.!.`.oX$XeXMXGXGXGXGXLXGX",
"LXLXLXLXLXLXGXKXLXJXGXDXBXbX).#.& @ M @ X V I Y K 7 >.].+X+XOX X X X X X+X+X}.+X+X}.}.~.Y.Y.Y.Y.[. X X^.I.H.F.E.0XMXGXGXGXGXLXLX",
"LXLXLXLXLXLXLXJXLXJXDXJXGXGXCXpXE.O.* $ @ C #.G.H.S.!.oX+X+X+X+X+X+X+X+X+X+X+X}.+X+X+X+X X}. X X+X X&X*X$X$X9XeXMXVXGXJXLXGXLXLX",
"LXLXLXLXLXLXLXLXLXLXLXLXGXKXGXGXNXcX4XE.z.l.C.XXwXwX%X%XOX=X#XOX&X X+X+X+X+X+X#X+XOX#X#X=X+X&XOX&X$X$X$X9XpXMXCXGXGXGXLXLXLXLXLX",
"LXLXLXLXLXLXLXLXLXLXLXLXLXLXGXGXDXGXGXGXCXmXnXMXMXhXfXsXeXeXwXwX=X+X+X+X#X+X#X@X*X*X*X%X%X9X9X9XqXqXsXhXVXVXGXGXLXGXLXLXLXLXLXLX",
"LXLXLXLXLXLXLXLXLXLXLXLXLXLXLXJXGXLXLXGXGXGXLXGXLXGXGXGXBXMXhXsXeX=X@XoX#XeXdXhXsXsXfXgXfXgXfXnXNXCXGXGXGXGXGXLXGXLXLXLXLXLXGXGX",
"LXLXLXLXLXLXLXLXLXLXLXLXLXLXLXLXLXLXLXLXLXLXGXKXKXFXFXFXCXuXG./ I / ;.G.!.%XeXhXnXMXDXDXDXGXGXLXLXLXLXGXLXLXLXLXLXLXGXLXLXLXLXGX",
"LXLXLXLXLXLXLXLXLXLXLXLXLXLXLXLXLXLXLXLXLXLXLXLXLXKXKXDXuXK.` a 0 > ; , 4 H H T { ;.G.6XbXDXGXKXKXKXKXLXJXJXGXGXGXGXGXKXGXLXLXLX",
"LXLXLXLXLXLXLXLXLXLXLXLXLXLXLXLXLXLXLXLXLXLXLXLXGXGXCXhX!.=.l d r b j s s s a p p : 9 { '.hXCXKXKXAXKXJXLXJXGXGXGXGXFXLXLXLXLXLX",
"LXLXLXLXLXLXLXLXLXLXLXLXLXLXLXLXLXLXLXLXLXLXLXLXGXVXjX%X,.x c w e r h h j h h h h j j ` :.].dXNXGXLXLXJXJXLXLXLXGXFXLXLXLXLXLXLX",
"LXLXLXLXLXLXLXLXLXLXLXLXLXLXLXLXLXLXLXLXLXLXLXLXGXCXhXI.*.l f h h j j h h h h e r h h l l =.^.iXVXCXLXLXLXLXLXLXKXGXKXLXLXLXLXLX",
"LXLXLXLXLXLXLXLXLXLXLXLXLXLXLXLXLXLXLXLXLXLXLXGXLXGXeXJ.` a 8 0 p p p p 0 q q q w c d y t &.3.-XjXVXGXGXJXLXLXLXKXKXKXLXLXLXLXLX",
"LXLXLXLXLXLXLXLXLXLXLXLXLXLXLXLXLXLXLXLXLXLXLXLXLXJXeX2.` p : 8 H H H 8 > > ; 0 c n  . .} | 5./.-XjXVXGXJXLXLXLXLXKXLXGXLXLXLXJX",
"LXLXLXLXLXLXLXLXLXLXLXLXLXLXLXLXLXLXLXLXLXLXLXLXLXNX|.<.l s ` <.L.~.U.<.x k v u u n  .} ..X.X./.-XiXVXGXJXJXLXLXLXKXKXLXJXLXLXLX",
"LXLXLXLXLXLXLXLXLXLXLXLXLXLXLXLXLXLXLXLXLXLXLXLXJXMX].*.k y k [ L.[.Y.1.n y u u u i i ......| 4./.-XjXVXGXLXJXLXLXGXKXGXLXGXLXLX",
"LXLXLXLXLXLXLXLXLXLXLXLXLXLXLXLXLXLXLXLXLXLXJXGXDXbX].&.k d f ' 1.Y.[.1.&.y u u i b  .n  .z t T 3.-XjXVXFXGXLXJXLXLXLXLXGXLXLXLX",
"LXLXLXLXLXLXLXLXLXLXLXLXLXLXLXLXLXLXLXLXLXLXLXGXCXhXU.&.k f f ] 1.Y.[.3.&.t y i u g b g i w k z %..XiXVXGXLXJXJXLXLXLXLXLXLXGXLX",
"LXLXLXLXLXLXLXLXLXLXLXLXLXLXLXLXLXLXLXLXLXLXLXGXBXhXU.*.k k f m <.L.^.L.<.k y w r v w r e e f l -..XjXVXGXLXJXJXLXKXKXGXGXGXLXLX",
"LXLXLXLXLXLXLXLXLXLXLXLXLXLXLXLXLXLXLXLXLXLXLXLXJXNXXX=.z y u c n 1.~.~.Z.[ ` k w e e e r r f s *.I.hXCXJXJXJXLXKXKXKXKXLXLXLXLX",
"LXLXLXLXLXLXLXLXLXLXLXLXLXLXLXLXLXLXLXLXLXLXLXKXKXHX0XV.` l k z [ 2.~.}.].J.1.[ m b r u f j s ` -.!.hXCXJXLXLXLXKXKXKXKXLXLXGXLX",
"LXLXLXLXLXLXLXLXLXLXLXLXLXLXLXLXLXLXLXLXLXLXLXJXGXDXMXtXF.Q J P $.!.#X+X+X~.3.+.T T T K T T { B.T.9XNXGXGXLXJXLXLXKXKXKXLXLXLXLX",
"LXLXLXLXLXLXLXLXLXLXLXLXLXLXLXLXLXLXLXLXLXLXLXDXGXCXSXSXzX<Xk.a.k.1X3X2X1XQ.m.- = + = = - M.0XnXBXDXDXGXJXLXLXLXLXKXKXKXLXLXLXLX",
"LXLXLXLXLXLXLXLXLXLXLXLXLXLXLXLXLXLXLXLXLXLXLXGXDXFXFXAXAXAXxX<Xh.a.h.j.j.g.p.9.9.9.p.;XzXxXKXHXHXKXHXKXJXLXGXLXLXKXKXLXLXJXLXLX",
"LXLXLXLXLXLXLXLXLXLXLXLXLXLXLXLXLXLXLXLXLXLXLXLXLXLXLXKXKXKXAX<Xf.O 8.e.w.w.w.w.8.9.s.,XAXAXKXKXLXLXLXGXLXLXLXLXLXLXLXLXLXLXLXLX",
"LXLXLXLXLXLXLXLXLXLXLXLXLXLXLXLXLXLXLXLXLXLXLXLXLXLXLXLXLXKXZX,Xd.0.8.w.r.r.r.r.w.8.s.,XAXKXLXKXLXLXLXLXLXLXLXLXLXLXLXLXLXLXLXLX",
"LXLXLXLXLXLXLXLXLXLXLXLXLXLXLXLXLXLXLXLXLXLXLXLXLXGXGXGXKXKXxX>Xd.9.w.w.r.t.r.r.w.9.s.>XAXAXKXLXLXLXLXLXLXLXLXLXLXLXLXLXLXLXLXLX",
"LXLXLXLXLXLXLXLXLXLXLXLXLXLXLXLXLXLXLXLXLXLXLXGXGXGXGXGXKXAXxX>Xi.9.7.q.q.q.q.q.7.6.i.;XZXKXKXLXKXKXLXLXLXLXLXLXLXLXLXLXLXLXLXLX",
"LXLXLXLXLXLXLXLXLXLXLXLXLXLXLXLXLXLXLXLXLXLXLXLXGXCXCXGXKXKXxX>Xu.O 6.7.6.6.6.6.6.O y.;XZXKXKXKXLXLXLXLXLXLXLXJXLXLXLXLXLXLXLXLX",
"LXLXLXLXLXLXLXLXLXLXLXLXLXLXLXLXLXLXLXLXLXLXLXLXGXGXGXGXKXKXAXkX;Xh.u.u.u.y.u.u.f.h.;XkXZXKXKXLXLXLXLXJXJXLXLXLXLXLXLXLXKXLXLXLX",
"LXLXLXLXLXLXLXLXLXLXLXLXLXLXLXLXLXLXLXLXLXLXLXLXLXKXLXGXLXHXLXJXJXnXlX5X5X5XcXHXZXKXAXAXKXKXKXLXLXLXLXLXLXLXLXLXLXLXLXLXLXLXLXLX",
"LXLXLXLXLXLXLXLXLXLXLXLXLXLXLXLXLXLXLXLXLXLXLXLXLXKXKXKXLXKXGXGXDXbXuX8X7XwXnXMXGXJXGXLXKXKXLXLXLXLXLXLXLXJXLXLXLXLXLXLXLXLXLXLX",
"LXLXLXLXLXLXLXLXLXLXLXLXLXLXLXLXLXLXLXLXLXLXLXLXGXLXLXGXKXGXGXGXDXbXuXwX7XwXfXDXJXLXLXKXLXLXLXLXLXJXJXJXJXJXJXLXLXLXLXKXKXKXLXLX",
"LXLXLXLXLXLXLXLXLXLXLXLXLXLXLXLXLXLXLXLXLXLXLXLXLXLXLXLXLXLXGXGXCXMXuXeX9XqXgXCXGXKXKXKXKXKXLXLXLXLXLXLXLXLXLXLXLXLXLXLXLXGXGXLX",
"LXLXLXLXLXLXLXLXLXLXLXLXLXLXLXLXLXLXLXLXLXLXLXLXLXLXLXLXLXGXGXGXDXbXeXeXwXwXsXVXCXGXKXGXGXLXLXJXLXKXLXKXLXLXLXKXLXLXLXLXLXLXLXLX",
"LXLXLXLXLXLXLXLXLXLXLXLXLXLXLXLXLXLXLXLXLXLXLXLXLXLXLXLXLXLXJXDXMXtXR.T.T.W.oXuXfXyXfXnXnXnXnXJXJXLXLXKXKXKXKXKXKXLXLXLXLXLXLXLX",
"LXLXLXLXLXLXLXLXLXLXLXLXLXLXLXLXLXLXLXLXLXLXLXLXJXGXDXKXKXLXGXSXyXx.%       G _ ) ) v.C.) D ! v.:XcXJXJXLXLXKXKXKXKXKXLXLXLXLXLX",
"LXLXLXLXLXLXLXLXLXLXLXLXLXLXLXLXLXLXLXLXLXLXLXLXLXLXKXGXKXLXLXJXyXb.F D D D D D D F F F D D & & ~ Q.nXJXGXLXLXGXLXKXLXLXLXLXLXLX",
"LXLXLXLXLXLXLXLXLXLXLXLXLXLXLXLXLXLXLXLXLXLXLXLXGXGXGXLXLXKXKXLXSXyX6X6XoX6X6X6X6X6X4X3X6X6X:X3X4XyXNXHXGXLXLXLXLXLXLXLXLXLXLXLX",
"LXLXLXLXLXLXLXLXLXLXLXLXLXLXLXLXLXLXLXLXLXLXLXLXLXGXLXLXKXKXKXKXHXLXGXGXJXDXDXJXFXKXFXFXFXFXVXFXDXFXDXLXGXLXLXLXLXLXLXLXLXLXLXLX",
"LXLXLXLXLXLXLXLXLXLXLXLXLXLXLXLXLXLXLXLXLXLXLXLXLXLXLXLXLXKXLXKXLXLXLXLXJXJXJXJXLXLXLXGXGXGXGXGXLXGXLXGXLXLXLXLXLXLXLXLXLXLXLXLX",
"LXLXLXLXLXLXLXLXLXLXLXLXLXLXLXLXLXLXLXLXLXLXLXLXLXLXLXLXLXLXLXLXLXLXLXLXLXLXLXLXLXLXLXLXLXLXLXLXLXLXLXLXLXLXLXLXLXLXLXLXLXLXLXLX",
"LXLXLXLXLXLXLXLXLXLXLXLXLXLXLXLXLXLXLXLXLXLXLXLXLXLXGXGXLXGXLXLXGXLXGXLXLXJXLXLXGXLXLXLXLXLXLXLXLXLXLXLXLXLXLXLXLXLXLXLXLXLXLXLX"
};
