/* XPM */
static char *_715772082474[] = {
/* columns rows colors chars-per-pixel */
"64 64 238 2 ",
"   c #7B2329",
".  c #7E2D33",
"X  c #793638",
"o  c #7D4E3C",
"O  c #7A513D",
"+  c #763941",
"@  c #0D4E7B",
"#  c #124E76",
"$  c #794D42",
"%  c #7C5242",
"&  c #7A564B",
"*  c #7C5651",
"=  c #59586A",
"-  c #67656B",
";  c #61626F",
":  c #7B6667",
">  c #6D6C79",
",  c #94361A",
"<  c #A63919",
"1  c #B43D17",
"2  c #841E2C",
"3  c #973A26",
"4  c #833432",
"5  c #94492E",
"6  c #844D36",
"7  c #8B4C36",
"8  c #854D3A",
"9  c #8B4D3B",
"0  c #954A35",
"q  c #914A3A",
"w  c #8A5037",
"e  c #84513C",
"r  c #8A503B",
"t  c #A74029",
"y  c #A24534",
"u  c #ED5E1D",
"i  c #FA5B15",
"p  c #F45D1C",
"a  c #FA5A1B",
"s  c #EB611D",
"d  c #F3601D",
"f  c #C94723",
"g  c #D34C29",
"h  c #DA5528",
"j  c #D95F34",
"k  c #EE5E23",
"l  c #E45D28",
"z  c #ED5D2A",
"x  c #F25C22",
"c  c #F95922",
"v  c #F05C29",
"b  c #E45C32",
"n  c #EA5D31",
"m  c #DC642B",
"M  c #CD6838",
"N  c #DC6434",
"B  c #D86839",
"V  c #E46325",
"C  c #EA6122",
"Z  c #E3632B",
"A  c #EB612B",
"S  c #F06128",
"D  c #E56234",
"F  c #853241",
"G  c #824E43",
"H  c #8B4C40",
"J  c #835343",
"K  c #8A5444",
"L  c #855942",
"P  c #835B4C",
"I  c #8C5C4A",
"U  c #875D54",
"Y  c #955657",
"T  c #A75548",
"R  c #89624E",
"E  c #93614F",
"W  c #896659",
"Q  c #956958",
"!  c #9F715C",
"~  c #B8664A",
"^  c #AC6A54",
"/  c #866864",
"(  c #976E63",
")  c #8A7266",
"_  c #9C7869",
"`  c #8D7A76",
"'  c #A47968",
"]  c #A57170",
"[  c #B87B7B",
"{  c #D05F40",
"}  c #C86744",
"|  c #D56942",
" . c #D4744C",
".. c #C77D63",
"X. c #9D8174",
"o. c #BF856F",
"O. c #AA8679",
"+. c #B18678",
"@. c #CF835F",
"#. c #E18558",
"$. c #CD8B6F",
"%. c #D98965",
"&. c #DA9375",
"*. c #E89368",
"=. c #E69978",
"-. c #0A4C8B",
";. c #095388",
":. c #155584",
">. c #0B5997",
",. c #175E95",
"<. c #215B94",
"1. c #18648D",
"2. c #0A659A",
"3. c #0A649D",
"4. c #166298",
"5. c #397293",
"6. c #095CA9",
"7. c #055FB2",
"8. c #0764A7",
"9. c #0B63A3",
"0. c #0465AB",
"q. c #036AAC",
"w. c #1064A1",
"e. c #0266B6",
"r. c #2A75A8",
"t. c #3779A9",
"y. c #426986",
"u. c #4B7093",
"i. c #49799A",
"p. c #467EA4",
"a. c #B37C86",
"s. c #BC7B82",
"d. c #3783B8",
"f. c #5C839C",
"g. c #5B8AA7",
"h. c #5695B7",
"j. c #6B95AB",
"k. c #77ACC6",
"l. c #7DB1CC",
"z. c #79B3D1",
"x. c #9F8A84",
"c. c #A98983",
"v. c #B78583",
"b. c #AA9188",
"n. c #B69687",
"m. c #A99A98",
"M. c #B49C95",
"N. c #ADA09F",
"B. c #B8A297",
"V. c #B4ACA7",
"C. c #C69799",
"Z. c #DCA285",
"A. c #C4A698",
"S. c #EBAD90",
"D. c #E9B798",
"F. c #C6ADA4",
"G. c #D4A8A3",
"H. c #CAB5A8",
"J. c #D7B6A7",
"K. c #CBBBB6",
"L. c #D4BDB7",
"P. c #E6B9A7",
"I. c #E4B8B8",
"U. c #F0BDB0",
"Y. c #F7C29B",
"T. c #D8C6B9",
"R. c #ECC6AA",
"E. c #F5CAAA",
"W. c #ECC8B5",
"Q. c #F5C8B5",
"!. c #F3CCBA",
"~. c #EDD1B3",
"^. c #EBD3BD",
"/. c #F7D6B9",
"(. c #86B2C7",
"). c #98B6C5",
"_. c #8DBCD8",
"`. c #A9C7D6",
"'. c #B6D2DF",
"]. c #A8D3E4",
"[. c #DCCBC3",
"{. c #D9CAC6",
"}. c #D0CFD3",
"|. c #DAD5D8",
" X c #E6CBC6",
".X c #F1CDC1",
"XX c #E5D3C3",
"oX c #ECD3C3",
"OX c #E3D2CA",
"+X c #EAD2CC",
"@X c #E5D9CA",
"#X c #EDDACB",
"$X c #F2D4C2",
"%X c #F3DAC5",
"&X c #F7D8C9",
"*X c #F3DCCB",
"=X c #E5D9D6",
"-X c #ECDCD4",
";X c #F1DED6",
":X c #DCE2D2",
">X c #EEE3CF",
",X c #F5E2CB",
"<X c #FBE4CC",
"1X c #E5E1D7",
"2X c #ECE2D4",
"3X c #EDE2DB",
"4X c #F3E3D4",
"5X c #F3E5DC",
"6X c #F8E6D9",
"7X c #FAEBDC",
"8X c #D3DBE2",
"9X c #C9E3EC",
"0X c #D7E6EB",
"qX c #CEEAF4",
"wX c #D5EAF2",
"eX c #DDF1F5",
"rX c #E9E5E3",
"tX c #F4EAE4",
"yX c #F9EDE3",
"uX c #F6E6E8",
"iX c #F4ECEA",
"pX c #F2EEEE",
"aX c #FAEFEB",
"sX c #FCF3E4",
"dX c #F5F3EB",
"fX c #F5F5E8",
"gX c #FCF4EB",
"hX c #FCFAED",
"jX c #E9FBF7",
"kX c #EDFAFC",
"lX c #F4F5F2",
"zX c #FCF5F2",
"xX c #F5FCF5",
"cX c #FCFBF5",
"vX c #F6F5FA",
"bX c #FDF6F9",
"nX c #F6FCFC",
"mX c #FDFEFD",
/* pixels */
"mXmXmXmXmXmXmXmXmXmXcXmXmXmXmXcXmXmXmXmXmXmXmXmXmXmXmXmXmXmXnXmXnXmXmXnXmXmXmXmXmXmXmXmXmXmXmXmXnXmXnXnXmXmXmXmXmXmXmXmXmXmXmXmX",
"mXmXmXmXmXmXmXmXmXmXmXmXbXmXmXmXmXnXmXmXnXmXmXmXmXmXmXmXmXnXmXmXmXnXbXmXmXmXmXmXmXmXmXmXmXmXmXnXnXnXnXmXnXmXnXmXnXmXmXmXmXmXmXmX",
"mXmXmXmXmXmXmXbXcXbXcXvXvXmXmXnXnXnXvXmXmXmXnXvXmXmXmXbXlXcXcXcXcXnXcXmXmXmXlX0X|.8XrXpXvXmXmXnXcXmXxXnXcXnXbXcXmXmXmXmXmXmXmXmX",
"mXmXmXmXmXmXmXmXcXbXzXtX=X=XiXvXbXbXvXmXbXcXzXtX-XT.K.A.B.M.M.M.B.F.K.T.OX;XtXOXN.` > m.{.pXzXbXcXcXcXcXmXcXmXmXmXmXmXmXmXmXmXmX",
"mXmXmXmXmXmXmXmXcXtXT.b.) x.{.iXgXgXtX2X[.H.n._ R L O e o o 8 e G % % J U ( O.H.F.O.* & O.XX5X3X-X@X|.=XtXdXcXmXmXmXmXmXmXmXmXmX",
"mXmXnXmXmXmXnXbX3XA.W O & * ( O.O.O._ Q R O o o w r w 7 w w 9 9 9 9 9 8 H 8 6 K E E I K Q +.' ( W : / ` m.T.=XlXnXnXmXnXmXmXmXmX",
"nXnXbXbXbXbXlXdX[.O.L e e o o 6 6 6 6 8 w r 9 9 8 9 9 9 9 9 9 9 9 9 9 9 9 8 9 9 9 6 9 9 H r 8 P _ n.J.^.@XuXdXlXxXnXnXnXnXvXmXmX",
"bXcXzX3X{.H.M.c._ Q e 6 w 6 w w 8 8 9 r 7 r 8 9 9 9 9 9 9 9 w 9 9 9 9 9 9 9 9 9 9 9 9 8 9 8 8 e L P Q ( O.B.[.5XzXcXxXnXmXmXmXmX",
"zX;XH.` U % $ G 8 e r r 8 8 9 8 8 8 9 8 8 r 9 9 9 H 9 9 r q 9 9 9 9 9 r 9 9 9 9 8 9 9 9 6 9 9 r 8 8 8 8 G J W ] F.;XlXcXxXcXnXcX",
"3XF./ $ $ K 9 7 6 9 H 9 8 9 9 r 9 9 9 9 9 9 r 9 9 8 9 9 9 9 r 9 9 9 9 9 r 9 9 9 9 9 9 9 9 9 9 6 8 9 q H H H G J U b.OXfXcXcXcXnX",
"{.c.* O H 9 0 7 0 7 9 7 9 9 9 9 9 9 9 9 9 H 9 9 r 8 r 9 9 9 H r 9 9 9 9 q r r 9 9 9 9 9 9 9 9 7 7 9 q 9 q H L L & / V.3XcXcXnXmX",
"K.x.W U P 9 7 7 7 7 q q 9 q 9 9 q 9 9 9 9 9 9 8 r r r 9 9 9 9 9 9 9 9 r 9 9 9 9 9 9 9 9 9 9 9 q 7 7 q 9 9 K ' +._ ) H.tXcXnXmXmX",
"rX{.L.b.E o r 9 7 q 9 q q q q 9 9 9 9 9 9 9 9 9 8 r r 8 9 9 9 r r 9 9 r 9 9 9 9 9 9 9 r 9 9 9 9 q q 7 8 e O R O.H.T.1XdXcXnXmXmX",
"bXbXOXb.& o J 8 9 9 9 9 9 7 9 9 9 9 9 9 9 9 9 9 9 9 9 9 9 r 9 9 9 9 r q r H 9 r 9 9 9 9 9 9 9 9 7 9 q 8 w 6 O Q H.7XcXcXnXmXmXmX",
"mXcX+Xb.& $ G 8 9 9 9 9 9 9 9 9 9 9 9 r 9 9 9 9 H 9 9 9 r q 9 r 9 9 9 9 9 9 r 9 9 9 9 9 9 9 9 9 q 8 7 7 w 6 O Q F.7XgXcXmXmXnXmX",
"gX3XH.O.P 6 6 9 9 9 9 9 9 H 9 9 r H 9 9 9 9 r 9 9 9 9 9 9 9 9 9 r 9 9 r 9 9 q r 9 9 9 9 9 9 9 9 H q 7 q w w e _ H.6XzXmXvXnXvXmX",
"7XF.) % O w w 7 7 7 7 9 q w q r 9 9 q r 9 9 9 9 9 9 9 9 9 9 9 9 9 9 9 r r 9 r 9 9 9 9 9 9 9 9 H q q 7 9 K r 8 P X.{.aXbXmXmXmXmX",
"@XB.W O e w 7 5 7 7 9 w 9 r r 9 9 r r 9 9 r r 9 9 9 9 9 r 9 9 r 9 r H 9 9 r q 9 9 9 9 9 9 9 9 9 H 9 q 9 8 r % * X.{.zXvXvXbXmXbX",
"=XH.X.L o w 7 5 7 7 9 9 9 9 9 9 H 9 9 9 K 9 q r 9 9 9 9 9 9 9 H 9 r q r 9 9 9 9 9 r 9 9 9 9 9 9 9 9 9 8 8 8 W _ K.iXvXvXbXvXmXbX",
"tX@XL.n.Q L w 6 7 9 9 9 9 r 9 9 9 9 9 9 9 9 9 9 9 9 9 9 9 9 9 9 9 q 9 r 9 9 w 9 9 9 9 9 9 9 9 8 9 8 6 J ! n.H.oXyXbXmXmXmXmXmXmX",
"zXyX5X*XJ.+.I K 8 8 9 9 9 9 r 9 9 9 9 9 9 9 9 9 9 9 9 9 9 9 9 9 r 9 9 9 9 9 w 9 9 9 9 9 9 r 8 r L 8 L ' P.%X6XsXcXmXmXnXnXnXmXmX",
"cXcXzXsXsXOXb.U % e 8 7 w 7 6 7 6 w w 6 9 9 9 9 9 H H 8 8 8 8 9 r 9 8 9 7 9 9 7 9 9 7 8 8 r e % $ P O.^.7XgXhXzXmXmXnXmXmXmXmXmX",
"cXnXxXcXcXcX1XV.) O w e 6 7 r w 7 w 7 7 7 9 9 9 H H H H H 8 9 8 9 9 7 9 7 7 7 7 7 9 r r 8 8 % & ) B.-XgXzXcXmXmXnXmXmXmXmXmXmXmX",
"nXcXcXcXcXdXzXsXT.n.Q J o r 9 9 9 7 q q q q q 9 q q H 9 H 9 H q q 7 9 q 7 q 9 9 r K 8 8 G % Q b.[.iXhXzXzXcXcXmXmXmXmXmXmXmXmXmX",
"mXcXmXcXcXcXcXcXsX7X[.M.( P L G 9 9 q q q q q q q 9 9 9 9 q q q q 9 9 9 9 9 9 8 e L % & _ A.XX7XcXcXcXcXcXcXnXnXnXmXmXmXmXmXmXmX",
"mXmXmXmXnXmXmXmXnXcXhXsX2XT.M._ E I H 8 9 7 9 7 6 6 8 9 9 9 8 8 9 9 G 8 8 $ % U W X.B.T.2XsXhXcXcXcXcXcXcXnXcXcXmXmXmXmXmXmXmXmX",
"mXmXmXmXmXmXmXmXnXxXxXxXxXfXyX2XoXJ.A.n.+.' ! Q E I I I I K E Y E Q Q ' O.n.B.J.XX5XgXcXcXcXmXmXnXmXmXnXmXnXmXmXnXmXmXmXmXmXmXmX",
"mXmXmXmXmXnXmXnXnXnXnXnXxXxXhXhXhXsX7X<X<X%X!.Q.Q.W.P.P.P.P.P.I.!.!.$X&X<X7XsXhXhXcXcXcXnXnXnXmXmXmXmXmXmXmXmXcXmXmXcXmXmXmXmXmX",
"mXmXmXmXmXnXmXnXmXnXmXnXmXcXcXhXhXsX7X4XXXT.J.J.I.Q.U.U.U.Q..XQ.P.J.J.T.oX4XyXgXcXmXcXmXmXmXbXmXmXmXmXmXmXmXcXmXmXmXmXmXmXmXmXmX",
"mXmXmXmXmXmXnXnXnXnXnXcXhX7X<X^.D.Z.&...~ 5 3 3 3 3 t y y y y 3 3 , , y ~ ..=.Z.P.$X6XaXzXbXbXbXmXvXmXbXmXmXmXmXcXmXmXmXmXmXmXmX",
"mXbXmXmXmXmXmXmXnXhXsX,XR.Z.@.| B j b b z b b g h g f f f g g g g g h l l l m m B  .$.S.!.6XaXbXcXmXvXmXmXmXnXmXmXmXmXmXmXmXmXmX",
"mXmXmXmXmXvXnXzXgX&XD.%.} B m V k x x c x x v v z n v v n n n v v A u p p p u u z n j |  .=.U.6XzXcXbXmXmXnXmXmXmXmXmXmXmXmXmXmX",
"mXmXbXmXbXvXvXrXG...{ { Z V C i i i i i p p x v v k x x p u u p d d d i a i i a d v A b N M ~ n.L.uXbXbXbXmXmXmXmXmXmXmXmXmXmXmX",
"mXmXnXmXmXmXlX{.] T 2 < t f h u u d d a p x p p x x x p i d a p x p x v x S p S u h h f < , 4 U N.=XbXbXbXbXmXmXmXmXmXmXmXmXmXmX",
"mXmXmXmXnXmXcXzXiX+XG...T t < 1 h Z A A A k k k k p p x p v v v z z v z z l l m f < < y T $.G.+XuXzXbXbXmXmXmXmXmXmXmXmXmXmXmXmX",
"mXmXmXmXmXmXmXmXbXvXuX&XQ.S.*. .j m A z z k k k u k k x k k v v z v v v z z z N M  .*.D.Q.&XyXgXmXbXbXbXnXbXbXmXmXmXmXmXmXmXmXmX",
"mXmXmXvXcXmXmXmXmXsX*X^.E.Y.*.B h z v x x x x k k u k u A k u x x p p a a i s V N  .S.E.!..X-XgXbXmXmXcXmXnXnXnXmXmXmXmXmXmXmXmX",
"cXmXmXmXmXmXmXmXdX6X^.~./.Y.*.B N A A x x x c x x k s k p c u C k p p p d s C A V  .=.E.$XoX-X5XsXzXcXmXmXmXnXmXnXmXmXmXmXmXmXmX",
"cXcXcXmXmXmXmXnXsX&X~././.Y.%.| D k u p u i i a p d s s c x k A k v k C C C C A Z | =.E.%XoXXX>X7XhXcXmXnXnXmXnXmXmXmXcXmXcXmXmX",
"mXmXcXmXcXmXcXgX5X$X~././.D.#.N l v p a i a i a a x k k x x k k x c a a d i i S A D *.Y.%X/.~.,X6XgXcXcXnXmXnXnXnXmXmXmXcXmXmXmX",
"mXmXmXcXcXcXcXsX;X+XoX*X<XD.%.| b n k k x c c c x v z z z v k k x c p a c c x v b | &.R.<X,X^.XX,XsXhXcXnXmXnXmXmXmXmXcXcXcXmXmX",
"mXcXcXcXcXcXsX7X#XoX$X<X<XD.@.} N D m V s u a a a a u u k C C k p x x x c n n B | } $.R.<X,X^.^.*X7XgXcXmXmXmXmXmXmXmXmXmXmXmXmX",
"mXmXcXcXhXyX2X#XoX!./././.E.S.@.} M M M M N N D b b m m Z V Z V m m N N j { } ~ ^ o.D.Q././.~.~.^.%X5XfXcXmXmXnXmXmXnXmXcXmXmXmX",
"mXcXcXcXsX2XOXXXoXoX+X2XsXcXrXN.> = ; ; - - - : / / : : : / / / : : - - - ; ; = u.V.rXaXtX>X^.~.^.^.#X5XdXcXmXmXmXmXmXcXmXmXmXmX",
"mXcXcXzXsX7X>X%X#X#X2XrXjXjXqX(.i.1.4.4.8.3.9.4.,.,.1.,.<.,.<.<.4.2.2.2.w.w.w.>.5.(.qXnXzXtX>X%XoX%X>X7XgXmXmXmXcXmXmXmXcXmXmXmX",
"mXmXmXmXcXzXgXsXyXsXgXcXxXjXwX(.5.4.w.0.e.e.e.e.0.8.9.r.d.t.w.w.q.q.q.q.q.q.0.3.r.(.9XnXcXhXsXsXsXgXgXzXmXmXmXmXmXmXmXmXmXmXmXmX",
"mXmXmXmXmXmXmXmXmXnXnXmXnXnXqXl.t.1.w.e.e.e.e.e.q.8.9.h.z.h.4.3.q.q.8.q.q.q.e.9.r.k.qXnXxXcXmXmXmXmXmXmXmXmXmXmXmXmXmXmXmXmXmXmX",
"mXmXmXmXmXmXmXmXnXmXmXmXnXkX9Xk.5.2.6.e.e.e.e.e.0.3.r.z.].z.t.2.w.9.q.8.q.e.q.8.r.k.9XvXnXnXmXmXmXmXmXmXmXmXmXmXmXmXmXmXmXmXmXmX",
"mXmXmXmXmXmXmXmXmXmXmXbXmXkX'.h.:.;.8.6.7.7.7.6.>.>.t._.9X_.d.>.>.2.>.2.6.0.0.>.1.g.'.nXnXnXnXmXmXmXmXmXmXmXmXmXmXmXmXmXmXmXmXmX",
"mXmXmXmXmXmXmXmXmXcXbXbXvXkX`.i.@ @ ;.-.-.-.-.-.-.@ i.`.qX`.f.@ :.@ ;.;.;.;.;.-.# u.`.nXmXnXmXmXmXmXmXmXmXmXmXmXmXmXmXmXmXmXmXmX",
"mXmXmXmXmXmXmXmXmXcXmXmXvXnX0X).j.g.i.u.u.y.y.5.u.i.).wXkXwX).g.5.= ; 5.5.y.p.g.j.).8XnXnXnXmXmXmXmXmXmXmXmXmXmXmXmXmXmXmXmXmXmX",
"mXmXmXmXmXmXmXmXmXcXcXcXmXnXxXjXkXkXrX8X}.}.8XwXeXeXkXvXvXnXkXeXeXqX}.}.}.0XeXjXvXcXnXcXmXnXnXmXmXmXmXmXmXmXmXmXmXmXmXmXmXmXmXmX",
"mXmXmXmXmXmXmXmXmXcXzXbXbXcXxXcXhXhX7X%X.X$X4XsXhXcXxXzXbXnXbXxXxXsX-X^.XX4XsXzXcXhXhXzXnXnXnXnXmXmXmXmXmXmXmXmXmXmXmXmXmXmXmXmX",
"mXmXmXmXmXmXmXmXmXnXcXnXcXcXcXhXhXsX<X/.!./.<XsXhXcXxXnXxXcXnXcXhX7X&X^./.&X7XgXgXgXhXcXmXmXmXmXmXmXmXmXmXmXmXmXmXmXmXmXmXmXmXmX",
"mXmXmXmXmXmXmXmXmXnXmXmXmXcXcXcXhXsX4X$XoX$X4XgXhXcXnXnXnXmXbXcXcXsX6XXXXX#X7XgXhXcXmXmXnXnXnXmXmXmXmXmXmXmXmXmXmXmXmXmXmXmXmXmX",
"mXmXmXmXmXmXmXmXmXmXbXmXmXmXnXcXcXsX2XXXXX*X7XzXzXbXmXmXmXmXmXbXcXzX5X@X@X2XyXhXcXzXnXnXnXnXmXmXmXmXmXmXmXmXmXmXmXmXmXmXmXmXmXmX",
"mXmXmXmXmXmXmXmXmXbXnXmXmXbXbXmXzXuX+XT.T.@X7XhXxXnXnXnXmXmXbXbXcXaX-X X X+X;XaXzXbXbXvXmXmXmXmXmXmXmXmXmXmXmXmXmXmXmXmXmXmXmXmX",
"mXmXmXmXmXmXmXmXmXzXzXsX+X X XI.C.[ Y Y U ' F.3XzXcXnXnXnXcXcXhXgX+XC.( Y Y Y [ G.I. X XrXaXbXmXmXmXmXmXmXmXmXmXmXmXmXmXmXmXmXmX",
"mXmXmXmXmXmXmXmXzXhX@Xb.* + F F 2 2 2     4 v.XXgXcXcXxXxXjXxXhXaXL.] .   2   . . X X $ / H.uXvXmXmXmXmXmXmXmXmXmXmXmXmXmXmXmXmX",
"mXmXmXmXmXmXmXnXcXfX:XV.a.a.a.a.s.s.[ a.O.b.K.3XzXnXnXxXjXxXxXcXgX+XC.s.s.s.s.s.[ a.c.O.c.L.uXmXmXmXmXmXmXmXmXmXmXmXmXmXmXmXmXmX",
"mXmXmXmXmXmXmXmXxXxXxXlXeXuXiXaXuXuXiXiXfXpXlXxXnXbXnXmXmXmXmXvXmXlXdXiXiXiXiXtXiXuXuXtXdXgXbXmXmXmXmXmXmXmXmXmXmXmXmXmXmXmXmXmX",
"mXmXmXmXmXmXmXmXnXnXbXmXvXbXbXbXmXmXmXnXnXnXnXmXmXmXbXmXmXmXmXmXmXmXmXmXnXnXnXnXnXnXnXnXmXbXmXmXmXmXmXmXmXmXmXmXmXmXmXmXmXmXmXmX",
"mXmXmXmXmXmXmXmXmXmXmXmXmXmXmXmXmXmXmXmXmXmXmXmXmXmXmXmXmXmXmXmXmXmXmXmXmXmXmXmXmXmXmXmXmXmXmXmXmXmXmXmXmXmXmXmXmXmXmXmXmXmXmXmX",
"mXmXmXmXmXmXmXmXmXmXbXmXmXmXmXmXmXmXmXmXmXmXmXmXmXmXmXmXmXmXmXmXmXmXmXmXmXmXmXmXmXmXmXmXmXmXmXmXmXmXmXmXmXmXmXmXmXmXmXmXmXmXmXmX"
};
