/* XPM */
static char *_715772099850[] = {
/* columns rows colors chars-per-pixel */
"64 64 248 2 ",
"   c #763C38",
".  c #7E4E3C",
"X  c #7E503D",
"o  c #144E7E",
"O  c #3F5D6F",
"+  c #7F4F42",
"@  c #68594E",
"#  c #765447",
"$  c #7C5345",
"%  c #7B5A4B",
"&  c #506870",
"*  c #7E7873",
"=  c #B8410F",
"-  c #B64317",
";  c #864E35",
":  c #8A4D35",
">  c #83413D",
",  c #854E3B",
"<  c #8A4D3B",
"1  c #984E39",
"2  c #885136",
"3  c #85513D",
"4  c #8A523C",
"5  c #B94728",
"6  c #AF4B31",
"7  c #C74817",
"8  c #D34712",
"9  c #EA5B1C",
"0  c #F85A16",
"q  c #F55B1B",
"w  c #DC671C",
"e  c #E76417",
"r  c #EC6F12",
"t  c #C24623",
"y  c #C64B25",
"u  c #C6552E",
"i  c #D45930",
"p  c #EC5F23",
"a  c #E85E29",
"s  c #F35B24",
"d  c #F95A25",
"f  c #F25C2B",
"g  c #EA5C35",
"h  c #DA6728",
"j  c #D86838",
"k  c #D77233",
"l  c #E36325",
"z  c #E76324",
"x  c #E97729",
"c  c #ED7230",
"v  c #844E42",
"b  c #8A4E48",
"n  c #845343",
"m  c #8C5343",
"M  c #885848",
"N  c #945B4A",
"B  c #904F51",
"V  c #875756",
"C  c #945A55",
"Z  c #B15744",
"A  c #8B634E",
"S  c #94624D",
"D  c #98644A",
"F  c #896557",
"G  c #976856",
"H  c #996C5D",
"J  c #A56A55",
"K  c #AE6D52",
"L  c #895B61",
"P  c #906F6C",
"I  c #8A756A",
"U  c #987468",
"Y  c #9B7B6C",
"T  c #AD7A63",
"R  c #A97B68",
"E  c #B07A77",
"W  c #D06F4C",
"Q  c #D97945",
"!  c #D57957",
"~  c #E47847",
"^  c #C37E69",
"/  c #E27F64",
"(  c #E98522",
")  c #F59820",
"_  c #F3AE2C",
"`  c #9B8478",
"'  c #BA866C",
"]  c #A98679",
"[  c #B28B74",
"{  c #B98C75",
"}  c #CE8342",
"|  c #DD8555",
" . c #E68B5B",
".. c #D88A64",
"X. c #D8916F",
"o. c #C48A76",
"O. c #DF8E74",
"+. c #C2937A",
"@. c #C5987F",
"#. c #EB936C",
"$. c #E79879",
"%. c #D9A879",
"&. c #EBAB77",
"*. c #E7C759",
"=. c #F1CF70",
"-. c #0B4E87",
";. c #0C5B98",
":. c #0C669E",
">. c #196697",
",. c #2C6991",
"<. c #035FA6",
"1. c #0668A9",
"2. c #0169B3",
"3. c #006AB8",
"4. c #397AA4",
"5. c #4E7C9C",
"6. c #587792",
"7. c #5A7A9A",
"8. c #3C81A7",
"9. c #5F8A9F",
"0. c #728D94",
"q. c #4987AC",
"w. c #548EB2",
"e. c #6786A3",
"r. c #7594AB",
"t. c #74A2BD",
"y. c #998983",
"u. c #909B97",
"i. c #A78D85",
"p. c #AA9389",
"a. c #B59486",
"s. c #B2958F",
"d. c #B59A96",
"f. c #B8A59C",
"g. c #BEB09E",
"h. c #959EA1",
"j. c #BCB3AC",
"k. c #CA9A83",
"l. c #D49A85",
"z. c #C39297",
"x. c #E49C84",
"c. c #EB9D82",
"v. c #C8A78C",
"b. c #D5A48C",
"n. c #C8A897",
"m. c #D6AA97",
"M. c #D9B398",
"N. c #EAA98D",
"B. c #F4A98B",
"V. c #F5AA8F",
"C. c #E4AA94",
"Z. c #E9B79C",
"A. c #E6BA9D",
"S. c #F8B799",
"D. c #F9BB9B",
"F. c #C6ABA2",
"G. c #DCAEA0",
"H. c #C6B6A9",
"J. c #D8B6A7",
"K. c #CBBBB6",
"L. c #DCBEB8",
"P. c #E5B9A5",
"I. c #EABCA3",
"U. c #F8BBA3",
"Y. c #E3BEBE",
"T. c #EED198",
"R. c #D5C3B4",
"E. c #D8C3B3",
"W. c #D5C3BC",
"Q. c #DAC5BD",
"!. c #E6C7A7",
"~. c #EEC1A5",
"^. c #ECC3AA",
"/. c #EEC8AB",
"(. c #F2C2A5",
"). c #FAC2A2",
"_. c #F3C5AD",
"`. c #FAC5AA",
"'. c #F4CCAD",
"]. c #FBCBAE",
"[. c #E8C9B7",
"{. c #F5CCB3",
"}. c #F6CCB7",
"|. c #FACCB2",
" X c #F3CDBB",
".X c #EBD4B7",
"XX c #EDD1BD",
"oX c #F4D0B1",
"OX c #F4D2BB",
"+X c #F8EDB4",
"@X c #93B4C8",
"#X c #D3BDC2",
"$X c #E4BFC0",
"%X c #9EC6D7",
"&X c #B0C7C8",
"*X c #A8C9D8",
"=X c #DAC5C3",
"-X c #DBCAC6",
";X c #DDD3CC",
":X c #CBCED1",
">X c #DCD6D5",
",X c #E9CBC2",
"<X c #EDD3C3",
"1X c #E8D7CB",
"2X c #F3D4C4",
"3X c #F4D7C8",
"4X c #F5DCCC",
"5X c #E5DBD5",
"6X c #E9DBD7",
"7X c #E5DDDB",
"8X c #F5DDD3",
"9X c #F3DFDA",
"0X c #F7E4CD",
"qX c #F2EDCC",
"wX c #E6E1DA",
"eX c #ECE4DB",
"rX c #F5E3D4",
"tX c #F9E7D7",
"yX c #F5E6DB",
"uX c #FAECDE",
"iX c #FBF8D7",
"pX c #C7D8E4",
"aX c #E3DDE0",
"sX c #D4EAED",
"dX c #DCF4F8",
"fX c #EBE7E6",
"gX c #F4E5E3",
"hX c #F4EBE3",
"jX c #FAEDE4",
"kX c #F4EDEA",
"lX c #F9EAE8",
"zX c #FCF2E5",
"xX c #F6F1EC",
"cX c #FBF5ED",
"vX c #F8FAE9",
"bX c #FCFAEC",
"nX c #F0EFF1",
"mX c #E3F4F6",
"MX c #EAF5F9",
"NX c #EDFBFC",
"BX c #F6F4F3",
"VX c #FBF6F3",
"CX c #F5FAF5",
"ZX c #FBFBF5",
"AX c #F5F6F9",
"SX c #FDF7FC",
"DX c #F5FDFC",
"FX c #FDFEFD",
/* pixels */
"FXFXFXFXFXFXFXFXFXFXFXFXDXDXFXFXFXFXFXFXDXFXDXDXDXSXFXFXFXFXZXZXFXFXFXFXFXDXFXDXSXFXFXFXFXFXFXFXFXFXFXFXFXFXFXFXFXFXFXFXFXFXFXFX",
"FXFXFXFXFXFXFXFXDXFXDXFXDXFXDXDXDXCXCXDXDXDXDXDXDXDXDXFXCXFXFXFXCXFXSXDXDXDXDXDXDXZXFXZXCXCXDXDXZXZXFXZXZXFXFXZXZXZXFXFXFXFXFXFX",
"FXSXFXFXFXSXFXFXFXDXDXDXFXFXFXZXMXnXwX>X7XnXAXSXFXZXcXxXkXhXhXhXkXxXCXZXSXDXFXDXVXDXFXZXZXFXVXCXCXFXCXZXZXFXZXFXFXFXDXFXFXFXFXFX",
"FXFXFXFXFXSXFXFXFXFXFXFXCXZXCXeXR.p.Y ` H.1X1X=XH.d.p.] Y Y Y U Y ] p.f.H.-X9XkXVXVXVXDXZXZXfX-X=X>XVXZXVXFXZXZXZXZXZXSXFXFXFXFX",
"FXFXFXDXSXFXSXBXfXwX5X5XeXyXeXH.Y % F a.v.a.U V n . . . ; , 2 . . , X v M F U i.f.K.1X6XyX5XK.y.* y.=XfXCXZXDXSXDXFXFXFXFXFXFXFX",
"SXDXDXDXCXxX>Xj.p.` I I H ` [ ] A v M C B < : < < < < < ; , < < < , < 4 , , > , n M C G H F F % # I g.eXZXCXCXCXCXDXFXSXFXFXFXFX",
"FXCXCXCXCXVXgX1XR.n.[ G X X . ; < b < < < < < < < < < < < < < < < < < < < < < < < > > , , , , n G a..XrXzXvXVXFXSXAXSXDXSXFXFXFX",
"FXCXCXcXhX-Xn.] U A M 3 3 2 . ; < < < < < < < < < < < 4 < < < 4 < 4 < < 4 < < < < b < ; , ; ; m M A Y ] a.F.W.6XkXVXVXFXFXFXFXFX",
"FXCXkX-Xd.P M $ , , 2 2 , ; ; ; 2 , : : < : < < < < < < < < < < < < < < < < < < < < < < < < < < , ; , v n $ A U a.L.yXVXFXFXFXFX",
"CXxX=X] F $ $ 3 , , : : ; ; ; : : < < < < < < < < < < < < < < : < 4 4 < < < < < b < < < < < < < < < < < ; , v v $ H d.1XkXFXDXVX",
"CXwXf.I # $ % 4 , < < : 2 2 2 2 < : < < < : < < < 4 < < < < < < < < < < < < < < < < < < < < < < < < 1 < < < < v , n F s.;XVXVXVX",
"bXwXg.` Y ] H n N D N 4 2 4 4 2 < < < v < > < : : < < < < ; < < 4 < 4 < < < < ; , , < < < < < 1 < < < v < v , < b n % I H.eXVXFX",
"ZXxX5X;XR.d.H H +.k.T D T +.' S . , , m J T T J 4 ; < < < ; < < < < < < < < < < < ; 2 ; < < < < < > b 1 < b , < N H ] s.K.wXVXZX",
"FXFXFXvX>Xs.` { P.~.k.@.M././.v.' G m N ^ P.I.M.+.G 3 < 4 < < < < 1 < < 1 b < : : : 2 : : : < < < < v < , , < n 3 n G p.Q.hXcXVX",
"FXFXCXBXyXE.n.P._.|.'.`.{.oXoX{.^.P.b.l.G.U.{.{.^.l.G 4 : 4 4 4 < < < < < < < < : : ; : : < < : < 1 < > < , , , , v # L d.6XcXVX",
"FXFXCXbXvXtX3X}.].].].oX'.!.v.{ +.m.I.|.|. X{. X_.M.T S N N 4 2 < < < < < < < < < 2 < < < < < < < < < : < < , 4 m A F P f.5XZXSX",
"FXFXCXCXbXuX0XOX}.}.|.{.[.!.g.v.g.M.!.oXoX{.{.{.|.I.m.m.@.T 4 2 , 4 4 < , , ; 2 < > < < < : : 1 < : : < < < , , S a.L.1X7XnXSXDX",
"DXDXDXCXZXbXtX2X X}. X[.E.H.f.g.H.E.E.[.{.{.{.'.oX|.|.I.+.D M J { k.k.o.T N 2 2 , , , < < 1 > : < 1 < < , 3 n 3 M ] =XxXSXSXSXSX",
"DXDXDXFXZXcXtX3X,X2XXXF.I @ @ ` R.Q.qX;X{.{.|.|.|._.{.(.b.[ +.A.~.A.A.(.I.@.D 2 , < < < < : : : : : : < 3 X $ $ % Y =XkXFXSXFXFX",
"DXFXDXCXcXjX8X2X2X,X[.J.` @ @ ` g.qXqX.XXX{.{.|.'.|.].{.'./././.A.M.A.(.(.b.' 2 , 2 : : : : : 1 : : ; > X F ] p.i.g.aXDXFXDXFXFX",
"FXCXZXbXuX4X<XOX X}.}. X[.E.E.[.2X2X X{.{.{.|.|.|.].].'.oXoXoX'./.'./.(.N.{ D 2 , ; : : : 1 : : : < b . $ i.W.yXeXkXBXFXDXFXFXFX",
"ZXZXZXZXcXjXrX<XOX{.|.|.].`.S.C.x.$.x.x.x.N.Z.`.].].{.oXoXoXoXoX'.].'.~.+.D 2 ; ; : : : < < < < v b C U p.W.gXZXDXCXFXFXFXFXFXFX",
"FXZXZXCXCXbXuX4X.X!.~.~.).D.V.$.O.O.O.O.$.x.C.`.].|.].oXoXoXoX'.'.].'.`.C.T 2 : : : : : , v v + b U F.1XgXcXVXVXDXDXFXFXFXFXFXFX",
"FXFXFXZXZXCXyX1XR.n.M.A.(.].].).D.D.D.U.U.`.`.`.|.].].].].].|.|.].].].oXI.+.D D J C v . + n # F i.L.gXVXVXZXSXFXFXCXFXFXFXFXFXFX",
"FXFXFXZXFXZXcXuX4X.X[..XoXoX{.].|.].`.].].|.].|.|.|.|.|.|.|.`.|.oX].|.|._.P.v.m.m.E V # % F ] H.wXcXZXZXZXCXFXSXFXFXSXFXFXFXFXFX",
"ZXFXFXFXZXZXZXZXvXuXrX1XXX.X.X{.{.{.oX|.}.}.}.|.|.|.|.|.|.|.|.|.}.oX X{.XXOX2X2XL.n.i.p.j.;XwXcXbXZXZXCXFXFXFXFXFXFXFXFXFXFXFXFX",
"ZXFXFXFXFXFXZXZXZXZXbXxXtXrX1X3X<X<X<XXXXXXX X X}.}.}.}.|.|.}.}.OX2X3X0XrXyXuXjXlXjXjXxXbXCXZXCXCXZXFXFXFXFXFXFXSXFXFXFXFXFXFXFX",
"ZXFXZXFXFXFXFXFXZXFXZXCXZXZXCXlXjXgXyXyXyXyXrX8XtXtX3X}.Y.}.}.2X4XuXuXbXcXZXZXZXZXZXZXZXZXFXZXZXFXFXFXFXFXFXFXFXFXSXFXFXFXFXFXFX",
"ZXFXFXFXDXFXFXFXFXFXSXFXFXFXFXDXDXVXZXVXcXcXlXjXtX3X XP.b.o.T J R F.8XcXCXCXCXCXCXDXFXFXFXFXFXSXFXFXFXFXFXFXFXFXFXFXFXFXFXFXFXFX",
"FXFXFXFXFXCXZXbXZXZXVXSXSXDXNXDXDXZXVXjX,Xm.k.^ W K Z 1 1 6 - - u ! C.3XkXFXDXFXFXFXFXFXFXFXFXFXFXFXFXFXFXFXFXFXFXFXFXFXFXFXFXFX",
"FXFXFXFXFXCXZXZXZXZXFXSXSXDXDXDXCXZXtXI.o.6 5 t t y u i i a s s z j ..P.tXZXZXCXFXFXFXFXFXFXFXFXFXFXFXSXFXFXFXFXFXFXFXFXFXFXFXFX",
"FXFXFXFXFXCXCXFXZXFXFXFXSXDXSXZXzX0XI.O.W g g d d f f g s s q 0 s z Q %.OXiXvXZXFXFXFXFXFXFXFXFXFXFXFXFXFXFXFXFXFXFXFXFXFXFXFXFX",
"FXFXFXSXFXDXDXDXFXFXFXSXFXCXbXvXqXT.X.k h a d q d q d s f f f d f l j ..Z.tXbXZXFXFXFXFXFXFXFXFXFXFXFXFXFXFXFXFXFXFXFXFXFXFXFXFX",
"FXSXFXFXFXFXDXDXFXFXFXSXFXbXvXiX+X&.} k h a 9 9 8 8 7 7 y t t t 7 y u ! N.4XcXFXFXFXFXFXFXFXFXFXFXFXFXFXFXFXFXFXFXFXFXFXFXFXFXFX",
"FXFXFXFXFXDXFXFXDXSXFXVXCXbXiX+XT.=._ ( x ( x w 7 = - 5 6 Z Z Z 6 5 u W c.2XVXSXSXFXFXFXFXFXFXFXFXFXFXFXFXFXFXFXFXFXFXFXFXFXFXFX",
"FXFXFXFXCXCXCXFXFXFXFXFXbXiX+X+X=.*._ _ ) x x z h e l c #.V.U.V./ j i j O.[.cXVXDXFXFXFXFXFXFXFXFXFXFXFXFXFXFXFXFXFXFXFXFXFXFXFX",
"FXFXZXFXCXFXFXFXSXSXSXZXvXiXqXT.*._ _ _ ) r r r e e e k #.S.D.B./ h l k | ~.zXCXSXFXFXFXFXFXFXFXFXFXFXFXFXFXFXFXFXFXFXFXFXFXFXFX",
"FXFXFXZXFXFXFXDXSXSXFXCXvXiX+X%.} k w r ( c c 0 e e h k &.D.S.#.~ h 9 h | D.uXbXVXFXFXFXFXFXFXFXFXFXFXFXFXFXFXFXFXFXFXFXFXFXFXFX",
"FXZXZXFXFXDXFXSXSXSXFXZXvXqX!.X.k h w e s z p e r r w } &.).V.#.j f a h | Z.tXbXZXFXFXFXFXFXFXFXFXFXFXFXFXFXFXFXFXFXFXFXFXFXFXFX",
"FXFXFXZXFXDXDXSXSXSXFXZXcXqXT...j l q q q s p 9 w l k #.B.D.B. .j a l h | S.uXzXZXFXFXFXFXFXFXFXFXFXFXFXFXFXFXFXFXFXFXFXFXFXFXFX",
"FXFXFXZXFXDXDXDXSXSXSXZXcXtXA...j g d 0 0 0 0 e l j / c.U.S.$.~ l e l k ..[.lXSXSXSXSXFXFXFXFXFXFXFXFXFXFXFXFXFXFXFXFXFXFXFXFXFX",
"FXFXZXFXDXDXDXDXFXSXFXFXzXtXP...W j l p 9 s p c ~ #.N.D.`.D.$.Q j h j ! b.1XBXNXDXDXFXFXFXFXFXFXFXFXFXFXFXFXFXFXFXFXFXFXFXFXFXFX",
"FXFXFXFXDXDXDXDXFXFXFXDXZXlX<XG.k.^ K Z Z J J K ! b.(.].}.{.M.{ G % ` g.1XxXBXVXFXZXFXFXFXFXFXFXFXFXFXFXFXFXFXFXFXFXFXFXFXFXFXFX",
"FXFXFXFXFXDXDXFXSXVXFXZXZXZXcXkXgX,Xf.6.& & O O 6.h.K.-X-X=Xj.h.0.u.&XaXnXvXZXVXVXFXDXFXFXFXFXFXFXFXFXFXFXFXFXFXFXFXFXFXFXFXFXFX",
"FXSXFXFXFXDXFXFXFXFXZXZXCXCXDXDXAXNXdXsX%X8.>.>.,.4.w.t.t.0.0.r.&XsXNXNXNXNXCXZXFXFXFXFXFXFXFXFXFXFXFXFXFXFXFXFXFXFXFXFXFXFXFXFX",
"FXFXFXFXFXDXFXFXFXFXFXFXSXDXDXDXCXDXNXdX%X8.>.:.1.1.2.1.>.>.,.9.&XmXDXDXCXFXFXFXFXFXFXFXFXFXFXFXFXFXFXFXFXFXFXFXFXFXFXFXFXFXFXFX",
"FXFXFXFXFXFXFXFXFXFXFXFXFXFXFXFXDXFXDXmX%Xq.:.:.2.2.2.2.1.:.,.w.*XdXDXFXFXFXFXFXFXFXFXFXFXFXFXFXFXFXFXFXFXFXFXFXFXFXFXFXFXFXFXFX",
"FXFXDXFXFXFXFXFXFXFXFXFXFXFXFXDXFXDXDXdX*Xq.:.1.1.3.3.2.1.1.>.w.*XdXDXDXZXZXZXZXZXSXFXFXFXFXFXFXFXFXFXFXFXFXFXFXFXFXFXFXFXFXFXFX",
"FXFXFXFXFXFXFXFXFXFXFXSXFXFXFXFXDXDXDXmX%X4.;.;.<.<.<.<.;.;.>.w.%XdXNXDXZXZXbXZXFXFXFXFXFXFXFXFXFXFXFXFXFXFXFXFXFXFXFXFXFXFXFXFX",
"FXFXFXFXFXFXFXFXFXFXFXFXSXFXFXFXFXDXDXsX@X6.o -.o -.-.-.-.-.-.7.%XdXNXCXCXZXbXZXFXFXFXFXFXFXFXFXFXFXFXFXFXFXFXFXFXFXFXFXFXFXFXFX",
"FXFXDXFXFXFXFXFXFXFXFXSXFXFXFXDXFXDXDXmX*X@Xr.e.7.7.5.7.7.7.r.@XpXmXDXFXZXZXZXZXFXFXFXFXFXFXFXFXFXFXFXFXFXFXFXFXFXFXFXFXFXFXFXFX",
"FXFXFXFXFXFXFXFXFXFXFXFXDXFXFXFXDXFXDXDXAXMXMXnXnXaX>X:X>XaXlXVXAXDXDXFXFXZXCXFXFXFXFXFXFXFXFXFXFXFXFXFXFXFXFXFXFXFXFXFXFXFXFXFX",
"FXFXFXDXFXFXFXFXFXFXSXFXFXSXFXFXFXDXFXDXFXDXFXVXBXgX1X,X2X8XjXVXVXVXFXVXFXDXFXDXFXFXFXFXFXFXFXFXFXFXFXFXFXFXFXFXFXFXFXFXFXFXFXFX",
"FXDXFXCXDXFXFXFXFXSXSXSXSXSXSXFXFXFXDXFXDXDXFXFXVX9X2X2X2X8XjXbXZXDXFXDXDXFXFXFXFXFXFXFXFXFXFXFXFXFXFXFXFXFXFXFXFXFXFXFXFXFXFXFX",
"FXFXFXDXFXFXFXFXFXSXFXDXSXFXFXFXFXDXFXDXDXCXDXZXcXtX3X,X3X8XjXZXZXFXFXDXZXFXFXFXFXFXFXFXFXFXFXFXFXFXFXFXFXFXFXFXFXFXFXFXFXFXFXFX",
"FXFXFXFXFXFXFXFXFXFXFXDXFXDXFXFXFXFXFXZXFXZXVXSXjXtX2X<X3X8XjXcXbXCXFXFXFXFXFXFXFXFXFXFXFXFXFXFXFXFXFXFXFXFXFXFXFXFXFXFXFXFXFXFX",
"FXFXFXFXFXFXFXFXDXDXDXDXFXFXDXFXSXnXgXlXlX9XaX9X8X$XG.G.G.J.1XlXZXZXSXFXFXFXFXFXFXFXFXFXFXFXFXFXFXFXFXFXFXFXFXFXFXFXFXFXFXFXFXFX",
"FXFXFXFXDXFXDXDXFXDXDXSXAXBXgX#Xz.P L E z.z.E E E L >     V s.6XxXFXDXDXDXZXZXVXFXFXFXFXFXFXFXFXFXFXFXFXFXFXFXFXFXFXFXFXFXFXFXFX",
"FXFXFXFXFXDXFXDXDXFXFXDXSXgXK.y.% % V V B L L L B B B B $ L f.6XVXDXDXFXFXZXFXFXFXFXFXFXFXFXFXFXFXFXFXFXFXFXFXFXFXFXFXFXFXFXFXFX",
"FXFXFXFXFXFXFXFXFXFXFXCXSXlX6X=X=X=X-XW.#X#X$X$X$X$X$X$X$X-X7XnXSXDXDXSXFXFXZXZXFXFXFXFXFXFXFXFXFXFXFXFXFXFXFXFXFXFXFXFXFXFXFXFX",
"FXFXFXFXFXFXFXFXFXFXFXZXAXVXCXvXbXvXvXvXCXCXCXBXVXVXVXVXVXCXZXDXDXDXDXDXZXDXZXFXFXFXFXFXFXFXFXFXFXFXFXFXFXFXFXFXFXFXFXFXFXFXFXFX",
"FXFXFXFXFXFXFXFXFXZXFXFXFXZXZXFXZXZXFXFXDXFXFXFXSXSXFXSXFXFXFXFXDXDXFXFXFXFXFXSXFXFXFXFXFXFXFXFXFXFXFXFXFXFXFXFXFXFXFXFXFXFXFXFX",
"FXFXFXFXFXFXFXFXFXFXFXFXFXFXFXFXFXFXFXFXFXFXFXFXFXFXFXFXFXFXFXFXFXFXFXFXFXFXFXFXFXFXFXFXFXFXFXFXFXFXFXFXFXFXFXFXFXFXFXFXFXFXFXFX",
"FXFXFXFXFXFXFXFXFXFXFXFXFXFXFXFXFXFXFXFXFXFXFXZXFXFXFXFXFXFXCXFXFXFXFXFXCXFXFXFXFXFXFXFXFXFXFXFXFXFXFXFXFXFXFXFXFXFXFXFXFXFXFXFX"
};
