/* XPM */
static char *_715772107057[] = {
/* columns rows colors chars-per-pixel */
"64 64 251 2 ",
"   c #522E1B",
".  c #533732",
"X  c #6E3B3E",
"o  c #514237",
"O  c #7D4D3C",
"+  c #7C513D",
"@  c #6F3B40",
"#  c #16507A",
"$  c #2E547A",
"%  c #52575F",
"&  c #794B45",
"*  c #6E504C",
"=  c #7A5749",
"-  c #786259",
";  c #7F716A",
":  c #993117",
">  c #A72F13",
",  c #B83A16",
"<  c #9A3B2A",
"1  c #BB411B",
"2  c #8A412B",
"3  c #864A35",
"4  c #8C4C36",
"5  c #854D3B",
"6  c #8B4D3B",
"7  c #924935",
"8  c #924B3A",
"9  c #8C5434",
"0  c #84513C",
"q  c #8C523D",
"w  c #91563C",
"e  c #AD4B2E",
"r  c #C84A1B",
"t  c #E65F19",
"y  c #ED5E1C",
"u  c #F85A16",
"i  c #F45C1C",
"p  c #FA5A1B",
"a  c #DC6B0B",
"s  c #E26A0B",
"d  c #E86419",
"f  c #EB7114",
"g  c #E77915",
"h  c #C64A27",
"j  c #CF512B",
"k  c #DA5B29",
"l  c #E45C26",
"z  c #EC5D24",
"x  c #EC5D2A",
"c  c #F15D23",
"v  c #F25C29",
"b  c #F95829",
"n  c #E75A33",
"m  c #F85932",
"M  c #DA632D",
"N  c #D86537",
"B  c #E76623",
"V  c #EB6025",
"C  c #E5622C",
"Z  c #E9612B",
"A  c #F16127",
"S  c #F17821",
"D  c #E26534",
"F  c #874D46",
"G  c #835243",
"H  c #895747",
"J  c #965945",
"K  c #8C4F55",
"L  c #885955",
"P  c #955953",
"I  c #B05A49",
"U  c #98624B",
"Y  c #8A6558",
"T  c #966A54",
"R  c #986856",
"E  c #A5674D",
"W  c #B96549",
"Q  c #A76954",
"!  c #A97358",
"~  c #B67B5C",
"^  c #886A62",
"/  c #966A64",
"(  c #967567",
")  c #917471",
"_  c #997874",
"`  c #A57B6A",
"'  c #B37965",
"]  c #AB7474",
"[  c #D46C41",
"{  c #D1734C",
"}  c #CB7655",
"|  c #C77C66",
" . c #DE860B",
".. c #E78616",
"X. c #EE941B",
"o. c #F3AF1A",
"O. c #F38F22",
"+. c #F9B426",
"@. c #FDC529",
"#. c #9B867A",
"$. c #B9856A",
"%. c #B3896E",
"&. c #A8877C",
"*. c #B88975",
"=. c #CE8258",
"-. c #DD8355",
";. c #CD8C6C",
":. c #C99376",
">. c #D59A79",
",. c #E48B6D",
"<. c #E9986F",
"1. c #E58B73",
"2. c #E99979",
"3. c #DBA27B",
"4. c #174D89",
"5. c #10528C",
"6. c #095A9A",
"7. c #265B87",
"8. c #375D85",
"9. c #066899",
"0. c #126590",
"q. c #2B6586",
"w. c #31678F",
"e. c #0358A8",
"r. c #0155B2",
"t. c #0966A7",
"y. c #026AA4",
"u. c #016BAD",
"i. c #0269B2",
"p. c #126EB0",
"a. c #2779B3",
"s. c #486E8C",
"d. c #B47B83",
"f. c #4D8DB0",
"g. c #6A97B3",
"h. c #70A5BA",
"j. c #569CD1",
"k. c #998B84",
"l. c #AD8D83",
"z. c #B58885",
"x. c #A9968A",
"c. c #B39687",
"v. c #AA9B92",
"b. c #B59A94",
"n. c #AEA39D",
"m. c #B9A599",
"M. c #879BAF",
"N. c #8AA6BC",
"B. c #8CB6BD",
"V. c #B9AAA4",
"C. c #B3ADA8",
"Z. c #C99883",
"A. c #D79C87",
"S. c #D79492",
"D. c #E59985",
"F. c #DAA78A",
"G. c #D3A88E",
"H. c #C6A99A",
"J. c #DAAC92",
"K. c #DBB396",
"L. c #E6A886",
"P. c #ECB28C",
"I. c #EBB092",
"U. c #E9B699",
"Y. c #F4B998",
"T. c #F4BD9B",
"R. c #D39EA0",
"E. c #C6ABA7",
"W. c #D7ABA8",
"Q. c #CAB4A8",
"!. c #D6B9A9",
"~. c #CBBAB6",
"^. c #D4B8B3",
"/. c #E8BAA5",
"(. c #F4BBA3",
"). c #EEB7B3",
"_. c #F8C49E",
"`. c #CAC2BA",
"'. c #DAC5B7",
"]. c #ECC4A4",
"[. c #ECC5AB",
"{. c #EDC9AC",
"}. c #F5C5A5",
"|. c #FAC5A3",
" X c #F3C9A5",
".X c #F4C5AB",
"XX c #F9C7A8",
"oX c #F4C9AC",
"OX c #F9C9AB",
"+X c #FAD0AF",
"@X c #EDCCB2",
"#X c #E9C8B8",
"$X c #F3CBB3",
"%X c #F7CBB9",
"&X c #EAD2B7",
"*X c #EDD3BC",
"=X c #F6D6B9",
"-X c #F3D4BC",
";X c #90ACC2",
":X c #97B8C4",
">X c #A8BBCF",
",X c #9FC8D9",
"<X c #B2CED9",
"1X c #94C8E3",
"2X c #AFD6E7",
"3X c #B1E0EB",
"4X c #DBCAC5",
"5X c #DCD7D2",
"6X c #E4CCC6",
"7X c #FACCC3",
"8X c #ECD4C4",
"9X c #E8D8C7",
"0X c #E4D5CB",
"qX c #ECD4CC",
"wX c #F3D4C3",
"eX c #F3DBC4",
"rX c #F8DAC6",
"tX c #F3DBCA",
"yX c #F2CDD3",
"uX c #E9DBD6",
"iX c #F3DCD6",
"pX c #F6E3CC",
"aX c #ECE3D7",
"sX c #F6E4D3",
"dX c #FAE4D3",
"fX c #F4E9D6",
"gX c #F4E3DB",
"hX c #F7E9D9",
"jX c #C5D9E3",
"kX c #D2DBE0",
"lX c #DAE6ED",
"zX c #D5EEF5",
"xX c #EDEAE4",
"cX c #F6E7E5",
"vX c #F4EBE4",
"bX c #F9ECE4",
"nX c #F2EEED",
"mX c #FAEDEB",
"MX c #FBF2E4",
"NX c #F4F7E9",
"BX c #F6F3ED",
"VX c #FCF4EC",
"CX c #FDFAED",
"ZX c #E8F9FB",
"AX c #F4F5F3",
"SX c #FBF5F3",
"DX c #F5FBF5",
"FX c #FCFBF5",
"GX c #FBF7FA",
"HX c #F6FDFB",
"JX c #FDFDFD",
/* pixels */
"JXJXJXJXJXJXJXHXDXGXHXHXHXGXHXJXDXJXJXJXJXJXJXDXJXGXHXJXGXJXJXJXHXGXJXHXHXGXDXAXNXDXDXHXGXJXHXDXGXGXHXGXGXJXJXJXJXJXJXJXJXJXJXJX",
"JXJXJXJXJXJXHXHXHXHXGXHXDXAXNXGXGXFXDXFXDXDXFXFXFXVXvXcXcXgXuXuXuXxXaXvXVXSXVXxX`.n.n.`.5XBXSXGXFXSXSXFXFXGXJXJXJXGXJXJXJXGXJXJX",
"JXJXJXJXJXJXGXHXGXHXBX5XC.C.5XCXFXCXVXVXVXhX9X`.b.z.` R Y L Y L Y Y ( _ c.m.'.9X9Xm.^ = #.`.hXVXSXSXVXSXSXSXJXGXJXJXJXJXJXJXJXJX",
"JXJXJXJXGXHXGXGXGXSX5Xk.- ^ v.~.6X'.'.H.&.#.Y G G 6 5 5 5 5 5 6 5 O O O + 0 H R *.*.#.& - l.^.!.m.x.x.v.C.`.uXAXGXGXGXJXJXJXJXJX",
"JXJXJXGXGXJXHXGXGXNX4X#.- = + = H q 0 q 5 5 6 G 6 6 6 6 6 6 6 6 6 6 6 6 4 4 5 5 6 F w F 6 P P H H ^ #.v.V.`.5XxXGXFXGXGXGXJXJXJX",
"JXJXJXJXGXGXAXnXvXaX0XH.#.H + 9 0 4 q 5 6 6 6 6 6 6 6 6 6 6 8 6 4 6 6 6 5 4 4 8 6 6 6 6 6 6 F F T ` c.H.`.0XvXVXVXSXJXHXGXGXGXJX",
"HXGXGXGXmXyXE.l._ ( Y H 0 0 0 9 q 5 4 6 5 6 6 6 6 6 6 6 6 6 6 6 6 6 6 6 q 8 6 6 6 6 6 6 6 6 6 F 5 G 5 F H Y &.V.0XVXGXGXHXGXJXJX",
"GXGXBX4Xb.^ = O O O 5 0 3 3 9 4 4 4 q 4 5 6 G 6 6 6 6 6 6 6 6 6 6 8 6 6 6 6 6 6 6 6 6 6 6 6 4 6 6 6 8 6 4 G G H ) V.aXVXDXGXJXJX",
"DXAX4Xl.= & 5 q 4 4 4 8 4 4 4 4 4 4 6 6 6 6 6 q 6 6 6 6 6 6 6 6 q 6 6 6 6 6 6 6 8 6 6 6 6 4 8 8 7 8 8 8 6 4 0 + = ^ C.xXDXGXHXJX",
"GXuXv.- & G 5 4 4 4 4 4 q 4 q 8 6 6 6 6 6 6 6 6 6 6 6 6 8 6 6 6 6 6 6 6 6 6 6 6 6 6 6 6 6 6 6 8 8 7 7 4 8 q R ( Y - n.uXFXJXJXJX",
"CX0Xm.&.( R 0 q 5 5 q 5 q 6 5 4 6 6 4 8 6 8 4 6 6 6 6 6 6 6 6 6 6 6 6 8 6 6 q 9 6 6 6 F 4 6 4 8 4 4 4 4 5 5 T &.b.x.~.nXJXGXDXJX",
"FXbXtX'.&.L & 5 0 0 5 5 5 5 0 6 5 5 6 F F 8 8 8 6 8 6 6 6 6 4 8 6 6 6 6 5 q 5 9 5 6 6 J P J w 9 4 4 9 3 0 + + ^ H.uXxXAXGXJXJXJX",
"SXFXiXH.Y = G F G q q w w 9 5 0 H ! $.Z.Z.' w 7 8 8 7 8 8 4 6 5 5 5 5 0 H 0 0 + & 5 H %.>.:.E w 7 7 8 9 5 F & L b.iXDXGXHXJXJXJX",
"FXVXuXb.Y & G 5 4 J ~ ;.~ 9 w ~ G.K./.OX(.>.E 4 8 F 6 6 5 q J U ! :.>.F.F.$.w 9 w ! *.]. XU.$.U w J 8 4 5 F G / b.cXSXJXJXJXJXJX",
"SX0Xb.R H 5 4 4 w ~ P._.P.;.$.:.%.%.*.I.(.(.:.E q q F 6 J $.F.].|.XX|.Y.3.;.;.:.;.$.$.:.U.].F.I.J.:.U 4 6 5 G Y l.6XmXSXJXJXJXJX",
"mX^.( & O 6 5 4 ! L._._. X X].K.K.G.G.!.[..X.XK.:.' R J ! F._. XXX|._._.]. X].].K.G.3.G.].]. X XOXU.;.w 3 O O & ^ Q.mXGXJXJXJXJX",
"VX'.&.Y R ! R R :.U.XXOX.X{.{.!.H.v.#.v.'.&X&X{.oX|.T.Y.I.Y._._. X X{.{.@X&X!.m.k.x.m.!.#X.X[.}.}.(.F.! w U R R l.4XVXFXGXJXJXJX",
"VXgX#X].].K.J.K.].oX.X.XoX@XwX'.x.- o o #.'.*X@XoX|._._._.P.P._. X X].{.*X9Xm.% o % k.~.*X{..XOXXX|.T.P.F.J.U.{.#XhXCXFXGXJXJXJX",
"VXhXeX&X].J.F.U._.|.|. X.X@X-X#Xm.#.- #.Q.*X*X@X.X|.|._.L.3.3._._.|. X{.@X8X'.x.; ; v.'.-X$X$X.XXX|.XXY.L.K.U.@X8XsXVXFXJXJXJXJX",
"CXMXfXeX&X]. X X X_.|.XX|.}..X.X{.@X#X$X-X$X{.oX}.}.}._.U.P.P.P._._.|. X}.oX$X$X#X#X).#X(.(.OXOXOXXX X X}.{.@X-XsXMXCXFXDXJXJXJX",
"FXJXFXSXNXbXhXhXpX=X+X XY.L.2.,.,.1.1.1.D.I.(.).).@X-X@X@X@X@X@X+X+XOX(.(.I.D.1.1.1.1.,.1.2.Y.XXoX@XpXpXfXhXbXVXCXFXFXJXJXFXJXJX",
"JXJXJXJXHXFXFXFXMXpX-X{._.P.2.2.<.1.1.2.L.Y.Z.Q P H.'.0XqXqXqX6X'.H.( Y *.U.I.L.A.2.2.2.D.I.(.OX@XpXMXCXCXFXFXFXFXJXJXJXJXJXJXJX",
"JXJXJXJXJXJXJXFXCXCXhXeXoXoXXX|.(.Y.T.|.XXOXJ.R .   . * * = = * o     w Z. X X_._._._.}.XX.X$X=XsXMXCXCXFXFXJXJXJXJXJXJXJXJXJXJX",
"JXJXJXJXJXJXHXJXDXFXCXMXpX-X$XoXOXXXOX.X}. X{.U.' K K J K K F H w H ' J..XXXXXXX|.|..X.X#XwXsXhXCXCXFXFXJXJXJXJXJXJXJXJXJXJXJXJX",
"JXJXJXJXJXJXHXHXHXJXFXCXVXMXdXtXwX#X@X{.oX{. X X.X(.T.U.I.U.I.Y.T.(..X.XOX$X.X[.{.$X-XwXgXbXCXFXFXDXHXHXJXJXJXJXJXJXJXJXJXJXJXJX",
"JXJXJXJXJXHXHXHXHXJXFXJXGXFXFXVXMXhXpX9X-X$XoXoX X X X X X}.].oXoX].{.@X@X&X&X8XeXfXbXCXFXJXJXDXHXHXHXHXJXJXJXJXJXJXJXJXJXJXJXJX",
"JXJXJXJXJXJXHXDXGXJXJXJXJXJXGXGXFXFXCXMXhXhXtXwX=XrX-X-X$X$XoX$X-X=XrXeXtXpXhXCXCXCXCXFXJXJXHXHXJXJXHXJXJXJXJXJXJXJXJXJXJXHXJXJX",
"JXJXJXJXJXJXDXDXFXGXJXJXJXJXHXHXCXbXpX*X/.A.' I ' W.7X7X7X7X%X7X7X%X/.$.T ` G.K.@XeXhXMXCXGXJXJXHXHXHXJXHXJXJXJXJXJXJXGXJXHXJXJX",
"JXJXJXJXJXJXDXSXDXDXGXGXGXMXiX).F.;.} [ N M r > : I S.).).).%X).(.A.W : : 1 N N N { -.3.].eXhXVXSXDXHXHXHXHXJXHXJXJXFXFXDXFXJXJX",
"JXJXJXJXJXJXHXGXDXSXmXcX$XF.| [ N N n x x x v j , > : e W W W W e : : > r n k k x Z C N N =.3..XfXMXBXAXJXHXJXJXJXJXJXJXJXJXJXJX",
"JXJXJXJXJXJXHXGXSXcX%XD.| N k x i p p p c v n n n n j 1 1 , 1 1 r j l n m m v v v x z x D N [ } :.[.sXVXCXJXJXJXJXJXJXJXJXJXJXJX",
"JXJXFXJXFXJXGXJXcX^./ 7 e h k x c p b p c x Z x n m v z b z B d y c v b b b b v z V Z Z x k e e 2 U H.gXFXFXDXJXJXJXJXJXJXJXJXJX",
"JXJXJXFXFXFXDXFXSXuXQ.z.P 7 : > , r l z z y z d y d s a f O.O. .a s d t z c z l C k r 1 1 : < P ] W.0XmXFXJXJXJXJXJXJXJXJXJXJXJX",
"JXFXJXJXJXFXFXFXDXSXGXmXiX).F.| W h k C V i d d S ......X.+.+. . .g S S B z l Z B l r e } >./.7XcXSXGXGXHXHXJXHXJXJXJXJXJXGXJXJX",
"JXJXJXJXJXFXJXDXGXGXAXmXiX7X+XY.,.N M x A c i u f g o.+.@.@.@.@.o.X...g d V v v A Z D -.Y.%X-XwXgXVXSXDXHXJXJXJXFXFXJXJXJXJXJXJX",
"JXJXJXJXJXJXHXHXHXGXVXgXrX%XOXY.,.N B A c c c y s g X.o.o.o.o.+.o...a a B V v b b A Z -.P.OX=X&XpXMXFXSXFXJXFXJXJXJXJXJXJXJXJXJX",
"JXJXJXJXFXFXDXFXFXSXbXiX8X=X+XP.-.M d B V y l d S S O.f s a s s S O.S f d y z x A Z M { P.+X=X&X9XaXNXFXDXJXJXGXJXJXJXJXJXJXHXJX",
"JXJXJXFXFXDXDXFXFXSXcXqX8XpX=XP.-.M V y p p y d d d d d t t d s t d d d d i y y i A C { 3.+XeX&X&XaXNXDXJXJXJXJXJXJXJXJXJXHXJXJX",
"JXJXJXFXDXFXDXFXSXmXiXyX8XpX=XP.{ N Z p u u u u y V x l y y y y i u u u p p p u u p B N 3.+XrX=X&X9XaXCXFXJXJXJXJXJXJXJXJXHXJXJX",
"JXJXJXJXFXFXFXFXVXcXiX6XrXdXrXJ.} N D c p u u u i z n x x x x v v V v A V x x A Z D N { 3.=XpXeX&X9XfXMXFXFXJXJXJXJXJXJXJXJXJXJX",
"JXJXJXFXFXCXCXMXhXrXwX-X-XrX=XU.;.} [ N N n N n V z z i i y z z V Z Z Z n C N D D N { =.J.=XpX-X-X8XtXsXMXCXFXFXGXJXJXJXJXJXJXJX",
"HXHXJXFXFXCXMXfX8X%X%X%X=XrXpXfX^.l./ P / / / R E W W W [ W [ W W W W Q Q Q R P Y P _ Q.pXdXpXtX8X*X6X8XuXbXCXFXFXJXJXJXJXJXJXJX",
"HXHXJXJXFXFXNXfXtX7X=XwXrXhXDXZXkXh.% $ $ 8.q.q.q.8.8.8.8.8.8.8.8.8.8.8.8.q.7.7.0.w.f.<XDXVXmXgXqXqXqXqXsXvXCXFXDXDXJXJXJXJXJXJX",
"HXJXJXHXFXHXHXBXcXdXdXdXbXNXZXZX3Xg.0.p.t.t.u.u.i.u.u.u.u.p.p.p.6.t.t.t.t.p.t.t.t.u.f.,XZXJXSXVXcXcXcXvXbXCXFXFXJXJXJXJXJXGXJXJX",
"FXFXJXHXJXHXJXHXJXFXFXFXGXJXZXZX2Xj.0.9.9.u.u.u.u.u.u.6.p.j.j.a.9.t.y.y.t.t.t.t.t.t.f.,XZXDXJXFXGXGXGXFXJXJXJXJXJXJXJXJXJXJXJXJX",
"FXJXFXJXHXJXHXJXJXFXFXFXFXHXHXZX3Xg.7.0.t.u.i.u.u.y.9.9.a.j.1Xf.0.9.9.y.t.t.t.t.9.0.f.,XZXHXHXJXJXGXJXJXJXJXJXJXJXJXJXJXJXJXJXJX",
"JXHXJXJXJXJXJXJXJXJXFXFXFXJXHXZX<Xf.7.e.t.i.i.i.i.y.9.0.f.2XjXh.q.0.9.y.i.i.i.t.9.5.w.B.ZXHXHXHXJXJXJXJXJXJXJXJXJXJXJXJXJXJXJXJX",
"JXHXHXJXJXJXJXJXJXJXFXFXFXHXHXzX;Xw.4.4.6.e.e.r.e.6.6.7.g.jXlX;Xq.0.9.y.r.r.r.e.6.5.q.g.kXAXGXGXJXJXJXJXJXJXJXJXJXJXJXJXJXJXJXJX",
"HXHXJXJXJXJXJXJXJXJXFXFXFXJXHXzX:Xs.$ 4.4.4.4.4.4.# # w.;XxXZX>Xs.# # 5.e.4.5.5.7.$ $ M.kXDXGXHXHXJXJXGXJXJXJXJXJXJXJXJXJXJXJXJX",
"HXJXJXJXJXJXJXJXJXJXFXFXJXJXHXDXzXlXjX<X>X;XN.N.N.B.B.<XlXAXnXlX<X,XB.B.M.N.;X:X,X<XlXlXZXJXGXHXJXJXJXJXJXJXJXJXJXJXJXJXJXJXJXJX",
"HXJXJXJXFXJXHXJXJXJXFXJXJXJXGXJXJXGXJXFXcX0X0XaXaXDXFXHXGXGXDXAXNXDXDXxXyXyXqXxXDXDXHXHXJXJXJXJXJXJXJXJXJXJXJXJXJXJXJXJXJXJXJXJX",
"JXJXJXJXJXFXJXHXFXJXJXJXJXJXJXGXGXGXCXMXtX-X@X=XhXCXFXJXGXGXGXHXFXDXVXhXwX7XwXiXVXFXHXJXJXJXJXJXJXJXJXHXJXJXJXJXJXJXJXJXJXJXJXJX",
"JXJXJXJXJXJXDXJXJXJXJXJXJXGXJXJXJXFXCXMXsX&X-XrXMXFXJXJXJXGXJXJXFXCXMXhXtX8XwXgXMXFXJXJXJXJXJXJXJXJXJXJXJXJXJXJXJXJXJXJXJXJXJXJX",
"JXJXJXJXJXJXJXJXJXGXJXJXJXJXJXGXDXDXCXNXaX8XwXiXMXJXJXJXJXJXJXJXFXFXVXMXaX0X0XaXBXGXHXDXJXJXJXJXJXJXJXJXJXJXJXJXJXJXJXJXJXJXJXJX",
"JXJXJXJXJXJXJXJXJXJXJXJXJXJXJXHXDXDXNXbXpX9XqXiXmXGXJXJXJXJXJXJXJXFXFXMXaX0X0XaXMXFXFXJXJXJXGXGXJXJXJXJXJXJXJXJXJXJXJXJXJXJXJXJX",
"JXJXJXJXJXJXGXJXGXJXJXJXJXJXHXHXDXCXVXuX#XQ.R.^.iXFXJXJXJXHXJXJXJXFXVX0XQ.m.Q.6XiXmXSXSXJXGXJXGXJXJXJXJXJXJXJXJXJXJXJXJXJXJXJXJX",
"JXJXJXJXJXJXJXJXJXGXFXFXJXGXSXmXiX6X^.R.R.d.K / ^.SXJXHXJXJXJXJXGXGXcXE.^ L z.R.W.).yXcXmXGXGXGXSXGXJXDXHXJXJXJXJXJXJXJXJXJXJXJX",
"JXJXJXJXJXJXFXFXHXFXDXSXVX4Xb.) ) d.d./ F @ K z.0XFXFXJXHXHXHXJXJXGXmX'.d.& X K / d.d./ d.V.5XnXSXFXFXGXHXJXHXJXJXJXJXJXJXJXJXJX",
"JXJXJXJXJXJXHXGXFXDXFXFXcXV.^ @ @ @ @ L ] z.~.yXmXFXJXJXJXHXHXJXJXGXVXcXqXW.z./ K @ o X . d.C.cXFXGXFXFXHXJXJXHXJXJXHXJXJXJXJXJX",
"JXJXJXJXJXJXJXJXJXJXJXFXSXcX4X~.E.W.^.6XyXcXGXAXFXSXGXJXJXJXHXJXJXHXHXFXVXmXgXyX4X^.Q.E.~.4XcXGXSXFXFXJXJXHXJXJXHXJXJXJXJXJXJXJX",
"JXJXJXJXJXJXJXHXHXJXJXJXGXJXJXGXGXGXGXJXJXJXJXJXJXJXJXJXJXJXJXJXJXJXJXJXJXJXJXHXDXFXGXGXJXJXJXJXJXJXJXJXJXJXJXJXJXJXJXJXJXJXJXJX",
"JXJXJXJXJXJXJXJXJXJXJXJXGXJXJXJXJXJXJXJXJXJXJXJXJXJXJXJXJXJXJXJXJXJXJXJXJXJXJXJXJXJXJXJXJXJXJXJXJXJXJXJXJXJXJXJXJXJXJXJXJXJXJXJX",
"JXJXJXJXJXJXJXJXJXJXJXJXJXJXJXJXJXJXJXJXJXJXJXJXJXJXJXJXFXJXJXJXJXJXFXJXJXJXJXJXJXJXJXJXJXJXJXJXJXJXJXJXJXJXJXJXJXJXJXJXJXJXJXJX",
"JXJXJXJXJXJXJXJXJXJXJXJXJXJXJXJXJXJXJXJXJXJXJXJXJXJXJXJXJXJXJXJXJXJXJXJXJXJXFXJXGXJXJXJXJXJXJXJXJXJXJXJXJXJXJXJXJXJXJXJXJXJXJXJX"
};
