/* XPM */
static char *cee0dace38f94969ecb907ded3fca318dQedC5VzXFLRGBxL[] = {
/* columns rows colors chars-per-pixel */
"64 64 46 1 ",
"  c #53ADF9",
". c #52ADF9",
"X c #54AEF9",
"o c #5CB1F9",
"O c #59B0F9",
"+ c #55AEF9",
"@ c #57AFF9",
"# c #54ADF9",
"$ c #56AFF9",
"% c #5EB2F9",
"& c #5BB1F9",
"* c #67B7F9",
"= c #56AEF9",
"- c #61B4F9",
"; c #72BCFA",
": c #73BCFA",
"> c #69B8F9",
", c #66B6F9",
"< c #60B3F9",
"1 c #64B5F9",
"2 c #62B5F9",
"3 c #68B7F9",
"4 c #77BEFA",
"5 c #6FBAFA",
"6 c #5DB2F9",
"7 c #5AB0F9",
"8 c #5AB1F9",
"9 c #73BDFA",
"0 c #81C3FA",
"q c #76BEFA",
"w c #65B6F9",
"e c #6DB9F9",
"r c #62B4F9",
"t c #5FB3F9",
"y c #58B0F9",
"u c #71BBFA",
"i c #60B4F9",
"p c #6EBAF9",
"a c #70BBFA",
"s c #6CB9F9",
"d c #6AB8F9",
"f c #5CB2F9",
"g c #5EB3F9",
"h c #63B5F9",
"j c #58AFF9",
"k c white",
/* pixels */
"                                                                ",
"                                                                ",
"                                                                ",
"                                                                ",
"                                                                ",
"                                                                ",
"                                                                ",
"                                                                ",
"                                                                ",
"                                                                ",
"                                                                ",
"                                                                ",
"                                                                ",
"                                                                ",
"                                                                ",
"                                                                ",
"                                                                ",
"                                                                ",
"                                                                ",
"  ..                                                            ",
"  X                                                             ",
"  oO                                                            ",
"+XX                                                             ",
"  ..                                                            ",
".                 .   ..                                        ",
"                ...X@ X ....                                    ",
"                X #$X.@%&$O+..   ..                             ",
"                @X$*&=-;:>,@+ . .X+ .    ..                     ",
"                   <123:4567&$  .X8+..# .X=                     ",
"                  .@90qw:*%eroX$+7+@t&67 @y                     ",
"                  . 3u1-:i&pw*+#Oasw1i-dO                       ",
"                   .++. 8$838OXf%21i+  7=.                      ",
"                    .. ...&upO%>@.  .  ... ..                   ",
"       ..                 Xg-86o ...  .+y+ X+                .  ",
"                           +X+X..     .$oi@y@                   ",
"      .XX            .    =X7hX$=.     . @X                     ",
"              ... .. X   .77@1@X+.       ..                     ",
"      j@ @6f&<h1h++$O>,OX.+%o$ ..                               ",
"      X+ +7&+6r3*Xy&XofX  . X .                                 ",
"      .. ..  ..X@X#+ ..     .                                   ",
"          .$O .   ..                                            ",
"            X   ..                                              ",
"            .                                                   ",
"                                                                ",
"                                                                ",
"                                                                ",
"                                                                ",
"                                                                ",
"                                                                ",
"                                                                ",
"                                                                ",
"                                                                ",
"                                                                ",
"                                                                ",
"                                                                ",
"                                                                ",
"                                                          ..    ",
"                                                          X+    ",
"                                                         .X$    ",
"                                                          ..    ",
"                                                                ",
"                                                                ",
"                                                                ",
"                                                                "
};
