/* XPM */
static char *_31e99684abb4bcdd8e5ba895aaca6676Vb1l63QeS6ap89m[] = {
/* columns rows colors chars-per-pixel */
"64 64 244 2 ",
"   c #19293B",
".  c #282A24",
"X  c #781317",
"o  c #720D12",
"O  c #59291D",
"+  c #513A19",
"@  c #771E22",
"#  c #782C2B",
"$  c #602C1E",
"%  c #2E5D13",
"&  c #366819",
"*  c #3B7518",
"=  c #35700C",
"-  c #3B6B26",
";  c #1A5D18",
":  c #475418",
">  c #447A1A",
",  c #4B6919",
"<  c #71562C",
"1  c #457824",
"2  c #5B5F3E",
"3  c #1A3146",
"4  c #223C54",
"5  c #653D41",
"6  c #28435C",
"7  c #324757",
"8  c #2B4862",
"9  c #3A546A",
"0  c #324E66",
"q  c #584C4A",
"w  c #595350",
"e  c #644E54",
"r  c #65565A",
"t  c #6E4E51",
"y  c #66625C",
"u  c #71615C",
"i  c #455A6E",
"p  c #455D72",
"a  c #6C5D62",
"s  c #4E6678",
"d  c #54697B",
"f  c #686761",
"g  c #74676B",
"h  c #7B7779",
"j  c #6C7470",
"k  c #4A7C4B",
"l  c #89050B",
"z  c #93060C",
"x  c #860D14",
"c  c #960D12",
"v  c #8A151A",
"b  c #9C1116",
"n  c #A31419",
"m  c #B7171D",
"M  c #A90C13",
"N  c #BD1D23",
"B  c #BB1821",
"V  c #823536",
"C  c #933C3C",
"Z  c #A12A21",
"A  c #D60F17",
"S  c #D50F18",
"D  c #D90F18",
"F  c #C9141B",
"G  c #D5121A",
"H  c #D9121A",
"J  c #D4181F",
"K  c #CA0D1F",
"L  c #C31E24",
"P  c #CB1A24",
"I  c #D51E26",
"U  c #D91E25",
"Y  c #D51925",
"T  c #E31B23",
"R  c #CB2025",
"E  c #C82127",
"W  c #D42026",
"Q  c #D92027",
"!  c #D52129",
"~  c #D92128",
"^  c #D4392B",
"/  c #E5201C",
"(  c #AF5122",
")  c #A25E29",
"_  c #CA6B28",
"`  c #E76930",
"'  c #863D40",
"]  c #D13D41",
"[  c #874749",
"{  c #93575A",
"}  c #934849",
"|  c #916C70",
" . c #A47274",
".. c #DB4448",
"X. c #CA5457",
"o. c #D15357",
"O. c #CD4145",
"+. c #E44C4B",
"@. c #ED655B",
"#. c #F4685D",
"$. c #D56A6F",
"%. c #DB6A6C",
"&. c #D86C70",
"*. c #D66C71",
"=. c #D57472",
"-. c #E56E6B",
";. c #E7716C",
":. c #F57D76",
">. c #F07169",
",. c #39900B",
"<. c #478818",
"1. c #4B9518",
"2. c #539819",
"3. c #4C8D0C",
"4. c #70921D",
"5. c #5CA31B",
"6. c #56B312",
"7. c #67B417",
"8. c #62AE14",
"9. c #578E28",
"0. c #68952F",
"q. c #55AE22",
"w. c #72AF30",
"e. c #67C919",
"r. c #759F5F",
"t. c #BA9D19",
"y. c #8A9B24",
"u. c #8AAF2B",
"i. c #A3A921",
"p. c #C9BA1F",
"a. c #C99925",
"s. c #91C620",
"d. c #CDC220",
"f. c #9CB567",
"g. c #F6837C",
"h. c #E9807B",
"j. c #A0D260",
"k. c #EBD27C",
"l. c #566E81",
"z. c #5A7784",
"x. c #667988",
"c. c #837E81",
"v. c #A57E80",
"b. c #688793",
"n. c #7A949D",
"m. c #748C90",
"M. c #7C9CA7",
"N. c #5E8490",
"B. c #96878B",
"V. c #988E92",
"C. c #88999B",
"Z. c #989498",
"A. c #8B888B",
"S. c #A59699",
"D. c #B39292",
"F. c #98B59C",
"G. c #8DB088",
"H. c #909EA5",
"J. c #8A9CA7",
"K. c #A69EA1",
"L. c #8BA3A9",
"P. c #95A4A3",
"I. c #98A8A6",
"U. c #97A8AC",
"Y. c #95AEB2",
"T. c #A1AEAD",
"R. c #A9A7A8",
"E. c #B9A8A9",
"W. c #A1B0AE",
"Q. c #A2BDA7",
"!. c #A3B2B1",
"~. c #A8B7B9",
"^. c #B6B6B7",
"/. c #A9AEB4",
"(. c #CC8184",
"). c #C68687",
"_. c #D28286",
"`. c #D5868B",
"'. c #DD9E9C",
"]. c #D89C99",
"[. c #D29294",
"{. c #F58A85",
"}. c #F88A85",
"|. c #DFA19E",
" X c #D6A09D",
".X c #D3B69A",
"XX c #E0A19D",
"oX c #C4BBBB",
"OX c #DAB0AF",
"+X c #ECAAAC",
"@X c #F0ACAF",
"#X c #E5B7B5",
"$X c #F2B7BA",
"%X c #F5B9B9",
"&X c #F0AFB1",
"*X c #B7D88F",
"=X c #B3CBB1",
"-X c #CAC4B3",
";X c #EFE1BD",
":X c #ABBDC2",
">X c #BBBCC8",
",X c #C4BEC1",
"<X c #BECDCD",
"1X c #B8C4C5",
"2X c #BFD3CD",
"3X c #BDD4D5",
"4X c #ACC5C6",
"5X c #BCDFE0",
"6X c #C3C5C5",
"7X c #CBCDCD",
"8X c #C7C8C8",
"9X c #CCCFD0",
"0X c #C0CFD0",
"qX c #C4D5D4",
"wX c #CCD2D2",
"eX c #CADBDA",
"rX c #C7D9D7",
"tX c #D2D4D5",
"yX c #D3D7D8",
"uX c #D5DADA",
"iX c #D9DDDD",
"pX c #D3D8D7",
"aX c #C8D7C7",
"sX c #F5CCCE",
"dX c #F4C4C2",
"fX c #F1D7C7",
"gX c #D8E0DF",
"hX c #D1E4DE",
"jX c #D1E4D5",
"kX c #DADFE0",
"lX c #DCE3E2",
"zX c #D9E7E5",
"xX c #CAEDE6",
"cX c #E1E6E6",
"vX c #E4ECEB",
"bX c #E8EAEA",
"nX c #E8F2EC",
"mX c #E6F4F3",
"MX c #E8F6F5",
"NX c #FBF4F4",
"BX c #FFFFFF",
"VX c #F6F8F6",
"CX c #F4F8EE",
"ZX c #E3DFE0",
/* pixels */
"BXBXBXBXBXBXBXBXBXBXBXBXBXBXBXBXBXBXBXBXBXBXBXBXBXBXBXBXBXBXBXBXBXBXBXBXBXBXBXBXBXBXBXBXBXBXBXBXBXBXBXBXBXBXBXBXBXBXBXBXBXBXBXBX",
"BXBXBXBXBXBXBXBXBXBXBXBXBXBXBXBXBXBXBXBXBXBXBXBXBXBXBXBXBXBXVX^.VXBXBXBXBXBXBXBXBXBXBXBXBXBXBXBXBXBXBXBXBXBXBXBXBXBXBXBXBXBXBXBX",
"BXBXBXBXBXBXBXBXBXBXBXBXBXBXBXBXBXBXBXBXBXBXBXBXBXBXBXBXBXBXV.q V.BXBXBXBXBXBXBXBXBXBXBXBXBXBXBXBXBXBXBXBXBXBXBXBXBXBXBXBXBXBXBX",
"BXBXBXBXBXBXBXBXBXBXBXBXBXBXBXBXBXBXBXBXBXBXBXBXBXBXBXBXBXV.a R.r V.BXBXBXBXBXBXBXBXBXBXBXBXBXBXBXBXBXBXBXBXBXBXBXBXBXBXBXBXBXBX",
"BXBXBXBXBXBXBXBXBXBXBXBXBXBXBXBXBXBXBXBXBXBXBXBXBXBXBXBXS.r 1XuX1Xr S.BXBXBXBX,XB.Z.Z.Z.Z.Z.Z.bXBXBXBXBXBXBXBXBXBXBXBXBXBXBXBXBX",
"BXBXBXBXBXBXBXBXBXBXBXBXBXBXBXBXBXBXBXBXBXBXBXBXBXBXBXR.r 6XvX8XvX1Xr R.BXBXBXD.5 [ [ [ [ [ [ bXBXBXBXBXBXBXBXBXBXBXBXBXBXBXBXBX",
"BXBXBXBXBXBXBXBXBXBXBXBXBXBXBXBXBXBXBXBXBXBXBXBXBXBXE.r ^.MXK.o E.MX^.r ^.BXBX%X#.:.#.#.>.:.>.NXBXBXBXBXBXBXBXBXBXBXBXBXBXBXBXBX",
"BXBXBXBXBXBXBXBXBXBXBXBXBXBXBXBXBXBXBXBXBXBXBXBXBX^.e ^.MXE.o x o E.MX^.r oXBXdXg.}.}.{.{.}.{.VXBXBXBXBXBXBXBXBXBXBXBXBXBXBXBXBX",
"BXBXBXBXBXBXBXBXBXBXBXBXBXBXBXBXBXBXBXBXBXBXBXBX,Xe ^.MX^.o n N b o ^.mX^.e 9XdX+.@.>.:.@.@.>.NXBXBXBXBXBXBXBXBXBXBXBXBXBXBXBXBX",
"BXBXBXBXBXBXBXBXBXBXBXBXBXBXBXBXBXBXBXBXBXBXBX8Xe R.mXoXX b P I P n X oXmXR.r [.}.{.{.}.{.{.{.NXBXBXBXBXBXBXBXBXBXBXBXBXBXBXBXBX",
"BXBXBXBXBXBXBXBXBXBXBXBXBXBXBXBXBXBXBXBXBXBXtXe R.mX8X@ b E I Q I E b @ 8XmXR.e =.:.@.@.>.:.>.VXBXBXBXBXBXBXBXBXBXBXBXBXBXBXBXBX",
"BXBXBXBXBXBXBXBXBXBXBXBXBXBXBXBXBXBXBXBXBXiXr K.nX7X@ c F G H H G G F c # 9XnXR.e =.g.:.g.}.g.NXBXBXBXBXBXBXBXBXBXBXBXBXBXBXBXBX",
"BXBXBXBXBXBXBXBXBXBXBXBXBXBXBXBXBXBXBXBXZXr Z.vXtX# z =.#X#X#XOX#X#X#XX.z V tXvXZ.e -.g.@.#.>.NXBXBXBXBXBXBXBXBXBXBXBXBXBXBXBXBX",
"BXBXBXBXBXBXBXBXBXBXBXBXBXBXBXBXBXBXBXbXr Z.vXuXV c F |.5X~.4XrX:X~.xX&.F c V iXvXZ.t h.:.:.g.NXBXBXBXBXBXBXBXBXBXBXBXBXBXBXBXBX",
"BXBXBXBXBXBXBXBXBXBXBXBXBXBXBXBXBXBXnXa A.vXlX' z E S '.M.i d H.i 6 Y.-.S E z [ lXcXZ.t :.:.;.VXBXBXBXBXBXBXBXBXBXBXBXBXBXBXBXBX",
"BXBXBXBXBXBXBXBXBXBXBXBXBXBXBXBXBXCXg A.zXzX[ l L ! H |.L.d z.U.s 9 Y.-.S ! E z } zXlXA.t :.:.VXBXBXBXBXBXBXBXBXBXBXBXBXBXBXBXBX",
"BXBXBXBXBXBXBXBXBXBXBXBXBXBXBXBXVXg c.lXvX{ l L I ~ S +XM.i d L.9 6 Y.;.S ~ I E z { vXlXA.t :.NXBXBXBXBXBXBXBXBXBXBXBXBXBXBXBXBX",
"BXBXBXBXBXBXBXBXBXBXBXBXBXBXBXBX| h lXvX{ l N I I ! S XXY.d x.U.d 9 Y.-.G ! I I L l { vXlXc.[ NXBXBXBXBXBXBXBXBXBXBXBXBXBXBXBXBX",
"BXBXBXBXBXBXBXBXBXBXBXBXBXBXBX| h gXmX| l L I U U ~ H '.3X!.~.<XU.H.3X%.H ~ U U U L z  .mXiXh B.BXBXBXBXBXBXBXBXBXBXBXBXBXBXBXBX",
"BXBXBXBXBXBXBXBXBXBXBXBXBXBXB.g iXmX .l N I I I I ! S |.n.6 9 n.6 3 L.-.G ! I I I I L l  .mXuXg V.BXBXBXBXBXBXBXBXBXBXBXBXBXBXBX",
"BXBXBXBXBXBXBXBXBXBXBXBXBXV.g uXMXv.l N I U U U U Q D '.b.4 9 n.6 3 L.-.D ~ U U U U I L z D.MXuXg S.BXBXBXBXBXBXBXBXBXBXBXBXBXBX",
"BXBXBXBXBXBXBXBXBXBXBXBXS.a wXMXD.l B I I I I I I Q S '.b.3 7 m.3   C.-.S ! I I I U I I L z D.MXtXa K.BXBXBXBXBXBXBXBXBXBXBXBXBX",
"BXBXBXBXBXBXBXBXBXBXBXK.r wXMXD.x B I I I I I I I Q S '.N.  7 m.    C.%.S ! I I I I I I I B c D.MXwXa E.BXBXBXBXBXBXBXBXBXBXBXBX",
"BXBXBXBXBXBXBXBXBXBXE.r 7XMXE.x m I I I U I U U U ~ S  XxX2XqXeXqX2XxX$.H ~ U U U U U U U I L c E.MX7Xr ^.BXBXBXBXBXBXBXBXBXBXBX",
"BXBXBXBXBXBXBXBXBX^.r 6XMXE.x m P I I I I I I I I I Y X.).(.).).(.(.).O.Y I I I I I I I I I I m v E.mX8Xr oXBXBXBXBXBXBXBXBXBXBX",
"BXBXBXBXBXBXBXBXoXr 1XmXoXv m I U U U U U U U U U U U H H H H H H H H Y U U U U U U U U U U U Q m n 8XmX1Xr 6XBXBXBXBXBXBXBXBXBX",
"BXBXBXBXBXBXBXBXB.^.vXzX| M P I I I I I I I I I I I I I ! ! ! ! ! ! ! W I I I I I I I I I I I I R m B.zXnX^.V.BXBXBXBXBXBXBXBXBX",
"BXBXBXBXBXBXBXBXVXlXpXL.{ J U U U U U U U U U U U U U U U U U U U U U U U U U U U U U U U U U U U I | H.uXlXVXBXBXBXBXBXBXBXBXBX",
"BXBXBXBXBXBXBXBXBXbX6X<X[.G ! I I I I ! ! ! ! ! ! ! ! ! ! ! I I I I I I ! ! ! ! ! ! ! ! I I I I I Y  X1X6XbXBXBXBXBXBXBXBXBXBXBX",
"BXBXBXBXBXBXBXBXBXBXBXBX@XG ~ I I I Y S S S A D G G G G A H H I I I I U H H H H H H H H Y I I I I Y sXBXBXBXBXBXBXBXBXBXBXBXBXBX",
"BXBXBXBXBXBXBXBXBXBXBXBX@XG ~ I I Y O.[.`.`.`._._._._._._.`.o.Y I I I ! o.o.o.o.o.o.o.o.] Y I I I Y sXBXBXBXBXBXBXBXBXBXBXBXBXBX",
"BXBXBXBXBXBXBXBXBXBXBXBX@XG ! I ! S =.3X~.^.~.~.~./.!.!.T.4X`.G ! ! G ..zXeXeXeXhXeXrXxX].G ! I I Y sXBXBXBXBXBXBXBXBXBXBXBXBXBX",
"BXBXBXBXBXBXBXBXBXBXBXBX@XG ~ U ~ H &.1X6X8X8X8X8X8X8X8X8X=X_.H ~ Q H ..1Xs d x.H.d s n.'.G ~ U U Y sXBXBXBXBXBXBXBXBXBXBXBXBXBX",
"BXBXBXBXBXBXBXBXBXBXBXBX@XG ! I ! G $.eXiX7X9XuXvX9X9XwXvXrX(.G ! I J ..4Xs l.b.U.l.s n.'.G ! I I Y sXBXBXBXBXBXBXBXBXBXBXBXBXBX",
"BXBXBXBXBXBXBXBXBXBXBXBX@XD ~ U ~ H &.rXiXlXlXcXlXkXlXlXcXqX_.H ~ Q H ..4Xp s x.H.s i m.XXH ~ U U Y sXBXBXBXBXBXBXBXBXBXBXBXBXBX",
"BXBXBXBXBXBXBXBXBXBXBXBX@XG ! I ! G $.rXlXvXvXvXlXcXvXvXcXqX(.G ! I J ..:X9 i z.J.i 9 b.|.S ! I I Y sXBXBXBXBXBXBXBXBXBXBXBXBXBX",
"BXBXBXBXBXBXBXBXBXBXBXBX@XG ~ U ~ H $.rXlXbXnXvXlXvXnXvXvXrX_.H ~ ~ G ..eX!.~.:X<X~.!.<X'.G ~ U U Y sXBXBXBXBXBXBXBXBXBXBXBXBXBX",
"BXBXBXBXBXBXBXBXBXBXBXBX&XG ! I ! G $.eXlXlXlXcXcXlXlXlXvXrX(.H ! ! G ..1Xd l.b.U.d s M.|.G ! I I Y sXBXBXBXBXBXBXBXBXBXBXBXBXBX",
"BXBXBXBXBXBXBXBXBXBXBXBX$XG ~ U ~ H $.eXvXvXvXvXvXvXvXvXbXrX_.H ~ Q G +.:X8 0 d n.0 8 N.XXG ~ U U Y sXBXBXBXBXBXBXBXBXBXBXBXBXBX",
"BXBXBXBXBXBXBXBXBXBXBXBX$XG ~ U ~ H $.eXcXiXiXlXvXiXiXiXcXrX_.H ~ Q G ..:X8 0 d n.0 8 b.XXG ~ U U Y sXBXBXBXBXBXBXBXBXBXBXBXBXBX",
"BXBXBXBXBXBXBXBXBXBXBXBX$XG ! I ! G $.eXuX7X7XuXlX7XwXwXcXrX(.G ! ! G ..~.4 6 p m.6 4 z.'.S ! I I Y sXBXBXBXBXBXBXBXBXBXBXBXBXBX",
"BXBXBXBXBXBXBXBXBXBXBXBX%XH ~ U ~ H &.rXiXvXvXvXlXcXvXvXlXqX_.H ~ ~ H ..<XJ.U.Y.4XL.J.4X].H ~ U U U sXBXBXBXBXBXBXBXBXBXBXBXBXBX",
"BXBXBXBXBXBXBXBXBXBXBXBX$XG ! I ! G *.rXuXlXlXlXiXlXlXlXlXqX_.G ! ! G ..-X<   f m.y q l.'.S ! I I Y sXBXBXBXBXBXBXBXBXBXBXBXBXBX",
"BXBXBXBXBXBXBXBXBXBXBXBX$XG ~ U ~ H &.rXtXiXgXlXuXiXgXlX.X8X_.H ~ ~ Y ` j.i.y.i.u.u.y.k k.^ Y Q U Y sXBXBXBXBXBXBXBXBXBXBXBXBXBX",
"BXBXBXBXBXBXBXBXBXBXBXBX$XG ~ U ~ H &.qXtXuXuXlXuXuXuXkX-X8X`.H ~ U T _ u.p.7.q.p.q.q.d.s._ Y Q U Y sXBXBXBXBXBXBXBXBXBXBXBXBXBX",
"BXBXBXBXBXBXBXBXBXBXBXBX$XG ~ U ~ H &.qXtXuXuXiXuXuXuXlX-X<X`.H ~ I T y.4.t.3.,.<.<.i.y.u._ Y Q U Y sXBXBXBXBXBXBXBXBXBXBXBXBXBX",
"BXBXBXBXBXBXBXBXBXBXBXBX$XG ~ U ~ H &.qXpXlXlXgXuXgXlXlXtX<X_.H ~ U U a.* ; * , & > t.> 1 ^ U Q U Y sXBXBXBXBXBXBXBXBXBXBXBXBXBX",
"BXBXBXBXBXBXBXBXBXBXBXBX$XG ! I ! G *.qXtX7X7XwXuX9X9X7XuXqX_.G ! I U _ > & : + + : : , < Y U I I Y sXBXBXBXBXBXBXBXBXBXBXBXBXBX",
"BXBXBXBXBXBXBXBXBXBXBXBX%XH ~ U ~ H &.qX7X8X8XwXtX8X8X7XtXqX_.H ~ Q T v + + O O O O $ $ @ P Q U Q U sXBXBXBXBXBXBXBXBXBXBXBXBXBX",
"BXBXBXBXBXBXBXBXBXBXBXBX$XG ! I ! G &.qXtXiXuXlXuXuXuXkXuXqX_.G ! I I n x x X X X X X x v P U I I Y sXBXBXBXBXBXBXBXBXBXBXBXBXBX",
"BXBXBXBXBXBXBXBXBXBXBXBX$XG ~ U ~ H &.qXtXuXuXiXtXyXuXiXuXqX_.H ~ U I P L N N N N N N L L I I W W Y sXBXBXBXBXBXBXBXBXBXBXBXBXBX",
"BXBXBXBXBXBXBXBXBXBXBXBX$XG ~ U ~ H &.qXtXuXyXiXtXyXyXiXyXqX_.H ~ U I I I I I I I I I I I R L P P K sXBXBXBXBXBXBXBXBXBXBXBXBXBX",
"BXBXBXBXBXBXBXBXBXBXBXBX%XH ~ U ~ H &.qXtXyXyXiXtXyXyXuXyXqX_.H ~ U U U I U U U U U U I P B N ( ) ( fXBXBXBXBXBXBXBXBXBXBXBXBXBX",
"BXBXBXBXBXBXBXBXBXBXBXBX$XH ~ U ~ H &.qX9XtXtXuXtXtXtXuXyX0X_.H ~ U U U U U U U U U I E B ( u.e.e.7.j.CXBXBXBXBXBXBXBXBXBXBXBXBX",
"BXBXBXBXBXBXBXBXBXBXBXBX$XG ! Q ! G *.qXtXuXuXuXtXuXiXiXtX0X_.G ! I I I I I I I W R E B Z s.6.1.8.1.,.j.BXBXBXBXBXBXBXBXBXBXBXBX",
"BXBXBXBXBXBXBXBXBXBXBXBX$XS T T T D %.qXtXyXyXyXyXyXyXyXtX<X_.D T T T T T T U Y Y P F m 4.1.<.5.1.8.5.8.*XBXBXBXBXBXBXBXBXBXBXBX",
"BXBXBXBXBXBXBXBXBXBXCX;Xf.V } } } C D.qX9XwXwXwXwXwXwXwXwXqXD.C } } } } } } } [ ) ) # < <.* 8.2.<.<.2.<.w.VXBXBXBXBXBXBXBXBXBXBX",
"BXBXBXBXBXBXBXBXBXVXj.6.6.w.w y f w j W.I.I.I.I.I.I.I.I.I.U.m.q y f f f y y w w.e.6.0.1 * 2.1.2.1.5.<.<.5.jXBXBXBXBXBXBXBXBXBXBX",
"BXBXBXBXBXBXBXBXBX*X3.2.5.6.0.e r w P.!.U.T.T.T.W.W.W.W.W.W.T.y e u u u u r 2 8.1.2.* 1 1 > <.1.<.<.2.> = *XBXBXBXBXBXBXBXBXBXBX",
"BXBXBXBXBXBXBXBXBX0.* 2.5.2.0.q q y !.T.T.U.U.U.T.T.T.T.T.U.~.j q u u u u q 0.1.1.1.1 > * * > & * * & & = f.BXBXBXBXBXBXBXBXBXBX",
"BXBXBXBXBXBXBXBXnX> <.<.<.<.2.y q h ~.W.W.!.!.!.!.!.!.W.!.W.~.C.q r r r r w 9.* <.% > % % * & - & > 1 & = =XBXBXBXBXBXBXBXBXBXBX",
"BXBXBXBXBXBXBXBXCX9.% > = = 0.uX^.H.P.P.P.P.P.P.P.P.P.P.P.P.I.C.C./.>X>X>X6Xr.* 1 <.* > & > & & & > * - f.VXBXBXBXBXBXBXBXBXBXBX",
"BXBXBXBXBXBXBXBXBXaXG.r.m.F.vXBXBXBXBXBXBXBXBXBXBXBXBXBXVXVXVXBXBXBXBXBXBXBXMX1XQ.Q.=XaX=X=XF.G.F.F.Q.2XmXBXBXBXBXBXBXBXBXBXBXBX",
"BXBXBXBXBXBXBXBXBXBXBXVXBXBXBXBXBXBXBXBXBXBXBXBXBXBXBXBXBXBXBXBXBXBXBXBXBXBXBXBXBXBXBXBXBXBXBXBXVXBXBXBXBXBXBXBXBXBXBXBXBXBXBXBX"
};
