/* XPM */
static char *_715768843474[] = {
/* columns rows colors chars-per-pixel */
"64 64 256 2 ",
"   c #160700",
".  c #071800",
"X  c #191A02",
"o  c #090D05",
"O  c #370200",
"+  c #271701",
"@  c #381A03",
"#  c #300F0D",
"$  c #042602",
"%  c #172803",
"&  c #0A3502",
"*  c #16340D",
"=  c #292905",
"-  c #372805",
";  c #263603",
":  c #383803",
">  c #352E17",
",  c #373427",
"<  c #1B372B",
"1  c #460501",
"2  c #491606",
"3  c #591805",
"4  c #561A15",
"5  c #511011",
"6  c #770C09",
"7  c #691606",
"8  c #77160A",
"9  c #6A1814",
"0  c #771A18",
"q  c #6A0C05",
"w  c #482704",
"e  c #582806",
"r  c #483505",
"t  c #583803",
"y  c #472616",
"u  c #572918",
"i  c #4B3718",
"p  c #59341B",
"a  c #6B2603",
"s  c #643806",
"d  c #672916",
"f  c #7B2515",
"g  c #683719",
"h  c #73381A",
"j  c #772E05",
"k  c #6D1F22",
"l  c #4D3329",
"z  c #643826",
"x  c #773928",
"c  c #6E302C",
"v  c #1A4700",
"b  c #054A0F",
"n  c #264603",
"m  c #374903",
"M  c #395705",
"N  c #304F11",
"B  c #2A6617",
"V  c #3C6517",
"C  c #144226",
"Z  c #37492E",
"A  c #336E27",
"S  c #484601",
"D  c #594805",
"F  c #455505",
"G  c #594519",
"H  c #515313",
"J  c #664705",
"K  c #764804",
"L  c #795A05",
"P  c #6C5012",
"I  c #476619",
"U  c #4F680E",
"Y  c #6D6913",
"T  c #5A4624",
"R  c #4E512E",
"E  c #674827",
"W  c #784527",
"Q  c #674638",
"!  c #7A4838",
"~  c #7A5739",
"^  c #6B582C",
"/  c #486729",
"(  c #4E732E",
")  c #63793A",
"_  c #726B2D",
"`  c #595448",
"'  c #73554B",
"]  c #796448",
"[  c #6E774D",
"{  c #717963",
"}  c #536C53",
"|  c #365848",
" . c #8D1615",
".. c #AF1316",
"X. c #893B00",
"o. c #87281A",
"O. c #972A16",
"+. c #902B13",
"@. c #AB2C1A",
"#. c #9B1620",
"$. c #AE1625",
"%. c #893529",
"&. c #B1302C",
"*. c #CA3530",
"=. c #C6241F",
"-. c #894504",
";. c #954803",
":. c #965408",
">. c #904F16",
",. c #A8590C",
"<. c #8C6B02",
"1. c #936A05",
"2. c #876617",
"3. c #977514",
"4. c #917014",
"5. c #AB7601",
"6. c #B1740E",
"7. c #86452A",
"8. c #8B5929",
"9. c #945B28",
"0. c #885836",
"q. c #894934",
"w. c #8A6438",
"e. c #996636",
"r. c #90752B",
"t. c #A56826",
"y. c #A77528",
"u. c #A97837",
"i. c #BB7635",
"p. c #B4732E",
"a. c #AC4D3F",
"s. c #CC7B32",
"d. c #D97D2A",
"f. c #A63B48",
"g. c #905549",
"h. c #876749",
"j. c #917152",
"k. c #B97C44",
"l. c #A8734C",
"z. c #927864",
"x. c #AF7672",
"c. c #C57C45",
"v. c #D17F4E",
"b. c #C6484B",
"n. c #598B31",
"m. c #6A8C2D",
"M. c #77AD3B",
"N. c #339F4C",
"B. c #55904F",
"V. c #6E924D",
"C. c #53AE57",
"Z. c #68A75A",
"A. c #73B150",
"S. c #71956D",
"D. c #70B169",
"F. c #48A860",
"G. c #6FC85D",
"H. c #6DCF63",
"J. c #A38518",
"K. c #8F8D32",
"L. c #B08C2F",
"P. c #BCA82F",
"I. c #82B036",
"U. c #C78636",
"Y. c #DA8839",
"T. c #D49433",
"R. c #E58837",
"E. c #E9943C",
"W. c #EC8D34",
"Q. c #CFA639",
"!. c #E6B431",
"~. c #C28319",
"^. c #EFCC2F",
"/. c #8F8B50",
"(. c #B7844B",
"). c #B0914B",
"_. c #89B251",
"`. c #BCA250",
"'. c #968E76",
"]. c #AB8A73",
"[. c #93B26A",
"{. c #A8B272",
"}. c #C88547",
"|. c #D68B4A",
" X c #D89748",
".X c #C98A58",
"XX c #DB8E52",
"oX c #D89456",
"OX c #C69951",
"+X c #E58C46",
"@X c #E89648",
"#X c #F69B49",
"$X c #E69956",
"%X c #F99C57",
"&X c #D8A657",
"*X c #D3AD52",
"=X c #E8A64A",
"-X c #F6A444",
";X c #E8A758",
":X c #F5A757",
">X c #E8B558",
",X c #F3B456",
"<X c #DB9765",
"1X c #E89A65",
"2X c #F39770",
"3X c #D0AD69",
"4X c #E7A965",
"5X c #F9A866",
"6X c #E7B468",
"7X c #FAB466",
"8X c #F2B176",
"9X c #89C45C",
"0X c #90C95A",
"qX c #96C967",
"wX c #8EC96C",
"eX c #AAD272",
"rX c #EFCA52",
"tX c #F2CB6E",
"yX c #FEE27A",
"uX c #D9CF57",
"iX c #7B9D8C",
"pX c #849587",
"aX c #AD9A8D",
"sX c #B7A895",
"dX c #BCA289",
"fX c #97ACA6",
"gX c #B4B9AC",
"hX c #8AA989",
"jX c #CDB7AA",
"kX c #E1AC89",
"lX c #B8C6B9",
"zX c #D0C6B1",
"xX c #F9E492",
"cX c #BCCCC1",
"vX c #D8D5C9",
"bX c #C7CCC7",
"nX c #ECD7CF",
"mX c #F5E2CD",
"MX c #FAE9D7",
"NX c #E9E7DA",
"BX c #DAEFEA",
"VX c #FAECE6",
"CX c #E7F6E8",
"ZX c #FDFCED",
"AX c #F9F7E9",
"SX c #FDEDF5",
"DX c #EBFBF8",
"FX c #FDF5F3",
"GX c #F4FEF4",
"HX c #FEFDF5",
"JX c #FCF6FD",
"KX c #F5FEFE",
"LX c #FEFEFD",
"PX c #F4F3F7",
"IX c #E9E8E5",
"UX c #DCEEDA",
/* pixels */
"LXLXLXLXLXLXLXLXLXLXLXLXLXLXLXLXHXZXHXHXHXZXHXHXHXHXHXHXHXLXHXLXLXLXKXKXLXKXLXKXLXKXLXLXKXHXLXLXLXLXLXLXLXLXLXLXLXLXLXLXLXLXLXLX",
"LXLXLXLXLXLXLXLXLXLXLXLXLXLXLXLXLXHXHXHXLXHXHXLXLXHXLXLXLXLXLXLXLXKXLXLXLXKXLXLXLXLXLXGXLXLXHXLXLXLXLXLXLXLXLXLXLXLXLXLXLXLXLXLX",
"LXLXLXLXLXLXLXLXLXLXLXLXLXLXLXLXLXLXKXLXLXLXLXLXLXLXLXLXLXLXLXHXLXHXLXLXHXLXLXLXHXLXLXLXHXHXLXHXLXLXLXLXLXLXLXLXLXLXLXLXLXLXLXLX",
"LXLXLXLXLXLXLXLXLXLXLXLXLXLXLXLXKXKXKXKXKXKXKXKXKXKXLXLXLXLXLXLXLXGXHXHXHXHXLXHXLXHXLXLXLXLXLXLXLXLXLXLXLXLXLXLXLXLXLXLXLXLXLXLX",
"LXLXLXLXLXLXLXLXLXLXLXLXLXLXLXLXKXKXKXKXKXKXLXKXKXLXLXLXLXLXLXLXGXLXGXLXLXLXLXKXLXKXLXLXLXLXLXLXLXLXLXLXLXLXLXLXLXLXLXLXLXLXLXLX",
"LXLXLXLXLXLXLXLXLXLXLXLXLXLXLXLXLXKXKXKXKXLXKXLXLXLXLXLXLXLXLXLXLXGXHXKXKXHXKXLXLXLXLXLXLXLXLXLXLXLXLXLXLXLXLXLXLXLXLXLXLXLXLXLX",
"LXLXLXLXLXLXLXLXLXLXLXLXLXLXLXLXLXLXLXLXLXLXLXLXLXLXHXHXHXHXHXHXHXGXLXGXGXLXLXLXLXLXLXLXLXLXLXLXLXLXLXLXLXLXLXLXLXLXLXLXLXLXLXLX",
"LXLXLXLXLXLXLXLXLXLXLXLXLXLXLXLXLXHXHXLXHXHXHXHXLXHXHXLXHXLXLXHXHXLXHXHXLXLXHXHXLXLXLXLXLXJXLXLXLXLXLXLXLXLXLXLXLXLXLXLXLXLXLXLX",
"LXLXLXLXLXLXLXLXLXLXLXLXLXJXLXLXLXHXZXHXHXHXHXLXLXLXLXLXLXLXLXLXLXHXHXHXHXHXHXHXHXHXHXHXHXHXHXHXLXLXJXLXLXLXLXLXLXLXLXLXLXLXLXLX",
"LXLXLXLXLXLXLXLXLXLXLXLXLXLXLXLXHXHXHXHXLXLXLXLXLXLXLXLXKXKXKXKXHXLXLXLXLXLXHXAXFXZXZXHXHXHXZXHXLXLXLXLXLXLXLXLXLXLXLXLXLXLXLXLX",
"LXLXLXLXLXLXLXLXLXLXLXLXLXLXLXLXLXLXLXKXHXJXLXLXKXKXLXKXKXKXKXLXLXLXLXLXLXLXLXLXLXLXLXKXKXLXKXKXHXKXLXLXLXLXLXLXLXLXLXLXLXLXLXLX",
"LXLXLXLXLXLXLXLXLXLXLXLXLXLXLXLXPXLXLXLXLXKXKXKXLXKXKXKXKXLXKXKXKXKXLXKXKXKXKXKXDXDXKXDXDXKXDXKXLXLXLXLXLXJXLXLXLXLXLXLXLXLXLXLX",
"LXLXLXLXLXLXLXLXLXLXLXLXJXLXLXLXLXLXKXLXJXKXJXPXLXHXLXHXHXHXHXHXLXLXLXLXLXLXLXKXKXKXKXKXKXKXKXKXPXLXLXLXLXLXLXLXLXLXLXLXLXLXLXLX",
"LXLXLXLXLXLXLXLXLXLXLXLXLXLXLXLXKXKXLXLXLXHXHXGXAXAXAXAXMXMXMXMXmXmXNXMXMXAXZXHXHXLXJXJXLXKXKXJXLXJXJXKXKXLXLXLXLXLXLXLXLXLXLXLX",
"LXLXLXLXLXLXLXLXLXLXLXLXLXLXLXPXHXLXZXVXvXjXdX].z.j.j.e.w.0.0.8.w.8.8.w.w.w.h.j.j./.aXdXjXnXVXHXHXLXLXLXJXHXJXLXLXLXLXLXLXLXLXLX",
"LXLXLXLXLXLXLXLXLXLXGXHXHXHXVXmXdX].h.~ ~ h.j.l.l.e.8.e.k.<X<XoX|.XXoXoX}.u.9.8.l.l.l.e.0.0.w.j.aXjXNXHXLXLXHXHXLXLXLXLXLXJXLXLX",
"LXJXLXLXSXLXGXGXGXGXLXLXjX].0.7.t.p.L.XXoX&XXX4Xp.3 j a i.oXXXXX+Xv.$X}.oX>.a s t 2X<X1X1X<X<Xk.h.w.0.z.jXVXGXZXAXGXHXHXLXLXJXJX",
"LXJXJXLXLXLXGXGXHXNX'.^ ~ l.(.4X@XE.R.+X@X$X$XXXoXoXoX|.$X$Xs.+Xd.5Xs.1X|. XoXc.oX+X|.+XXX Xi.1 j K .Xl.q.' '.AXZXIXZXHXJXFXLXJX",
"JXLXLXDXJXPXLXFX].W 9.OXOXe.t J ;X+X+X$Xi.a 7.9.c.<X}.$X|.Y.R.+X2Xp.|.|.$X+X+XR.R.d.E.W.R.R.#Xs.:.-.s.4X$XoXW Q sXHXLXLXLXAXGXHX",
"VXLXGXDXDXJXnX' %.v.4Xs.y.t s l.|.Y.+X@XXX>.-.3 c.XXXX+XR.R.-X6.7 q -.$X}.Y.#XE.#XR.E.E.E.W.W.E. X3X4Xs.s.|.1Xk.z ] HXGXCXZXGXZX",
"ZXZXDXDXKXPXu g.8X|.Y.=X%XXX2X2X%X=X=XE.#X=X:X-X#XY.E.R.#XR.W.s.:.t. XoX<X&Xy.2.).3XJ.u.;X7X#X5X4X3XP J 2 }.$X2X8XW Q AXDXDXGXGX",
"AXGXGXDXCX` h.2X|.,XE.:X4X8X2X2X:X@X=X,X X XL.U.`.rX>X&X:X7X@X:X>X>X6X;X6X).X ( ; M H Y s t.4X$X8X(.8.2.).8X4X<X1XkXR pXGXDXKXKX",
"ZXGXlXpXiX; 3X4X,X X6X&Xr.r./.&X@X5X:X&Xt D U U M U F F S ).&X&X*X&X;X4X3XS ( D.F.n.V.^ t t.6X5X1X5X5X8X3X`.P G j.R R > GXJXDXKX",
"JXaXo B.A n Y 3Xt.9.3XD M ( U = OX).4.3X: ) qXqX[.v M eX/.F U L U J Y 2.S A D.N.N.b ( '.dXkX`._ e u.).2.Y r / [ Z V.Z o R gXIXLX",
"JXbX* D.A.G.U ; D r.m N V.B.A.B B B A A N / '.{.hX{.[.F m.eX[._.I.I.K.K.I.0XG.G.C.A V /.'._ R ( ( N A N $ $ M qX0XG.A.B A } , bX",
"JXfXC F.H.H.9X[./././.N = - m N B.D.B./ H p p e W t e + D /._.qX9X0XeX{.0XqX_.A V ^ E 2 O 2 i - S.V.} = . H V.0X9X0XwXV.( | , IX",
"DX< N.F.C.B.A.V.O f 7 o.f.b.&.0 d z g 0 %.&.$.*.=.*.*.+.7 s t ^ _ [ / > G E t p %.+...=.*.*.@.O.8 o.+.O.X.j P [ ) [ ` Z zXgXUXGX",
"DXfXC B.B B./ + 3 o.o.&.#...$.$.o.9 o.&.$.$.=...=... .+.o.h e e @     @ y 4 9 %.#.#.........@.&.f.&.*.&.@.@.f g z l # PXZXHXGXCX",
"DXGXBXbXbXQ i 2 O g.x 4 5 0  .f d e a 2 O 9 g.q 1 1 1 g.z.g.Q Q j.x.j.2 2 g.x.f.1 9 %.c 9 9 7 3 O 5 Q k 5 d d d c 4 c SXLXSXPXKX",
"CXLXPX' l y k u aXj.l u c k 3 3 1 e u p u z c # O # y ' ' 4 y i 2 x q.! j.g.k u 4 2 O 4 u e y u y # # ` Q 2 3 3 4 4 u l ` IXJXLX",
"LXJXNXl # # # jX' O c c O u E g x x x x ! E T E E p p e 4 x x x x p p d e e E E E E E p p z c Q z E y u u 1 x k d 2 y , X fXJXJX",
"LXJXFXHXgXo , l   l 5 # c z W x %.%.c x x x W W W h 0.7.q.%.o.%.d ' q.x 7.>.h h P e s h x x c x W h ! %.%.%.%.x z ' o } vXGXLXJX",
"JXFXJXFXLXgX, > , y z 4 4 4 a 7 7 0 0 7 7 8 8 7 7 q 8 o.f 0 0 k k k 9 0 q 8 6 8 6 6 6 6 6  .6 6  .6 6 8 6 6 6 9 4 + R IXDXGXLXKX",
"HXGXLXFXvXjX/.X @ + # 2 d a 7 7 7 3 7 8 +.%.+.+.+.O.+.8 0 o.o.0 f f f o.o.O.O.O.+.@.O.O.O.@.&.O.o.%.+.+.O.+.o.a x @ z.ZXVXPXJXLX",
"LXLXvX{ z.j.y.*X=X X|.+Xs.s.d.6.p.t.p.p.t.:.-.-.X.-.X.X.>.;.:.,.>.,.,.,.,.:.:.;.;.;.;.,.;.;.X.:.-.:.;.;.X.X.X.-.K e ^ zXHXLXSXJX",
"CXKXpXl _ D K K 5.T.5.:.6.T.Q.=X XJ.3.6.J.Q.>XrX>X>X*XT.U.s.d.6.6.6.s.~.T.Q.!.=X!.rX>X>XT.&X XOX*XU.6X>X:XtX=XU.L.&X`.w aXSXJXJX",
"KXDXNXR G L.tXQ.5.1.6.`.J.Y Y Y <.J.P.P.J.2.2.4.4.4.1.1.J.5.5.J.5.5.5.5.1.1.1.<.<.L J J D D e J J s K K L 1.3.3.J.L J.D ^ ZXGXDX",
"LXLXvXi r P *XuXuX*XL.L D _ Y Y 4.J.K.J.L./._ _ S S 2.Q.uXrX^.!.!.!.^.rXyXtX*XK.r.Y _ r.L.L.L.L.L.u.w 2 D r Y L.*XyX`.).T zXAXGX",
"SXJXFX> T w - yX6Xt w t g g e J r D - + = = . X , % : ; r L.uXrX^.^.rX!.r.D - -   l T t Y y.rX*X6Xe.w p P t G r r J P.xX~ ` GXCX",
"FXSXSX> i : X Y =   G z z ~ W W E G - i { S.{ S.hX% N ) F = S uXrXP.Y = % ; , < | , = G D O L.tXr.  > Q y E Q T G : o _ R bXPXLX",
"FXLXKX} . * V n M / ; = l l l @ r w G ; ; n N A.wXB.v & n ; % ; U & v V.A $ A Z.Z.S.* : G w e t & A Z X T y u l = : F M * BXJXJX",
"GXpXC } $ A wXG.9XA $ . Z Z + R i r i m m & n 9X0X0XM.V ( V.V.m.n.C.Z.C.Z.Z.Z.C.Z.B.$ % Z m - % Z.D.B.% = : i o N _.A.qX* BXDXPX",
"DX| C S.B.Z.wXH.0XC.A $ * } S.'.` R > . & V n.n.A.9X0X0X0X0X0XqXwXhX_.$ m H H H H F ; / Z.Z.B.A M F H H ( M.m.n._.eX9Xn.Z UXGXKX",
"DXBXiXC * V m.A.m.V.V I [ R H H i j./.h._ ^ U Y M U U U U m.m.m.U F H : ).3XOXOXOX3X).U M I B v K.3X/.D Y S n eXeX_.0X[.N } DXDX",
"KXPXJXgX* ) Y Y Y L 2.&X6X&X>XE.7X,X;X7X6X|.6X4X4Xk.r.u.2.K K 4.y.OX>X*X>X=X!.:X,XT.>X,XoXL.i.&X*X*X>X>X=X X-.s Y U V.B.< fXLXLX",
"PXLXPXLXaXl _ (.`.6X8X4X%X:XE.E.W.E.W.d.E.#X#X#X%X5X8X5X4X5X7X$X:X,X#XE.E.E.,XE.-X=X-X#X%X%X%X%X=X>X@X$X:X8X.X).j.^ X { lXKXJXJX",
"HXHXLXLXJXvXsX] g.z g.l.l.c.T. XE.Y.Y.#Xd.s.R.d.d.d.R.#X@X$X;X,XE.#X#X7X-X:X:X=X:X=X$X+X:X@X$X+X+XXX}.c.e.~ _ ] z.pXNXAXHXHXLXHX",
"ZXHXLXLXJXLXFXLXVXnXaXx.z.0.w.>.9.>.t.a.k.i.s.c.U.c.}.}.}.}.}.}.XX|.Y.c.}.k.i.l.u.l.e.8.e.>.8.7.a.a.g.j.'.sXvXNXGXHXLXFXLXHXGXHX",
"LXLXLXLXLXLXLXLXLXJXHXHXHXFXMXmXzXjXdXaX'.z.j.j.] h.h.] ] ] h.] ] ] ] h.] z.z.z.'.'.aXsXjXzXnXnXMXVXZXHXHXLXLXHXLXLXLXLXLXLXLXLX",
"LXLXLXLXLXLXLXLXLXJXJXLXLXLXLXJXLXHXHXHXHXHXLXHXLXLXHXLXHXHXFXFXJXHXLXHXLXLXLXLXLXLXLXLXLXLXKXLXKXJXLXLXLXLXLXLXLXLXLXLXLXLXLXLX",
"LXLXLXLXLXLXLXLXLXLXLXLXLXLXLXLXLXHXLXHXHXHXHXHXLXLXLXHXHXHXHXHXHXLXLXLXLXHXJXLXLXJXLXKXLXKXLXKXLXLXLXLXLXLXLXLXLXLXLXLXLXLXLXLX",
"LXLXLXLXLXLXLXLXLXLXLXLXLXLXJXLXLXLXLXLXLXHXLXGXHXHXHXHXHXHXHXHXHXLXHXHXLXGXHXHXLXLXLXLXLXLXLXLXLXLXLXLXLXLXLXLXLXLXLXLXLXLXLXLX",
"LXLXLXLXLXLXLXLXJXLXLXLXLXLXLXLXLXLXJXLXLXLXLXLXLXHXLXHXLXLXLXHXLXLXLXLXLXLXLXLXLXLXLXLXLXJXKXKXLXLXLXLXLXLXLXLXLXLXLXLXLXLXLXLX",
"LXLXLXLXLXLXLXLXLXLXLXLXLXLXLXLXLXLXLXLXHXJXHXJXLXLXJXLXLXHXLXLXHXHXHXHXHXLXLXLXLXLXLXLXLXLXLXLXLXLXLXLXLXLXLXLXLXLXLXLXLXLXLXLX",
"LXLXLXLXLXLXLXLXLXLXLXLXLXLXLXLXLXLXLXLXLXLXLXLXLXLXLXLXLXLXLXLXLXLXLXLXLXLXLXLXLXLXLXLXLXLXLXLXLXLXLXLXLXLXLXLXLXLXLXLXLXLXLXLX",
"LXLXLXLXLXLXLXLXLXLXJXLXLXLXLXLXLXLXLXLXLXLXLXLXLXLXLXLXLXLXLXLXLXHXLXLXLXLXLXLXLXLXLXLXLXLXLXLXLXLXLXLXLXLXLXLXLXLXLXLXLXLXLXLX",
"LXLXLXLXLXLXLXLXLXLXLXLXLXLXLXLXLXLXLXLXLXLXLXLXLXLXLXLXLXLXLXLXLXLXGXLXLXLXLXHXLXLXLXLXLXLXLXLXLXLXLXLXLXLXLXLXLXLXLXLXLXLXLXLX",
"LXLXLXLXLXLXLXLXLXLXLXLXLXLXLXLXLXLXLXLXLXLXLXLXLXLXLXLXLXLXLXLXLXHXLXLXLXLXLXLXLXLXLXLXLXLXLXLXLXLXLXLXLXLXLXLXLXLXLXLXLXLXLXLX",
"LXLXLXLXLXLXLXLXLXLXLXLXLXLXLXLXLXLXLXLXLXLXLXLXLXLXLXLXLXLXLXLXLXLXLXLXLXKXLXLXLXLXLXLXLXLXLXLXLXLXLXLXLXLXLXLXLXLXLXLXLXLXLXLX",
"LXLXLXLXLXLXLXLXLXLXLXLXLXLXLXLXLXLXHXLXLXLXLXLXLXLXLXLXLXLXLXLXLXLXLXLXLXHXLXLXLXLXLXLXLXLXLXLXLXLXLXLXLXLXLXLXLXLXLXLXLXLXLXLX",
"LXLXLXLXLXLXLXLXLXLXLXLXLXLXLXLXLXHXLXLXLXHXHXLXLXLXKXLXLXLXKXKXLXKXLXKXLXLXLXLXLXLXLXLXHXLXLXLXLXLXLXLXLXLXLXLXLXLXLXLXLXLXLXLX",
"LXLXLXLXLXLXLXLXLXLXLXLXLXLXLXLXLXHXLXHXLXLXLXLXLXLXLXLXLXKXLXLXLXLXLXLXLXLXLXLXLXHXLXHXLXLXLXJXLXLXLXLXLXLXLXLXLXLXLXLXLXLXLXLX",
"LXLXLXLXLXLXLXLXLXLXLXLXLXLXLXLXLXHXLXHXHXHXLXLXLXLXKXLXLXLXKXLXKXLXKXLXKXLXLXLXLXLXLXHXLXLXLXLXLXLXLXLXLXLXLXLXLXLXLXLXLXLXLXLX",
"LXLXLXLXLXLXLXLXLXLXLXLXLXLXLXLXLXHXHXLXHXLXHXLXHXLXKXLXKXLXLXLXKXLXLXLXLXKXLXLXLXLXLXLXLXLXLXLXLXLXLXLXLXLXLXLXLXLXLXLXLXLXLXLX"
};
