/* XPM */
static char *_715768945998[] = {
/* columns rows colors chars-per-pixel */
"64 64 256 2 ",
"   c #341204",
".  c #522F13",
"X  c #673916",
"o  c #703909",
"O  c #693928",
"+  c #4E302C",
"@  c #764616",
"#  c #744E10",
"$  c #786905",
"%  c #7C7201",
"&  c #756412",
"*  c #5D4532",
"=  c #794827",
"-  c #754D30",
";  c #665B21",
":  c #6D574C",
">  c #796858",
",  c #894900",
"<  c #955609",
"1  c #955B18",
"2  c #845215",
"3  c #A75D05",
"4  c #B15B13",
"5  c #856A04",
"6  c #847B01",
"7  c #887603",
"8  c #957705",
"9  c #99651C",
"0  c #88741B",
"q  c #907016",
"w  c #A76508",
"e  c #B87607",
"r  c #A66518",
"t  c #AB761B",
"y  c #BA7817",
"u  c #B46D0C",
"i  c #885628",
"p  c #985C25",
"a  c #8B5933",
"s  c #91522D",
"d  c #AF5028",
"f  c #996528",
"g  c #987826",
"h  c #896539",
"j  c #996637",
"k  c #866E31",
"l  c #A86829",
"z  c #B56A28",
"x  c #B87827",
"c  c #A76937",
"v  c #AB783A",
"b  c #B87336",
"n  c #AE7130",
"m  c #D24A09",
"M  c #EF590D",
"N  c #C46C09",
"B  c #C47507",
"V  c #D37709",
"C  c #C77616",
"Z  c #D97918",
"A  c #D06D0D",
"S  c #E96A03",
"D  c #F76A06",
"F  c #EA7601",
"G  c #FA7A0A",
"H  c #FD7816",
"J  c #EE7118",
"K  c #C37C28",
"L  c #C87A35",
"P  c #F1762C",
"I  c #DE5123",
"U  c #8E5547",
"Y  c #947656",
"T  c #8F6E4F",
"R  c #B7794A",
"E  c #AA714B",
"W  c #9A7669",
"Q  c #956D71",
"!  c #A87573",
"~  c #A25A58",
"^  c #CC754F",
"/  c #CB5B43",
"(  c #8B8102",
")  c #968611",
"_  c #BA8806",
"`  c #AF8E16",
"'  c #A8862A",
"]  c #A78130",
"[  c #B3902D",
"{  c #A19035",
"}  c #C78406",
"|  c #D78808",
" . c #DA9805",
".. c #C98618",
"X. c #D88917",
"o. c #DA9517",
"O. c #C9950E",
"+. c #E88D03",
"@. c #F48409",
"#. c #E79807",
"$. c #F79908",
"%. c #E98B17",
"&. c #FC8715",
"*. c #ED9512",
"=. c #E59A13",
"-. c #E69918",
";. c #F59B1A",
":. c #D6A306",
">. c #DCA618",
",. c #D6B712",
"<. c #E9A606",
"1. c #F5A908",
"2. c #EBB706",
"3. c #F8B709",
"4. c #E9A717",
"5. c #F3AB13",
"6. c #F4AC1C",
"7. c #F8A719",
"8. c #ECB517",
"9. c #F3B314",
"0. c #FCB414",
"q. c #F5B41B",
"w. c #FCB41C",
"e. c #FDBB1B",
"r. c #F7BC15",
"t. c #C88827",
"y. c #D78A23",
"u. c #D99528",
"i. c #C9883A",
"p. c #CA9A36",
"a. c #D2902F",
"s. c #FA8926",
"d. c #ED9C24",
"f. c #E49825",
"g. c #F69B26",
"h. c #E89836",
"j. c #ED8B2D",
"k. c #D9A526",
"l. c #D3AC32",
"z. c #EAA726",
"x. c #F4AB22",
"c. c #F4AB2B",
"v. c #FCAB2B",
"b. c #FDA726",
"n. c #E7B625",
"m. c #F3B324",
"M. c #FCB423",
"N. c #F3BC23",
"B. c #FBBB21",
"V. c #FDB32A",
"C. c #F9BA2E",
"Z. c #E8A734",
"A. c #F9A934",
"S. c #EDB833",
"D. c #FCB836",
"F. c #E9C704",
"G. c #F9C806",
"H. c #ECD703",
"J. c #F9D504",
"K. c #ECCC17",
"L. c #FDC41B",
"P. c #FAC816",
"I. c #E8D716",
"U. c #F9D516",
"Y. c #F9E216",
"T. c #F4E509",
"R. c #ECC329",
"E. c #FDC323",
"W. c #FDC32C",
"Q. c #F8C728",
"!. c #E9D528",
"~. c #FCD528",
"^. c #FCC333",
"/. c #FDCB36",
"(. c #F9C639",
"). c #FDD335",
"_. c #FDD738",
"`. c #E9CF36",
"'. c #FFE52C",
"]. c #DED021",
"[. c #98894A",
"{. c #BA8347",
"}. c #AA9050",
"|. c #B4A349",
" X c #978E70",
".X c #AC9570",
"XX c #AEA772",
"oX c #C68646",
"OX c #D2924E",
"+X c #E59645",
"@X c #ED9054",
"#X c #DAAB4E",
"$X c #FCB545",
"%X c #F2AB4D",
"&X c #D39470",
"*X c #E6996D",
"=X c #D8AC77",
"-X c #CAB474",
";X c #EAB172",
":X c #FAC445",
">X c #FCD845",
",X c #E8DA59",
"<X c #EDD64B",
"1X c #F6E951",
"2X c #F6D865",
"3X c #F8DB76",
"4X c #F4CB6E",
"5X c #F9E878",
"6X c #F9E96A",
"7X c #D3C457",
"8X c #B29790",
"9X c #B2A693",
"0X c #AEA7A3",
"qX c #D3AD97",
"wX c #E4BA88",
"eX c #CCB4AC",
"rX c #EAB6AF",
"tX c #B6C19A",
"yX c #F4D490",
"uX c #FCE888",
"iX c #F7EB99",
"pX c #F9F591",
"aX c #D2C8B8",
"sX c #F2CBB4",
"dX c #FFE8A9",
"fX c #FCF7AA",
"gX c #FAF5B4",
"hX c #FEEABC",
"jX c #D2D39F",
"kX c #E6B4C3",
"lX c #D8CFCB",
"zX c #F2D6CD",
"xX c #FDEDC6",
"cX c #FBF9CA",
"vX c #FEFEDC",
"bX c #FCF6D7",
"nX c #EEEAD5",
"mX c #FBD9EA",
"MX c #FAEDE6",
"NX c #FDF6E3",
"BX c #FDFDE4",
"VX c #FEFEEC",
"CX c #F7F7EB",
"ZX c #FBE7F8",
"AX c #EEFDFE",
"SX c #EBF5F7",
"DX c #F5F5F3",
"FX c #FBF5F4",
"GX c #F5FDF4",
"HX c #FCFDF4",
"JX c #F3F5FC",
"KX c #FDF5FE",
"LX c #F5FDFC",
"PX c #FEFFFF",
"IX c #ECF1EB",
"UX c #CBDCE3",
/* pixels */
"PXPXPXPXPXPXPXPXPXPXPXPXPXPXPXPXLXPXPXPXKXPXPXPXPXPXPXPXPXPXPXPXPXPXPXPXPXPXPXPXPXPXPXPXPXPXPXPXPXPXPXPXPXPXPXPXPXPXPXPXPXPXPXPX",
"PXPXPXPXPXPXPXPXPXPXPXPXPXPXPXPXHXGXPXHXHXPXPXKXPXPXPXPXPXPXPXPXPXPXPXPXPXPXPXPXPXPXPXPXPXPXPXPXPXPXPXPXPXPXPXPXPXPXPXPXPXPXPXPX",
"PXPXPXPXPXPXPXPXPXPXPXPXPXPXPXPXVXHXHXPXPXPXPXPXPXPXPXPXPXPXPXPXPXPXPXPXPXPXPXPXPXPXPXPXPXPXPXPXPXPXPXPXPXPXPXPXPXPXPXPXPXPXPXPX",
"PXPXPXPXPXPXPXPXPXPXPXPXPXPXPXPXLXPXPXPXPXPXPXPXPXPXPXPXPXPXPXPXPXPXPXPXPXPXPXPXPXPXPXPXPXPXPXPXPXPXPXPXPXPXPXPXPXPXPXPXPXPXPXPX",
"PXPXPXPXPXPXPXPXPXPXPXPXPXPXPXPXPXPXLXPXPXPXPXHXPXPXPXPXPXPXPXPXPXPXPXPXPXPXPXPXPXPXPXPXPXPXPXPXPXPXPXPXPXPXPXPXPXPXPXPXPXPXPXPX",
"PXPXPXPXPXPXPXPXPXPXPXPXPXPXPXPXKXLXKXPXPXHXHXHXPXPXPXPXPXPXPXPXPXPXPXPXPXPXPXPXPXPXPXPXPXPXPXPXPXPXPXPXPXPXPXPXPXPXPXPXPXPXPXPX",
"PXPXPXPXPXPXPXPXPXPXPXPXPXPXPXPXBXvXNXVXHXHXPXPXPXPXPXPXPXPXPXPXPXPXPXPXPXPXPXPXPXPXPXPXPXPXPXPXPXPXPXPXPXPXPXPXPXPXPXPXPXPXPXPX",
"PXPXPXPXPXPXPXPXPXPXPXPXPXPXPXPXfXgXhXcXVXPXPXKXPXPXPXPXPXPXPXPXPXPXPXPXPXPXPXPXPXPXPXPXPXPXPXHXPXPXPXPXPXPXPXPXPXPXPXPXPXPXPXPX",
"PXPXPXPXPXPXPXPXvXKXHXvXPXvX5X_.U.H.H.H.1XgXVXJXBXcXfX5X2X3XuXdXcXPXKXPXGXDXPXFXPXHXKXPXPXKXLXLXPXPXPXPXPXPXPXPXPXPXPXPXPXPXPXPX",
"PXPXPXPXPXPXPXPXPXPXLXPXfX,X~.U.G.U.~.K.I.1XpXvX`.!.U.H.F.H.H.F.,XgXNXHXHXJXPXHXPXPXPXPXGXLXPXPXPXPXPXPXPXPXPXPXPXPXPXPXPXPXPXPX",
"PXPXPXPXPXPXPXPXLXAXAXBX>XG.r.U.H.U.Q.G.H.T.!.<X6.5.e.P.G.P.P.2.F.>X3XdXNXKXLXCXLXLXPXPXPXPXPXLXPXPXPXPXPXPXPXPXPXPXPXPXPXPXPXPX",
"PXPXPXPXPXPXPXPXcXLXGX5XJ.3.D.Y.G.G.G.G.G.U.U.H.5.<.e.Q.0.0.L.L.G.r.,.l.qXlXLXGXPXPXLXLXPXPXPXFXPXPXPXPXPXPXPXPXPXPXPXPXPXPXPXPX",
"PXPXPXPXPXPXPXPXvXVXuXI.G.w.P.T.U.U.G.3.9.e.E.U.P.:.:.K.r.9.3.P.0.5.~.E.t Y eXlXDXPXPXAXSXKXPXHXHXPXPXPXPXPXPXPXPXPXPXPXPXPXPXPX",
"PXPXPXPXPXPXPXPXKXhX!.J.E.G.J.U.J.q.z.-.#.1.6.c._.>.O.k.(.D.x.V.$XV #.3.R.=XqX8XaXlXPXKXLXPXHXVXKXPXPXPXPXPXPXPXPXPXPXPXPXPXPXPX",
"PXPXPXPXPXPXPXPXKX5XJ.J._.T.J.3.O.y z C =.5.6.c.e.4. .:.N.9.<.q.X.N %.7.9.#XwXbXeXaXlXMXPXHXHXMXLXFXPXPXPXPXPXPXPXPXPXPXPXPXPXPX",
"PXPXPXPXPXPXPXHXIX1XJ.U.Y.!.8.&.OXi.K N C | 1.P.%.v.7.#.q.q. .V.#.y.j.b.M...f qXzXeX0XlXIXHXBXnXFXLXPXPXPXPXPXPXPXPXPXPXPXPXPXPX",
"HXPXPXPXPXHXPXLXNX`.H.T.'.U.W.oXl i j {.x N %.0.1.*.v.}  .4.} 4.4.1.&.s.q.a.X .X8XzXkX! qXNXcXlXLXKXPXHXVXVXCXKXPXPXPXPXPXPXPXPX",
"HXPXKXPXPXPXLXPXgXI.H.'.L.:.X.oXs X = j l u o.q.3.0.(.} } u...C ..+.%.%.1.O.< OXsXrXkXeXQ 8XVXMXLXAXJXJXLXPXDXKXPXPXPXPXPXPXPXPX",
"PXPXPXPXPXPXHXHX6XT.J.~.o.B r ~ = . . a p u =.q.2.2.^.O.y i.i.b t...j.%.$.1.V g.@XZ j.@Xd c =XdXBXDXPXLXLXLXSXPXPXPXPXPXPXPXPXPX",
"PXPXHXPXPXPXVXvXI.T.J.w.A u l a - . . - p y -.q.J.2./.n.i.n l d z K X.%.+.$.G H @.&.@.@.g.;.| m.;XyXVXPXAXPXPXPXPXPXPXPXPXPXPXPX",
"PXPXHXLXPXPXBXcXF.H.U.$.Z C l i + . X - p y -.8.L.8.(.#X^ j s 1 s d u V V G D M D D H &.&.;.;.@.D j.dXMXFXHXHXPXPXPXPXPXPXPXPXPX",
"KXPXHXLXKXPXbXgXI.F.3.$.g.C t 9 O . ; - 1 C 4.9.8.Q.(.p.v s c i p l B +.A P H M M m M H S G &.D D S ;XbXHXFXDXPXPXPXPXPXPXPXPXPX",
"PXHXHXLXPXPXcXiXJ.r.5.$.;...t r i = - f 9 ..6.9.W.).^.t.j O s 2 i c C *.Z s.&.P s.H H &.&.G D D D P sXVXKXKXHXPXPXPXPXPXPXPXPXPX",
"KXHXVXLXPXPXcXiXG.L.5.#.| f.x l j j j f 3 X.B.3.3.9.4.[ c O O a X a B +.A %.+.&.G @.&.@.F S D H I *XnXAXSXPXPXKXPXPXPXPXPXPXPXPX",
"PXKXHXPXPXHXBXcX8.L.r.2./.o.w a.[ x 9 , e o.6.q.G.~.:.p.R U - @ X c u 0.<.Z / d m m F M J J J P h.}.nXAXLXFXHXLXPXPXPXPXPXPXPXPX",
"PXHXHXDXPXPXHXbX3.<.w.V.X.} %.u.} $X%XC e 6.Q.9.r.r.8.a.oXE a @ i f N $.$.C R c - }.{.}.rX8XU wXs.OXaXPXLXPXHXLXPXPXPXPXPXPXPXPX",
"PXPXPXLXPXPXHXnXG.#.M.D.B | D.1.V.-.%.$Xx.5.<.L.L.8.Q._ x R R j k w +.$.v.L p g E [.[.T ~ ~ ~ ^ P ^ rXKXKXPXPXLXPXPXPXPXPXPXPXPX",
"PXHXHXLXPXKXHXnX<.q.m.c.x.x.6.5.B.| | m.e.E.3.:.8.B.^.} e b z c 9 e $.1.Z.g # $ 5 $ ` ] , ^ P I P @XzXKXPXHXLXPXPXPXPXPXPXPXPXPX",
"PXPXHXPXPXJXHXaX_ :XN.8.Q.E.x.-.M.M.^.n.N.)._.>.:./.<.O.O...r < 4 *.2.k.' & & 6 % $ ) |.E ^ / / @X*XzXKXPXGXHXPXPXPXPXPXPXPXPXPX",
"LXPXPXLXPXKXHX9X` $XQ.L.P.9.D.Z.^.c.D.`._.R.(.S.r./.O.>.m.m.o.e J w.r.`.& % ( t ) 6 % & Y U s @X4XwXlXIXLXLXHXKXPXPXPXPXPXPXPXPX",
"PXLXHXPXPXFXHX9X} ^.m.5.5.=.v.A.x.S.S.n./.).(.z.~.8.>.C.E.E.Q.N.7. .8.OX0 % % 5 5 5 ( q {.R ^ @X;X;XrXMXPXGXHXKXPXPXPXPXPXPXPXPX",
"PXLXGXPXPXHXVX.X} D.o.} -.%.%.+.z.^.D./.Q.Q.4.S.P._ :X>Xr.2.P.3._._ f.x 9 7 6 0 $ 6 8 7 }.E ! wX%X*XkXmXLXGXDXPXPXPXPXPXPXPXPXPX",
"LXGXKXKXBXPXFX X#.w. . .4.4.| A.M.V.m.q.r.B.m.n.).<. .e.r.~.E.B.~.q.y.f 5 ( % & 5 0 5 % [ Y 8X7Xl.#XrXzXKXLXGXHXPXPXPXPXPXPXPXPX",
"LXHXPXLXBXPXKXXX4.M.4.=.x.V.-.A.-.-.S.C.B.q.m.^.D.4.#.e.L.E.3.3.2.r.Z.] 5 % 6 g 7 # $ 6 ` W zX[.{ yXqXmXKXLXLXDXPXPXPXPXPXPXPXPX",
"PXGXPXKXBXPXKXXX*.x.7.*.*.x.| c.%.y.u.Z.m.6.q.C.c.z.;.4.E.L.2.3.<.3.4.] 0 6 6 5 5 g 0 ( |.T eXXXwXrX! ZXKXLXPXKXPXPXPXPXPXPXPXPX",
"PXCXKXPXVXKXDXyXf.b.D.;.| -.| g.+Xi.[ t.u.x.w.9.m.7.;. .m.4.<.<.1.3. .t 0 6 7 7 7 $ 6 ) ' T .X{ zXeXQ KXPXGXPXPXPXPXPXPXPXPXPXPX",
"PXGXKXPXHXJXHX5Xc.z.b.;.| d.X.u.@XoXj 9 x d.M.9.3.0.;.} Z.u.u.y.1.0.0.` 0 % 7 8 ) 5 % ) |.qX: $ rX! 0XJXCXHXPXPXPXPXPXPXPXPXPXPX",
"PXHXPXLXHXKXNX2XD.d.=.x.%.A.h.a.b c - @ 1 ..6.B.P.e.c.h.OXoXoXoX..1.1...9 q 8 7 5 ( ( ) -X&X. |.zXU eXPXVXVXHXHXPXPXPXPXPXPXPXPX",
"PXHXHXLXHXKXNX<X(.C.=.D.d.u.%XOXs O O * i u o.w.Q.C.%XOXv j c E z  .$.| x ] ) 0 6 $ [.] i # h eXrXT lXJXKXHXCXHXPXPXPXPXPXPXPXPX",
"KXHXHXDXHXKXbX<XN.N.<.D.B 3 L b i O O : E r } 4.R.S.h.oXX X @ s p o.3.%.x ] [ { _ |..X. # g XXkX= W SXAXKXPXFXPXPXPXPXPXPXPXPXPX",
"GXHXKXHXLXLXxXK.M.B.2.2.4.B a.q + + X - f z B 4.9.n.OXa = . O U 9 B z.u.S 4 ; Y [.:     U OXE U * eXDXPXLXPXFXHXPXPXPXPXPXPXPXPX",
"GXPXKXHXGXPXxXU.E.q./.E.$Xh.i.R = = a j 2 , e v.5.z.i.a @ . X = # ..-.| @.4 X [.7X-X}.  E [ = W > lXHXLXPXPXHXHXPXPXPXPXPXPXPXPX",
"LXPXKXHXGXLXbX~.$.u Z.-.A.d.e E b o @ h j l a.z.M.f.i.n j o # # & C *.+.$...|.uX5X6X5XW OXl ! .X8XnXHXGXJXPXPXFXPXPXPXPXPXPXPXPX",
"PXHXPXPXGXPXbX1X*.d @Xd.D.q.} oX^ p p j h 1 t.;.0.u.K R c @ # i i A 7.7.F u.iXpX>Xn.,XdXE p 8XQ lXGXPXGXJXPXPXGXPXPXPXPXPXPXPXPX",
"PXHXPXPXHXPXNXpX1.A j.d.v.<.B z c j v = 2 , A b.9.z.t.R R j j E # N g.w.+.OXgX,X:.p.>XuXh ] T 8XVXHXPXPXPXPXPXPXPXPXPXPXPXPXPXPX",
"PXCXPXPXGXPXHXfXJ.2.d.A.W.4.f.L @ 9 1 < t.y.*.7.E.S.t l c R E 2 2 Z %.4.=.wXcX<X>.l.!.uXY & [.IXPXKXGXPXHXKXPXHXPXPXPXPXPXPXPXPX",
"KXBXPXLXGXPXPXvX~.2.v.A.E.n.%Xg.x ` u.c.c.c.4.6.C.Z.< < r r 9 , o.g.*.<._ .XgX`.Z.l.,.fXT ; UXLXPXLXPXPXHXPXPXPXPXPXPXPXPXPXPXPX",
"KXBXGXLXKXPXPXSX3XK.$X%XP.R.$X3.$Xz.5._.B.C.^.Q.>Xk., t.y w e u.R.;.M.~.8 Y cX_.Z.`.1XjX; jXSXAXLXLXPXPXLXHXPXKXPXPXPXPXPXPXPXPX",
"PXPXPXPXPXPXPXPXiX3X:XD.v.M.8.,.D.S.:X_.K.n.(._.+X..} %.X.C =.B.2.(.G.2.-XwX4XhX,X5XgXXX XIXPXLXPXPXPXPXPXPXPXPXPXPXPXPXPXPXPXPX",
"PXPXPXPXPXPXPXPXHXiXK.2.w.$XD.0.^.U.P.K.U.'.~.>.w } 4.-.d.d.7.3.3.`.P./.aXaXp.6XfXiXXX XCXKXIXPXPXPXPXPXPXPXPXPXPXPXPXPXPXPXPXPX",
"PXPXPXPXPXPXPXPXPXbX5X!.9.w.v.D.$X(.K.n._.~.,.e B z.D.v.;.x.w.3.e.8.P.k.lXZX#X8 > [.aXVXCXKXPXIXPXPXPXPXPXPXPXPXPXPXPXPXPXPXPXPX",
"PXPXPXPXPXPXPXPXJXKXHXhX2XR.3.3.N.^.R.~.).Z.K %.b.v.D.v.;.#.5.E.+.^._._ zXNX*X2 : jXCXDXPXPXIXLXPXPXPXPXPXPXPXPXPXPXPXPXPXPXPXPX",
"PXPXPXPXPXPXPXPXKXPXGXPXFXxX2XI.J.F.F.U.R...C D.M.d.g.A.g.*.4.W.1.D...# 9XXX.XeXGXPXJXPXPXJXPXGXPXPXPXPXPXPXPXPXPXPXPXPXPXPXPXPX",
"PXPXPXPXPXPXPXPXHXVXDXLXPXHXvXcXyX2X2X5X4Xl. .3.M.7.%.j.g.7.m.C.G._ o T 0XtXaXbXLXPXJXPXPXDXPXPXPXPXPXPXPXPXPXPXPXPXPXPXPXPXPXPX",
"PXPXPXPXPXPXPXPXvXHXPXLXBXBXLXKXKXHXHXKXFXdX>X2.L.M.g.%.*.5.B.Q.#X}.qXZXUXLXVXIXDXPXDXSXPXPXFXHXPXPXPXPXPXPXPXPXPXPXPXPXPXPXPXPX",
"PXPXPXPXPXPXPXPXPXHXKXPXPXKXHXCXCXGXLXLXJXKXdXR.3.3.b.v.w.1.r.R.lXIXKXZXLXLXIXPXHXKXHXPXPXKXHXHXPXPXPXPXPXPXPXPXPXPXPXPXPXPXPXPX",
"PXPXPXPXPXPXPXPXPXPXPXPXPXPXPXPXPXPXPXPXPXKXHXDXR.G.3.1.1.S.yXcXPXPXPXPXPXPXPXPXPXPXPXPXPXKXPXPXPXPXPXPXPXPXPXPXPXPXPXPXPXPXPXPX",
"PXPXPXPXPXPXPXPXPXPXPXPXPXPXPXPXPXPXPXPXPXPXKXLXdXyX2X2X3XdXcXLXPXPXPXPXPXPXPXPXPXPXPXPXPXPXPXPXPXPXPXPXPXPXPXPXPXPXPXPXPXPXPXPX",
"PXPXPXPXPXPXPXPXPXPXPXPXPXPXPXPXPXPXPXPXPXPXHXKXPXFXnXcXvXVXLXLXPXPXPXPXPXPXPXPXPXPXPXPXPXPXPXPXPXPXPXPXPXPXPXPXPXPXPXPXPXPXPXPX",
"PXPXPXPXPXPXPXPXPXPXPXPXPXPXPXPXPXPXPXPXPXPXPXPXLXPXLXGXGXGXLXPXPXPXPXPXPXPXPXPXPXPXPXPXPXPXPXPXPXPXPXPXPXPXPXPXPXPXPXPXPXPXPXPX",
"PXPXPXPXPXPXPXPXPXPXPXPXPXPXPXPXPXPXPXPXPXPXPXPXHXHXHXPXGXHXHXPXPXPXPXPXPXPXPXPXLXPXPXPXPXPXPXPXPXPXPXPXPXPXPXPXPXPXPXPXPXPXPXPX",
"PXPXPXPXPXPXPXPXPXPXPXPXPXPXPXPXPXPXPXPXPXPXPXPXHXHXHXPXPXKXKXKXPXPXPXPXPXPXPXPXPXPXPXPXPXLXPXPXPXPXPXPXPXPXPXPXPXPXPXPXPXPXPXPX",
"PXPXPXPXPXPXPXPXPXPXPXPXPXPXPXPXPXPXPXPXPXPXPXPXPXPXKXKXPXPXPXKXPXPXPXPXPXPXPXPXPXPXPXPXLXPXLXPXPXPXPXPXPXPXPXPXPXPXPXPXPXPXPXPX",
"PXPXPXPXPXPXPXPXPXPXPXPXPXPXPXPXPXPXPXPXPXPXPXPXAXPXPXHXHXHXGXGXPXPXPXPXPXPXPXPXLXPXLXLXPXLXPXPXPXPXPXPXPXPXPXPXPXPXPXPXPXPXPXPX"
};
