/* XPM */
static char *f9cab5719cea494bd4188945f8ac50a8I2qFjeJ1cxK5Gq3d[] = {
/* columns rows colors chars-per-pixel */
"64 64 256 2 ",
"   c #301200",
".  c #373E00",
"X  c #2D1312",
"o  c #4E1904",
"O  c #681B01",
"+  c #781B0D",
"@  c #562800",
"#  c #5A3A00",
"$  c #4C2A0B",
"%  c #682804",
"&  c #782902",
"*  c #693803",
"=  c #763802",
"-  c #782B15",
";  c #562E2E",
":  c #6A2F28",
">  c #354400",
",  c #4F4F06",
"<  c #664704",
"1  c #695803",
"2  c #755719",
"3  c #6F4B11",
"4  c #556503",
"5  c #767618",
"6  c #726F0A",
"7  c #714C2E",
"8  c #776F2E",
"9  c #5B4D2A",
"0  c #503C4F",
"q  c #6E494D",
"w  c #746654",
"e  c #776E6F",
"r  c #6C525F",
"t  c #941905",
"y  c #8C1300",
"u  c #AD1904",
"i  c #8A2506",
"p  c #972807",
"a  c #863706",
"s  c #983607",
"d  c #9A2914",
"f  c #883716",
"g  c #983813",
"h  c #882812",
"j  c #A4270C",
"k  c #A4380B",
"l  c #A72C16",
"z  c #A83818",
"x  c #B83217",
"c  c #8C3B25",
"v  c #B43923",
"b  c #C93215",
"n  c #DC3723",
"m  c #894704",
"M  c #9B5815",
"N  c #904B0F",
"B  c #AA471A",
"V  c #AF501A",
"C  c #8C6C15",
"Z  c #91522C",
"A  c #AA4929",
"S  c #BB5726",
"D  c #AE532D",
"F  c #887728",
"G  c #937030",
"H  c #B9682A",
"J  c #A66638",
"K  c #B96935",
"L  c #A67B35",
"P  c #AB6F2B",
"I  c #AA7215",
"U  c #C55629",
"Y  c #CB4F30",
"T  c #C7663A",
"R  c #CA783A",
"E  c #D16B36",
"W  c #E8633E",
"Q  c #DF4D29",
"!  c #865B4D",
"~  c #936C48",
"^  c #A97647",
"/  c #B87948",
"(  c #BA7554",
")  c #AE704D",
"_  c #8B7571",
"`  c #B45D42",
"'  c #CD754B",
"]  c #EB7750",
"[  c #D9674E",
"{  c #768914",
"}  c #75882A",
"|  c #898D18",
" . c #888B28",
".. c #8A9638",
"X. c #979B38",
"o. c #908E30",
"O. c #A99538",
"+. c #AF8D34",
"@. c #90AA34",
"#. c #ADAA33",
"$. c #A68F1B",
"%. c #C79D38",
"&. c #978E49",
"*. c #A78945",
"=. c #A89753",
"-. c #B89858",
";. c #B18C4D",
":. c #9CA84D",
">. c #B7A857",
",. c #B0B24E",
"<. c #988C73",
"1. c #BB9768",
"2. c #AD8E6B",
"3. c #B7B26B",
"4. c #D58747",
"5. c #C98A59",
"6. c #D49759",
"7. c #CE8E51",
"8. c #E88A55",
"9. c #CAB759",
"0. c #CDB152",
"q. c #E9A55B",
"w. c #CB956C",
"e. c #FA976A",
"r. c #F5936B",
"t. c #CAA766",
"y. c #D8B576",
"u. c #CFAD6E",
"i. c #FCAD75",
"p. c #E8BA77",
"a. c #F9B779",
"s. c #EDAE6A",
"d. c #B3CA50",
"f. c #BBCB68",
"g. c #CAC957",
"h. c #D4C668",
"j. c #CAC876",
"k. c #CBDC79",
"l. c #CFD16C",
"z. c #FBC67A",
"x. c #EACD71",
"c. c #D9E873",
"v. c #EFEF78",
"b. c #E0D65A",
"n. c #776A82",
"m. c #907E8E",
"M. c #958594",
"N. c #9C9A95",
"B. c #958B8A",
"V. c #A39A97",
"C. c #A49785",
"Z. c #B1A795",
"A. c #9390A5",
"S. c #B3AFA6",
"D. c #9F9CAB",
"F. c #DAAA85",
"G. c #C8B787",
"H. c #D0B68C",
"J. c #E7BC85",
"K. c #FBB988",
"L. c #FBBA96",
"P. c #EFB28E",
"I. c #C3B8A9",
"U. c #FC9C84",
"Y. c #DBD588",
"T. c #D6C79A",
"R. c #D3CB8D",
"E. c #E9C58A",
"W. c #FAC787",
"Q. c #E7D28B",
"!. c #F9D588",
"~. c #E7CB95",
"^. c #FDC899",
"/. c #E8D799",
"(. c #F8D798",
"). c #D7E693",
"_. c #E8E79A",
"`. c #F3EE92",
"'. c #DACCA7",
"]. c #DDD5AA",
"[. c #D8CDB7",
"{. c #DEDBBA",
"}. c #DBD5B7",
"|. c #CAC5B1",
" X c #FDC8A3",
".X c #E4D5AB",
"XX c #ECDBAD",
"oX c #E5D9A8",
"OX c #F2DDA4",
"+X c #F9D9A7",
"@X c #E5D6B6",
"#X c #E6DBB5",
"$X c #EADAB6",
"%X c #E5D6B9",
"&X c #EAD6BB",
"*X c #E5DABB",
"=X c #EADBBC",
"-X c #E9D6B2",
";X c #F5D8B8",
":X c #E6CCA8",
">X c #DEE7AA",
",X c #DAE5BA",
"<X c #EAE7A9",
"1X c #F3E5AB",
"2X c #FDE3AC",
"3X c #F4EBAD",
"4X c #FDEAAD",
"5X c #FCE2A6",
"6X c #EBE3B4",
"7X c #E5E2BD",
"8X c #EBE2BC",
"9X c #E7E7B6",
"0X c #F3E4B5",
"qX c #F5ECB4",
"wX c #FDE4BB",
"eX c #F4EBBA",
"rX c #FDECBC",
"tX c #F9E7B6",
"yX c #FCF3BC",
"uX c #F9F3B6",
"iX c #EEF5AF",
"pX c #DCD8C3",
"aX c #CCD3CC",
"sX c #EAD4C4",
"dX c #E5DCC3",
"fX c #EADCC2",
"gX c #E5DCCA",
"hX c #EBDBCA",
"jX c #E7D6C5",
"kX c #F3DAC6",
"lX c #E9D9D1",
"zX c #F1D2CC",
"xX c #DCE6C9",
"cX c #DFE9D3",
"vX c #E6E2C3",
"bX c #EAE2C5",
"nX c #EBE3C4",
"mX c #EDEAC4",
"MX c #E5E3CB",
"NX c #EDE5C9",
"BX c #EBE4CA",
"VX c #ECE9CB",
"CX c #E6E9C4",
"ZX c #F2E3C4",
"AX c #F2EBC4",
"SX c #F2E5CA",
"DX c #F3EBCB",
"FX c #FBEAC7",
"GX c #FDF2C4",
"HX c #FBF4CB",
"JX c #ECE5D2",
"KX c #EAE7D4",
"LX c #F6EAD5",
"PX c #FBF5D6",
"IX c #E6F0C8",
"UX c #F3F4E3",
/* pixels */
"-X-X.X.X.X-X-X-X@X@X%X%X%X%X%X=X=X=X=X=X=X=X=X=X=X=XfXvXvXvXvXvXvXvXvXvXvX*X*X*X*X*X*X*X*X*X*X=X$X$X$X$X%X%X&X&X%X%X@X@X@X-X@X@X",
"-X-X.X.X-X-X-X@X@X$X%X%X%X%X*X*X=X$X=X=X=X=X=X=XnXnXnXnXnXnXbXbXvXvXvXvXvXvX=X*X=X*X*X*X*X*X*X*X@X@X$X=X%X%X&X*X%X%X@X@X@X-X@X@X",
"-X-X-X-X-X-X@X@X%X=X%X%X*X*X*X*XfX=XfX=XfXfXnXnXnXmXmXmXbXbXNXNXbXbXbXbXvXvXnXnXnXfXfXfXfXfXfX=X%X=X=X*X*X*X*X*X%X%X%X@X@X-X-X-X",
"-X-X-X-X-X@X@X%X=X=X%X*X*X*X=X=XfXfXbXnXbXnXbXbXmXmXmXNXNXNXNXNXbXbXnXbXbXbXnXnXbXbXbXfXnXnXdXdX*X*X*X*X*X*X*X*X*X%X%X@X@X-X-X-X",
"@X@X@X@X@X%X%X%X*X*X*XfXfXfXfXfXnXbXbXbXbXbXBXBXNXNXNXNXNXNXNXNXNXNXBXBXBXnXnXnXbXbXbXbXbXvXvXvXdXdXdXdXdXdXdXdX*X*X%X@X@X-X-X-X",
"@X@X@X@X%X%X*X*X*X*XfXfXfXfXfXnXbXbXBXBXBXBXNXNXNXNXNXNXNXSXSXSXSXSXSXSXSXNXBXBXbXBXbXbXbXbXvXvXvXdXdXdXdXdXdXdXjX*X*X%X@X@X-X-X",
"%X%X%X%X*X*X*X*XfXfXfXfXfXnXnXnXBXBXBXBXVXVXBXVXNXNXDXDXSXDXDXSXSXSXSXSXSXSXNXNXNXbXbXbXbXbXbXvXvXvXdXdXdXdXgXdXdX*X*X%X@X@X-X-X",
"%X%X%X%X*X*X*X*XfXfXfXfXbXnXnXnXBXVXVXVXVXVXVXVXDXDXDXDXDXDXDXDXSXSXSXSXSXSXZXZXmXmXmXbXbXbXbXbXvXvXdXdXdXdXgXgXfX*X*X%X%X@X@X-X",
"%X%X*X*X*XfXfXfX*XdXfXbXbXnXmXbXvXvXBXVXDXDXDXDXDXDXDXDXDXDXHXPXPXHXHXDXDXDXZXnXmXDXmXnXnXDXDXbXnX*X{.bXnX%X%XBXdX*X*X%X%X%X@X@X",
"%X%X*X&X*XfXfXfXfXfXnXnXnXmXmXmXPXDXVXbXbXVXDXDXHXHXHXDXZX8X@X].'.].@X$XZXHXHXPXZXAXDXAXmXAX8X#XnXnXmXDXSXnXfXfXdX*X*X*X&X%X%X@X",
"%X*X*X*XfXfX=XfXfXnXnXnXmXmXmXmX7XnXmXDXPXPXHXHXAX#X'.T.T.T.]..XT.T.T.'.'..X.X].eXGXHXGXAXAXeX6X$X8X$X@X@X=XZXZXfX&X*X*X*X%X%X%X",
"*X*X*X*XfXfX=XfXfX=XnXnXnXnXnXAXDXDXHXHXAX8X.X].'.]..X6X0X0X6XXXeX0X6XXXoX:XT.T.G.G.T.T..X6XrXGXGXGXrX0X$X=X*X*XsXfXfXsX*X*X*X%X",
"%X*X%X*X*X=X=X=X=X8XnXnXmXmXmXAXHXFX8X@XoXoX.X.X6X0XyXyXyXuXqXqXrXrXtXqXtXtX1XXXXXoX/.T.H.G.G.G.T./.XXFXFXZX=X$X=XsXfXfX*X*X*X*X",
"%X*X*X*X=X=X=X8XnXnXnXAXAXAXmXeX$XXXXX$X0XeXrXyXGXyXqX<XoXoX3XuX1X1X1X1X1X1X1XOX1XOXOXOXOX/.~.~.u.G.H.T.:X;XZXFX=XsXsXfX*X*X*X*X",
"*X*X%X=X*X=X8X8XnXnXnX8X8X8X9X9X0XtXtXrXrXrXtX1X1XqXuXyXyXuX3X3XuX3X3X3X4X4X1X1X4XOXOX1X2XOX/./.5X2X~.u.u.:XwXwX=XsXsXfXfXjX%X%X",
"*X*X*X*X=X=X=X$XeX0X0X6XXXoXoXoXOXOXOX+X2XtXtX4X3X3X3X3XuXuXuX3X1X1X3X3XqXuXuXqX<X/.~./.5X4X4X4X(.+XK.;.2.~.FX=X=XfXfXfX*X*X%X%X",
"{.{.dXbXSXZX;XXXOX(.(.Q.Q.~.~.~.E.E.(.(.+X+X+XOX3XqXqX9XeXGXGXeX0X0XeX9X9XiXiX<XiXY.Q.4X4XW.6.7.K V s B ' ^.PX}.CXxXMXfX=X;X-XXX",
"{.{.dXdXfXfX$XOXy.x.!.!.E.E.J.E.E.E.E.J.E.~.(.OXOX<XqXeXyXGXrXtXGXrX0X6XeXGXGXuXyX(.y.;.D s s s k k k V ' P.wXDXxXxXxXgXsX;XXXXX",
"=X=XdXvXvX8X$XOXE.z.z.z.W.W.^.+X(.(.(.(.(.Q.Q.Q.Y./.OX1XtXwXwXwX;XtXwXtX2X+X X^./ J f i g B z s k B k g ' ^.wXCXxXcXMXgXhXsX&X$X",
";X=X*XvXVXmXeX+XW.q.R H H J J J J / 5.u.p.W.!.Q.Q.Q.Q././.OX+XwX2X2X2XtX+XK./ h i p l z z v v z z g B D w.tXyX7XCXMXMXgXhXsXsXfX",
";X;X=XvXCXCXeX2X^.q.R S V g h i y p k S R q.a.W.!.Q.Q.Q.Q./.+X2X2X4X+Xp.K a i p z l l l l j l l A T K.4X(./.<X9XvXMXMXlXlXhXhXhX",
";X;X=XvXCX7X6X+Xp.7.T S B s g A l x x U E 8.q.a.z.!.!.Q.(.(.(.^.^.6.Z a a s d p t y y j v A v l Y r.a.t.8 &.>XuX6XnXhXgXlXlXhXlX",
";X;X$X7XCX7X6X1XJ.7.H V k p t l d k B U E 8.q.s.z.!.W.a.a.i.e.8.N a a f B g p i y z Y [ [ Y S z z 8.;.o...:.).<X1X0X8XvXgXgXgXhX",
";X$X=XnXnXmXeX4Xy.;.P H S k t y p p k V T 4.q.s.!.!.z.q.4.' S s s h g g p i i i A T [ ] r.i.r.[ e.i.C o.f.@.f.`._.1X6X7XvXdXgXhX",
"#X#X*X*XnX8X6X1X_.>.-.7.R k p y p p s s B R s.a.z.!.z.q.4.S B B g i g i y i d T ] k T T 8.a.K.K.' a 1 @.d.d.`.`.`.5X3X9X7X*X*X*X",
",X,X*XnXZXZX0X3X_.j.o.C 7.' k p U U V V V V R s.!.!.q.4.4.K V k d i p d j l Y r.r.] r.8.i.W.a.4.a m C { { @.d.l.,.j./.<X6X7X7X=X",
",X,X7XnXZXZXeX3X_.:.{ 1 C a.e.U U ] ] W E U k V K.(.W.q.8.R S s l t y t u u b n u b b U ] 4.R m M P 0.d.d.@.{ o.X.j._.3X6X6X8X#X",
",X,XvXnXSXZX0X<XiXk.,.5 6 x.W.r.e.K.e.W W [ T S a 7.i.q.R P M & & & i p j x x b b b k s N m M P C 0.x.c.| d.4 4 :.j.3XqX6X6X8X#X",
",XvXdXfXZXZX6X<X).d.f.#., O.p.4.W W Q W Q Y v g O % @ * 3 1 < $     < $ o * & N a N 3 * 1 6 5 ,.u.C 9.O.,.6 ..:.3.R.9X6X$X8XZX%X",
"dXdXsXfXhXnX6X<X3.f.{ 6 X.X.C P R U Y S p i h O Z 3 < 8 8 , , . } } &.8 5 o.*.t.;.0.O.5 5 o.5  .F # 2 C C >.3.:.R.>X8X=X=XkXkX*X",
"sXsXsXhXBXmX9X<X`.c.| { :. .| F 1 C o.*.1.w.1.2.2.<.&.8 , , ..,.} ..} X... .,.j.Q.Y.o.1 1 F *.>.8 3 G t.y.(.3X>X,XIXVXSXkXkXhXsX",
";X&XfXfXBXVXAXqX<X`.:. . .4 X.l.@.{ 4 4 } 8 9 8 9 , . , ..k.k.5 4  . .,. .> ..3._.Q.5 2 < < G *.=./.+XJ.y.~.qXeX,XCXVXBXkXsXsXfX",
"-X0X=XfXLXJX}.[.GXR.8 >.h.,.c.c.g.g. .4 4 > 4 4  .1 6 | ,.c.} { | #.0.,.C 5 &. .=.-.G Z Z ^ 1.+X+Xy.G 2 u.rXXXAXmXBXgXdXdX*X=X8X",
";XZX=X*XvXdX'.'.yXOXG < x.0.9.h.v.g.,.4 6 ..:.l.l.#.#.#.g.l.{ 6 $.$.$.$.O.o.F , < G J w. X;X XP.^ N G G -.yXtX#XZXNXBXBXfX=X=X9X",
"zXkXhXbXIXIXiXiXQ.h.0.C P = K +.| { 6 6 3././.=.< 1 >.`.`.,.6 | O.0.+.C 5 2 G =.-.J. X^.P.( Z N 5.7.(.*.< &.3.1X6XnXbXbXfX*X%X@X",
"zXzXhXvX9X>X).`.l.x.%.+.4.s i a O.g.9.>.-.;.1.G =.*.o.9.9.+.C +.G G C G *.t.J.+XwXL.F.w.1.- & Z K 6.W.L 2 =.3./.9X8XnXbXkXkXkXkX",
"zXlXhXvX>X).k.c.v.b.%.I q.i.8.5.y.G G Z ^ / ;.J.(.5XY.u.H.J.P.F.w.^ -.J. X;X XU.` f Z ;.1.- O & % P ;.C F >.Y._.>X>X7XdXsXhXkXkX",
"lXhXdXCX9X).k.c.g.#.b.C +.4.P ^.y.3   = w.5.( p.t.E.5X+X+Xw.2.) Z ^  XwXU.[ Y d h O # 3 2 < N J ' P M C G u.`.j.<X9XvXbXhXjXsXsX",
"vX7X7X7X>XR.j.j.h.6 0.0.$.C 1 F *.L # 3 / N J 5.5.w.y.u.F.' ( ( % - J A d l x v i O @ 2 &.u.u.6.M V P L L >.R.R.].{.MXJXJXSXkXzX",
"].].{.8XAX6XoXqX4Xx.F 9.h.h.g.l.9.-.F * w.P.` Z f 5.L.' D A A A c Z ' ] r.] v p = * # F *.t.L = N N N = L ;.w <.<.V.S.|.pXjXsX&X",
"oX<X#X#XfXnXZXZX+XH.-.< h.`.c.6 < 3 *.*.Z K.L.' g v v j u x Q ] r.K.^.^.] V a * $ , 8 *.-.m & s s p s Z ) ) _ _ B.B.B.N.Z.I.@XFX",
"oXoX#X=XfXhXkXkX;XP.1.Z < 4X;.$ o @ @ G u.L L H B j t u x U U S D / 8.4.s = < 1 ....=.-.% a s s s s g Z Z ! _ m.m.M.D.D.V.C.G.].",
"-X;X&XfXhXhXhXkX:XF.w.J % K a O % @ o # h.h.#.0.I H H N & & = < < < m M m C O.l.k._.R.* O i B p i h f c 7 q r _ M.M.D.V.C.<.G..X",
";X;XsXhXhXhXhXkX;Xu.) Z ` + + h - % * @ +.!.z.x.`.q.4.q.s.7.C < o.=.0.0.0.#.#.X.f.Y.Z o - D h c c - O : : q _ m.M.M.M.V.Z.I.].6X",
"zXzXsXjXgXdXnX=X-XP.) Z Z - + + + h & g a a M & a V M a P z.!.h.X.,.g.#.#.#.,.9.3.3   : : : : : ; ; ; q ! _ B.V.B.B.Z.I.[.*X.X.X",
"sXsXjXjXdXdXfX=XPX:X;XF.~ ! : o + + O N A K T 8.K.K.a.7.N = I x.l.g.l.c.b.#.X.9.2   $ ; ; X q ; 0 r e B.B.B.C.Z.I.|.[.jXdX*X@X@X",
"%X%X*XdXdXdXfXfX&XZ.:XwXFXSX}.S.<.w ! 7 Z 5.6.(.5X!.p.t.+.M m = x.h.g.d.d.| { F   $ ; r 0 n.n.m.A.A.N.N.V.Z.|.{.vXnXnXfX%X%X*XfX",
"*X*X{.{.dXdXfXfX@XPX].AXmXxXIXIXUXcX|.2.G 2 t.x.!.!.p.6./ H N O @ t.`.,.f.k.>., 9 w e e A.M.m.D.D.D.S.aXKXVXmXnX#X%X%X%X*X=X%X@X",
"{.{.{.*X*XdXdXfXfX=X8XnXbXbXBXCXPX}.PX}.2.<.8 1.rX^.s.5.K B s f @ $ 2.HX].<.w w <.e B.S.V.V.S.Z.[.pXpXgXbXnX=X#X=X=X=X=X%X@X@X@X",
"*X*X*X*X*X*X*X*XnXnXnXnXnXmXmXmXVXvXDX|.[.PXZ.~ H.+X^.5.D D D f $   9 C.<.w _ V.N.e _ Z.S.}.fX[.*X=XfXfXfX=X*X=X=X=X=X%X@X@X@X@X",
"%X%X*X*X*X*X*X*X=XfXfXfXnXnXnXmX*XVXPXdXgXPXfX'.~ 2.w.5.) Z - O : w <.<._ N.S.N.S.N.S.pXgXJXLXSXSXZXZX=X=X*X=X=X=X=X=X%X@X@X@X@X",
"%X%X*X*X*X*X*X*X*X*X=XfXfXnXnXnXLXBXgXLXLXJXLXPX'.3.&.~ ~ ~ ( w.Z.I.I.S.S.S.S.I.|.pXUXUXBXdXfXZXZXfX=X*X=X=X=X*X=X%X%X%X@X@X@X@X",
"%X%X*X*X%X*X*X*X*X*X=X=XfXfXnXnXSXLXhXJXLXJXJXdXPXHXeX0XwXFXFXkXPXPXSXhXKXKXKXLXLXKXJXJXsXfXfXfX*X*X*X*X=X=X=X=X%X%X%X%X%X%X%X%X",
"%X%X*X*X%X%X*X*X%X*X*X*X=XfXfXfX%XSXLXJXhXgXJXVX{.mXmX7X7XDXDXfX}.DXNXdXVXPXJXpXKXBXgXgXhXSXkX=X=X=X=X=X=X=X=X@X%X%X%X@X@X%X%X@X",
"%X%X%X%X%X*X*X*X%X%X*X*X*X=XfXfXSX*X%XhXJXKXJXLXCXvXCXmXmXvXBXPXPX*X*XDXDXdXMXPXdXVXSXSXSXkX&X=X=X=X=X=X*X=X%X%X@X@X@X@X@X@X@X@X",
"%X%X%X%X%X%X*X*X%X%X%X*X*X=XfXfX=X*XSXfXgXJXpXpXmX7X7XCXVXBXMXvX{.nXDXNX*XBXVXdXBXSXfX%X*X=X=X=X=X=X%X%X%X=X=X*X@X@X@X@X@X@X@X@X",
"%X%X%X%X%X%X%X%X%X%X%X%X*X*X*X=X#X#X=XfXvXvXvXvXvX7X7X7XnXbXbXbXnX7X7XvXvXvXvXvXvXnXfXfX=X=X=X=X=X=X=X=X%X%X%X%X@X@X@X@X@X@X@X@X",
"%X%X%X%X%X%X%X%X%X%X%X%X%X*X*X=X#X#X#X*XfXvXbXnX8X8X8X8X8XfXfXfXfX7X8X7XnXvXnXnXnXfXfX=X=X*X=X=X=X=X=X=X%X@X%X%X@X@X@X@X@X@X@X@X",
"%X%X%X%X%X%X%X%X%X%X%X%X%X*X*X%X#X#X#X#XdXfXfX=X=X$X$X;X=X=XkXkXfX=X=X=X=X=X=X=X*X=X=X=X=X=X=X=X%X%X=X=X@X@X%X%X@X@X@X@X@X@X%X@X",
"%X%X%X%X%X%X%X%X%X%X%X%X%X%X%X%X#X#X#X*XfXfXfX*X$X$X$X;X$X=XkXfX=X=X=X=X=X=X=X=X=X%X%X%X%X%X%X%X%X@X%X%X%X%X%X%X@X@X@X@X@X%X%X@X",
"%X%X%X%X%X%X%X%X%X%X%X%X%X%X%X%X#X#X%X*XfXfXfX*X=X=X$X$X=X*XfXfX*X*X*X*X*X*X=X=X@X@X%X%X%X*X%X%X@X@X%X%X%X%X%X%X@X@X%X%X%X%X@X@X",
"%X%X%X%X%X%X%X%X%X%X%X%X%X%X%X%X=X=X&XsXsXsXsX&X*X=X=X=X*X*XdXdX*X*X*X*X=X=X=X=X@X@X%X*X*X*X*X*X@X@X@X@X%X%X%X%X@X@X%X%X@X@X@X@X",
"%X%X%X%X%X%X%X%X%X%X%X%X%X%X%X%X&X&XsXsXsXsXjXjX*X*X%X#X*X*XdXdX*X&X=X%X%X%X$X$X@X@X%X*X*X{.{.*X@X@X@X@X@X%X%X%X@X@X@X%X@X@X@X@X",
"%X%X%X%X%X%X%X%X%X%X%X%X%X%X%X%X&X&XsXsXsXsXsXjX*X*X*X*X*XpXpXpX*X&X%X%X%X%X$X$X@X@X%X*X*X{.{.{.@X@X@X@X@X%X%X%X@X@X@X@X@X@X@X@X"
};
